<?xml version="1.0" encoding="iso-8859-1" ?>
              <svg
                version="1.1"
                xmlns="http://www.w3.org/2000/svg"
                xmlns:xlink="http://www.w3.org/1999/xlink"
                viewBox="0 0 1221 814"
                width="1221"
                height="814"
              >
                <g transform="translate(17.25 61.318) scale(6.018 6.034) rotate(0 99.29544699235625 59.26748425588333)"><g clip-path="url(#clipPath_VzW9Io0PYgm2F10_uR7p4)"><defs>
          <clipPath id="clipPath_VzW9Io0PYgm2F10_uR7p4">
            <rect x="0" y="0" width="198.606" height="118.531" />
          </clipPath>
       </defs><title>fish</title><g id="Слой_2VzW9Io0PYgm2F10_uR7p4" data-name="Слой 2"><g id="fishVzW9Io0PYgm2F10_uR7p4"><path d="M21.479,73.488c-.353.077.069.087-.011.538-.035.2-.076.439-.118.712-.034.219-.3.424-.335.681-.03.227.1.487.072.738-.026.232-.3.449-.324.7s.284.5.267.749-.167.47-.178.716-.221.479-.225.725.245.486.248.73.141.477.152.72-.1.489-.078.731-.086.5-.054.738.244.454.289.691-.135.531-.075.763.1.494.174.719.485.315.576.54.149.438.249.659.164.436.271.653.186.429.3.642.173.44.29.65.088.49.208.7.4.31.524.513.1.5.222.7.294.375.423.575.3.37.434.568.4.306.53.5,0,.579.131.774.5.236.632.429.211.435.349.627.3.373.439.563.207.441.348.629.453.257.595.444.184.461.326.646.414.287.557.471.178.472.322.654.383.313.526.493.386.31.529.487c.159.2.193.475.335.648.164.2.387.324.526.491.174.21.053.623.182.775.289.343.227.4.57.325s-.134-.182-.06-.634c.031-.195.13-.409.158-.68.022-.212.04-.438.053-.693.012-.219.011-.448.014-.7,0-.223.241-.459.234-.706-.007-.225.15-.475.134-.72-.016-.227-.462-.426-.487-.669-.024-.227.026-.467-.007-.707s.19-.5.149-.74-.43-.392-.479-.629-.047-.464-.1-.7.045-.494-.019-.727-.065-.471-.135-.7-.127-.454-.2-.682-.1-.463-.182-.689-.462-.327-.55-.551-.21-.418-.3-.64-.016-.5-.115-.72,0-.525-.106-.743-.518-.272-.628-.488-.22-.417-.34-.641c-.112-.206-.2-.432-.325-.651s.074-.594-.049-.809-.356-.352-.481-.565-.44-.3-.567-.512-.062-.529-.19-.739-.524-.248-.652-.456-.252-.417-.381-.625.088-.634-.042-.841-.347-.365-.479-.571-.316-.386-.448-.592-.46-.294-.592-.5.084-.641-.047-.843-.438-.3-.569-.5-.492-.272-.623-.471-.185-.473-.314-.668c-.142-.215-.013-.6-.141-.787-.147-.22-.462-.305-.587-.492-.155-.231-.376-.377-.491-.548C21.464,73.58,21.831,73.411,21.479,73.488Z" fill="rgb(61,187,159)"/><path d="M63.368,90.728c-.335.13-.137.292-.077.752.026.2.3.405.346.679.035.215.069.451.117.707.042.221-.013.477.04.726.049.223.021.478.08.722.054.225.112.461.176.7.059.224.429.37.5.608s.125.452.2.687,0,.5.073.73-.116.546-.033.776.336.386.424.614.231.421.324.646.326.378.424.6.245.408.347.628.169.444.277.662.21.425.322.64.015.532.132.745.374.338.5.547.026.542.153.749.527.233.659.437.146.475.282.675.106.512.247.709.482.242.628.435.392.3.542.488.2.451.355.637.206.455.365.637.449.24.613.418.152.515.321.689.309.373.482.543.585.081.762.246.328.345.509.506.335.339.521.495.348.323.536.474.339.338.531.484.285.418.481.559.5.124.7.26.3.414.5.546.43.218.636.345.436.2.644.326.492.1.7.216.264.519.478.632.55-.023.766.084.395.282.614.384.445.178.666.276.4.277.627.37.521-.014.747.074.4.3.627.378.5.018.73.1.406.3.637.369.484.041.715.11.484.031.716.095.419.271.653.331.483.026.718.083.386.458.623.51.525-.165.763-.117.492-.035.731.009.458.152.7.192.472.077.713.113.471.061.71.093.443.3.684.331.46.223.7.248.52-.377.763-.355.472.12.715.139.461.3.7.311.5-.325.746-.313.477.074.72.082.5.162.749.168c.061-.347-.2-.186-.58-.431-.166-.107-.349-.248-.566-.408-.172-.126-.32-.309-.516-.47-.171-.139-.558-.049-.743-.216-.167-.15-.371-.289-.546-.462s-.2-.459-.363-.638-.144-.487-.3-.672-.565-.142-.713-.333-.287-.377-.425-.574-.244-.407-.374-.611.058-.579-.062-.788-.342-.337-.453-.55-.415-.317-.518-.534,0-.515-.088-.736-.474-.32-.558-.545-.158-.451-.233-.679.25-.569.184-.8-.219-.423-.276-.657-.173-.447-.233-.678-.34-.4-.4-.63.274-.573.207-.8-.329-.4-.4-.628-.395-.37-.471-.6-.055-.481-.137-.7.128-.562.039-.782-.38-.361-.476-.578-.287-.39-.391-.6-.209-.423-.321-.632.036-.571-.085-.774-.274-.4-.406-.6-.56-.187-.7-.375-.268-.382-.423-.561-.1-.551-.271-.719-.385-.3-.565-.449-.411-.25-.6-.388-.343-.349-.549-.47-.382-.318-.6-.419-.422-.268-.648-.348-.537.1-.771.04-.446-.181-.686-.221-.43-.215-.664-.262-.533.253-.764.2-.437-.2-.666-.261-.391-.342-.618-.409-.459-.094-.683-.168-.547.139-.769.059-.353-.405-.571-.492-.381-.3-.6-.4-.515,0-.726-.107-.307-.432-.514-.541-.545.015-.746-.1-.336-.353-.531-.48-.305-.376-.492-.513-.392-.247-.569-.4-.36-.286-.524-.448-.525-.157-.673-.334a6.389,6.389,0,0,1-.42-.576,6.065,6.065,0,0,1-.263-.738c-.35-.082-.375.273-.733.282s-.367-.3-.726-.289-.353.261-.713.27-.361-.039-.72-.03-.361-.034-.72-.025-.354.176-.713.185-.366-.234-.727-.225-.358.117-.719.126a3.944,3.944,0,0,1-.729-.008C63.72,90.729,63.706,90.6,63.368,90.728Z" fill="rgb(61,187,159)"/><path d="M68.8,17.451c-.3-.188.014-.236.245-.636.1-.172.466-.226.611-.459.114-.181.053-.5.2-.714.123-.184.334-.326.479-.531.131-.185.236-.4.385-.6.136-.182.3-.356.452-.55s.3-.361.451-.551.42-.255.58-.44.013-.617.177-.8.609-.078.776-.255.2-.46.37-.633.4-.262.577-.431.4-.262.575-.427.138-.55.319-.71.253-.436.438-.593.624.008.811-.144.277-.41.468-.558.462-.173.655-.317.238-.478.434-.618.392-.266.59-.4.45-.177.651-.307.441-.185.645-.312.4-.245.608-.368.25-.515.459-.633.421-.226.632-.34.493-.086.707-.2.55.043.765-.062.348-.369.566-.47.406-.253.626-.35.377-.332.6-.424.421-.236.645-.323.461-.14.686-.223.451-.163.679-.242.526.068.755-.006.405-.3.636-.371.524.106.754.04.37-.441.6-.5.5.014.728-.043.507.086.741.033.411-.346.646-.395.443-.223.679-.268.494.037.731,0,.493.054.731.017.447-.245.686-.278.5.175.739.146.475-.014.714-.04.441-.394.68-.416.482-.01.723-.027.482,0,.724-.014.479,0,.719-.011.482.036.724.029.482.151.723.147.484-.194.729-.194.48.179.719.183.482-.036.721-.027.483-.031.721-.017.494-.128.731-.109.45.37.687.394.508-.22.744-.19.468.141.7.175.48.047.714.087.457.174.69.218.514-.113.746-.064.442.231.673.286.506-.035.735.024.427.268.654.333.493.032.719.1.494.043.718.117.408.3.631.377.485.078.7.163.313.508.531.6.547-.067.763.028.495.078.708.178.407.269.618.374.432.217.64.326.431.221.637.335.3.447.5.567.324.39.523.513.637-.1.833.024.36.334.551.466.242.489.429.625.6,0,.784.145.355.341.534.486.274.433.449.582.325.365.493.516c.188.169.351.338.512.492.188.18.317.384.469.539.192.2.587.149.721.3.3.335.649.392.526.719-.129.343-.431,0-.889.161-.192.068-.505-.048-.77.064-.2.085-.287.5-.531.617-.2.1-.416.206-.647.328-.2.107-.429.2-.654.324-.2.116-.6-.066-.817.068-.2.123-.344.368-.559.508-.2.13-.279.454-.489.6s-.524.1-.729.247-.2.543-.407.7-.387.291-.587.449c-.184.146-.626-.023-.81.131s-.3.382-.48.539-.318.355-.5.514-.2.484-.384.643-.631,0-.812.158-.224.463-.407.619-.192.51-.377.664-.435.223-.622.373-.567.046-.758.193-.249.458-.443.6-.329.362-.528.5-.4.269-.6.4-.563-.007-.771.117-.394.258-.605.375-.252.54-.467.65-.442.193-.661.295-.552-.069-.774.025-.416.23-.642.317-.421.228-.649.306-.476.058-.707.129-.474.044-.707.108-.47.045-.7.1-.4.364-.639.413-.479.017-.718.059-.487-.058-.727-.023-.424.418-.665.446-.481-.04-.721-.018-.488-.187-.73-.171-.469.071-.712.081-.469.324-.712.328-.478-.25-.72-.251-.474-.143-.718-.149-.485.192-.729.182c-.357-.061-.3-.323-.655-.4s-.411.192-.765.117-.327-.2-.68-.278S93.35,22.475,93,22.4s-.362-.036-.716-.111-.358-.055-.712-.131-.41.186-.764.11-.354-.084-.709-.159-.321-.234-.677-.309-.411.185-.766.109-.29-.376-.645-.452-.407.171-.761.1-.344-.123-.7-.2-.346-.117-.7-.193-.39.088-.746.012-.3-.314-.66-.389-.378.03-.733-.046-.35-.1-.7-.177-.361-.05-.716-.126-.3-.338-.649-.413-.367-.007-.72-.083-.34-.138-.694-.213-.367-.019-.723-.094-.388.077-.745,0-.357-.067-.712-.143-.3-.33-.655-.405-.407.168-.762.092-.382.041-.738-.035-.276-.453-.632-.529-.359-.06-.715-.136-.377.014-.734-.063-.366-.029-.723-.105-.427.257-.784.181-.29-.38-.646-.456-.335-.184-.692-.261-.362-.057-.72-.134-.4.136-.763.088A1.2,1.2,0,0,1,68.8,17.451Z" fill="rgb(61,187,159)"/><path d="M96.3,11.527c-.239-.01-.474-.091-.708-.1s-.482.248-.716.244-.472-.333-.706-.334-.482.054-.719.056-.479.112-.715.118-.488-.219-.724-.21-.459.463-.694.476-.5-.337-.735-.32-.457.3-.691.322-.464.148-.7.172-.479-.01-.711.019-.52-.289-.752-.256-.424.394-.655.431-.5-.083-.726-.042-.445.21-.673.256-.527-.184-.754-.133-.415.325-.641.38-.485.026-.708.087-.449.168-.671.233-.464.116-.685.187-.456.145-.675.222-.507.013-.723.1-.3.542-.512.63-.6-.177-.808-.082-.365.359-.572.46-.475.125-.677.232-.469.156-.667.27-.257.512-.45.632c-.21.13-.315.39-.5.517-.206.139-.632-.058-.812.075-.2.15-.3.412-.472.551-.2.163-.478.211-.636.354-.2.183-.2.525-.338.666a4.433,4.433,0,0,1-.47.407c.318.278.23.41.608.6a1.914,1.914,0,0,0,.648.224,2.357,2.357,0,0,0,.681.145c.139-.135.186-.569.4-.753.163-.139.363-.289.574-.448.177-.134.467-.151.679-.3.186-.128.54-.017.755-.15.194-.121.3-.4.52-.52.2-.114.381-.282.6-.4s.354-.354.578-.46.409-.255.636-.354.454-.155.683-.246.447-.172.678-.257.525.062.758-.015.4-.3.636-.372.525.107.761.042.376-.438.613-.5.5.021.734-.032.505.1.744.049.417-.334.655-.377.449-.209.689-.247.491.054.732.021.49.073.731.044.457-.228.7-.251.5.195.741.175.477.005.72-.01.456-.375.7-.386.481.011.723,0,.482.022.726.019.482.021.726.021.478.057.721.061.478.172.722.179.489-.172.733-.162.465.2.7.214.476-.017.709,0,.477-.011.71.012.49-.109.723-.081.427.386.658.419.508-.2.739-.164.454.157.683.2.47.064.7.11.443.188.67.239.509-.1.735-.043.426.243.651.3.5-.021.726.044.413.279.636.349.485.044.706.119.486.054.7.133.394.3.61.389.476.086.69.175.3.511.507.6.544-.056.756.042.486.085.694.187.394.273.6.379.422.222.625.334.417.222.616.336.328.456.524.575c.191-.151.527-.188.712-.339s.1-.635.277-.788.38-.165.558-.32c-.2-.126-.214-.394-.421-.52s-.585.061-.794-.059-.383-.278-.595-.394-.34-.368-.554-.479-.4-.273-.612-.38-.423-.22-.642-.322-.412-.25-.633-.347-.562.105-.785.012-.452-.143-.677-.23-.377-.342-.6-.425-.373-.367-.6-.445-.558.177-.786.1-.45-.138-.681-.207-.445-.161-.677-.225-.368-.47-.6-.529-.5.011-.732-.043-.513.114-.749.063-.424-.312-.661-.357-.522.225-.758.184-.464-.083-.7-.12-.413-.476-.652-.508-.489.036-.729.008-.48.008-.72-.016-.5.184-.736.165-.447-.453-.688-.468S96.545,11.538,96.3,11.527Z" fill="rgb(61,187,159)"/><path d="M99.664,17.837c-.235-.07-.45-.2-.681-.269s-.508,0-.74-.055-.456-.184-.689-.24-.5.011-.735-.041-.4-.454-.639-.5-.489-.056-.724-.1-.536.26-.772.224-.435-.389-.671-.419-.511.169-.747.144-.473-.146-.71-.165-.48-.109-.716-.122-.5.237-.731.229-.48-.336-.716-.337-.489.057-.725.063-.483.122-.719.135-.5-.2-.74-.18-.44.487-.674.515-.531-.3-.763-.265-.438.342-.67.385-.451.2-.679.248-.482.051-.707.11-.568-.208-.791-.139c-.238.073-.365.462-.584.539-.236.083-.516.016-.73.1-.234.094-.4.3-.611.4-.233.106-.576-.045-.775.058-.233.121-.34.437-.527.548-.238.14-.491.192-.657.305a2.871,2.871,0,0,0-.547.5c.13.191.1.276.3.378.321.16.362.085.713.16s.319.231.671.306.4-.259.759-.241c.191-.105.492.159.735.044.2-.1.352-.352.593-.45.213-.087.471-.08.712-.165.22-.077.47-.07.713-.143.224-.068.372-.433.617-.5.229-.058.436-.271.682-.324s.55.3.8.262.45-.22.7-.253.492.084.741.06.46-.286.709-.3.486-.019.735-.026.484.094.732.094.48.087.728.1.481.019.729.034.509-.285.757-.263.489.054.737.082.466.213.712.248.432.352.675.393.506-.1.75-.052.489.032.733.084.513-.047.756.01.49.058.73.12.469.16.71.228.475.136.715.208.408.37.642.443.523,0,.754.076.389.4.619.477.582-.138.812-.054.419.3.647.392.386.369.611.46.556-.04.781.056.507.077.728.175.371.312.59.414c.217-.07.443-.011.652-.087s.363-.324.571-.407.51.049.714-.04.523-.3.723-.4c-.212-.11-.673-.043-.894-.153s-.418-.241-.641-.348-.422-.236-.648-.339-.431-.223-.658-.322-.424-.242-.652-.337-.389-.336-.619-.427-.519,0-.749-.09-.394-.336-.627-.42-.476-.119-.71-.2-.477-.107-.711-.184-.513,0-.75-.074S99.9,17.909,99.664,17.837Z" fill="rgb(61,187,159)"/><path d="M69.474,17.877a2.592,2.592,0,0,0,.745.171c.349.075.372-.033.722.042s.368-.119.725-.128c.117-.168.321-.177.483-.392.131-.174.2-.423.359-.622.14-.174.167-.465.331-.655.148-.172.491-.188.659-.371s.424-.237.6-.414.083-.577.258-.749.285-.389.464-.555.47-.188.653-.349.535-.1.721-.253.355-.3.545-.454.241-.458.435-.6.413-.235.61-.376.45-.177.651-.312.3-.4.5-.533.435-.192.641-.316.336-.362.546-.481.445-.175.657-.289.362-.334.578-.443.581.112.8.009.409-.234.629-.332.3-.509.52-.6.559.117.784.03.362-.387.589-.469.48-.068.709-.145.473-.08.7-.152.381-.389.613-.456.545.185.778.124.442-.169.675-.225.437-.211.671-.262.508.13.744.085.386-.524.623-.565.528.281.766.245.434-.334.673-.365.463-.164.7-.19.485.01.725-.012.5.31.739.293.453-.361.693-.373.484.139.725.131.475-.14.717-.143.48.28.723.28.477-.221.718-.217.477.1.72.113.479-.023.721-.011.483.051.729.068.473.04.707.059.459.2.692.219.513-.348.745-.324.428.446.66.474.492-.114.724-.083.455.163.686.2.453.156.683.194.521-.229.751-.187.5-.07.734-.024.387.494.617.543.5-.039.725.015.428.251.655.308.523-.117.748-.055.458.136.682.2.425.238.647.308.424.224.644.3.445.157.663.236.559-.131.775-.046.443.185.657.275.38.332.593.428.31.457.52.558.5.044.709.151.448.165.651.276.493.1.692.217.442.2.638.322.384.29.575.42.394.275.581.41.24.471.421.613.412.148.587.295c.2-.14.486-.045.68-.17s.237-.538.433-.657c.212-.129.474-.107.671-.219-.175-.157-.215-.444-.4-.6s-.526-.112-.72-.264-.453-.184-.651-.328-.311-.38-.513-.518-.322-.379-.529-.511-.5-.1-.707-.23-.292-.45-.506-.57-.4-.269-.621-.383-.584.092-.8-.016-.415-.235-.638-.338-.42-.227-.646-.324-.43-.21-.658-.3-.425-.227-.655-.313-.4-.32-.627-.4-.515.021-.748-.055-.4-.315-.639-.387-.472-.091-.706-.158-.475-.078-.711-.14-.5.035-.739-.023-.391-.434-.629-.488-.528.161-.768.111-.455-.176-.7-.222-.478-.066-.72-.108-.455-.175-.695-.213-.505.132-.747.1-.457-.2-.7-.23-.5.089-.741.06-.459-.2-.7-.229-.491.057-.736.034-.488.064-.732.044-.477-.187-.726-.2-.483.062-.72.05-.463-.381-.7-.39-.488.257-.726.252-.478.123-.715.122-.477-.067-.714-.064-.477.009-.713.016-.476.026-.713.037-.5-.215-.734-.2-.5-.134-.735-.114-.441.469-.678.494-.485-.027-.722,0-.513-.2-.749-.165-.422.42-.657.458-.481.029-.714.072-.5-.07-.736-.022-.484.038-.716.09-.473.1-.7.153-.482.066-.711.128-.376.436-.6.5-.445.173-.671.245-.511-.028-.735.048-.528-.049-.75.033-.328.49-.548.576-.441.178-.66.268-.449.159-.666.254-.585-.128-.8-.028-.378.325-.589.43-.325.416-.533.525-.526.032-.732.146-.259.51-.462.628-.411.237-.611.361-.625-.1-.823.033-.351.349-.547.482-.363.323-.555.46-.253.465-.442.607-.637-.041-.822.1-.251.457-.432.606-.2.507-.373.659-.427.234-.6.39-.571.094-.74.254-.2.491-.362.655-.265.414-.424.58-.329.35-.482.519-.554.16-.7.333c-.165.191-.3.392-.444.566-.16.2-.026.6-.158.776-.164.215-.32.389-.44.557C69.939,17.44,69.555,17.75,69.474,17.877Z" fill="rgb(61,187,159)"/><path d="M69.2,90.645c-.393-.071-.389.053-.788.063s-.407-.266-.808-.256a2.1,2.1,0,0,0-.828.1c.125.194.248.53.391.741.131.192.164.469.31.675.136.191.249.413.4.614s.5.22.656.417.324.353.48.547.176.476.335.667.283.392.445.58.221.45.386.635.322.365.49.547.412.28.583.459.536.153.71.329.189.495.366.668.417.265.6.435.464.21.646.377.191.508.375.672.265.435.452.6.589.051.777.208.421.244.611.4.263.442.455.594.213.518.407.668.395.288.592.435.518.118.717.262.364.329.565.471.334.37.536.507.5.13.7.265.369.325.576.458.486.144.7.274.378.31.588.437.482.144.694.269.242.556.456.678.451.212.669.333.589-.071.8.043.267.512.474.626.531.026.738.138.374.314.581.426.391.292.6.405.547,0,.755.107.27.512.477.622.447.174.654.283.474.129.683.237.314.425.521.532.365-.1.571,0c-.089-.3.15-.534.072-.851-.069-.285-.4-.506-.477-.792s-.22-.472-.3-.756c-.215-.113-.335-.221-.555-.337s-.269-.54-.489-.657-.59.06-.811-.058-.359-.377-.58-.5-.491-.123-.71-.242-.3-.487-.519-.608-.54-.04-.76-.161-.4-.325-.622-.449-.447-.2-.656-.321-.411-.264-.619-.387-.415-.254-.621-.379-.331-.389-.535-.517-.625.073-.827-.057-.194-.6-.4-.735-.5-.129-.7-.266-.345-.36-.542-.5-.347-.353-.542-.5-.579-.041-.772-.186-.489-.171-.679-.319-.132-.622-.319-.773-.471-.195-.656-.348-.28-.423-.462-.579-.529-.135-.709-.293-.359-.331-.536-.493-.288-.407-.462-.572-.3-.395-.468-.562-.348-.344-.518-.514-.572-.128-.738-.3-.334-.362-.5-.537-.217-.465-.376-.642-.109-.553-.265-.733-.457-.254-.61-.437-.359-.337-.507-.52-.428-.289-.572-.474-.346-.356-.485-.543S69.331,90.833,69.2,90.645Z" fill="rgb(61,187,159)"/><path d="M64.9,90.676a2.321,2.321,0,0,0-.767-.042c-.379.01-.338.173-.7.286-.289.091-.223.061-.174.449.021.17.325.335.361.568.028.185.156.332.2.553.12.2-.069.552.061.76s.483.252.616.457.191.438.327.641.049.537.187.735.444.265.585.462.131.489.274.683.522.2.668.392.229.42.378.61.241.413.393.6.177.469.331.655.48.219.636.4.34.333.5.516.105.541.266.721.377.3.54.482.363.315.528.492.232.438.4.614.3.372.473.546.527.151.7.323.365.309.538.479.228.45.4.618.319.354.494.519.259.421.436.584.347.327.526.489.429.238.609.4.542.106.724.264.22.476.4.633.429.233.615.388.472.179.659.333.215.494.4.647.278.416.466.566.588.026.778.174.428.228.62.375.272.433.466.579.219.511.415.656.392.278.587.42.516.111.713.253.36.325.558.465.335.372.537.512.491.131.685.265.356.326.551.459.473.151.669.282.359.318.555.449.465.157.661.285.2.561.4.688.42.226.617.352.585-.038.782.086.234.526.434.651.526.054.726.177.353.331.552.452.368.306.568.425.537.017.737.135.244.52.446.637.435.189.636.3.462.141.665.254.337.449.536.559c.246.026.585-.38.834-.356s.462.409.713.43.513-.227.763-.21.5-.073.751-.059.489.086.74.1.7.136.958.141c-.055-.415-.546-.008-.988-.3-.2-.133-.341-.432-.6-.629-.2-.106-.474-.106-.683-.216s-.276-.471-.485-.583-.517-.025-.725-.139-.364-.307-.572-.423-.429-.193-.636-.31-.4-.253-.6-.373-.4-.24-.61-.361-.324-.376-.53-.5-.609.1-.814-.026-.2-.584-.4-.709-.489-.1-.691-.222-.346-.333-.547-.46-.352-.323-.554-.452-.567.008-.768-.122-.486-.125-.687-.256-.17-.6-.369-.732-.476-.141-.675-.275-.315-.386-.515-.522-.532-.067-.731-.2-.394-.281-.595-.42-.337-.363-.533-.5-.347-.347-.541-.486-.391-.284-.584-.425-.579-.031-.771-.173-.384-.3-.575-.441-.291-.417-.48-.563-.206-.521-.394-.669-.491-.156-.677-.305-.415-.254-.6-.4-.473-.186-.657-.339-.409-.265-.591-.419-.346-.341-.526-.5-.365-.319-.544-.476-.2-.495-.382-.654-.47-.206-.647-.368-.186-.514-.361-.677-.577-.1-.75-.261-.255-.436-.426-.6-.2-.483-.371-.652-.518-.167-.685-.337-.432-.257-.6-.429-.242-.438-.4-.612-.23-.445-.39-.62-.455-.239-.613-.416-.139-.52-.3-.7-.283-.389-.435-.569-.578-.145-.728-.327-.286-.4-.435-.583-.277-.4-.423-.588-.278-.4-.42-.587-.248-.419-.387-.608-.152-.484-.289-.674-.433-.285-.566-.477-.129-.5-.26-.7-.306-.374-.432-.569-.3-.379-.427-.576-.39-.328-.508-.526S65.01,90.875,64.9,90.676Z" fill="rgb(61,187,159)"/><path d="M76.335,15.583c-.243,0-.484.157-.725.16s-.487-.192-.728-.187-.48.185-.721.192-.485-.03-.725-.021-.489-.091-.73-.079-.486,0-.726.01-.471.225-.71.242-.5-.165-.738-.146-.455.358-.694.379-.488-.042-.728-.019-.506-.2-.745-.172-.477.1-.715.127-.463.2-.7.226-.459.207-.7.24-.483.025-.72.06-.495-.048-.733-.011-.5-.052-.734-.012-.456.2-.692.242-.438.284-.674.328-.534-.226-.769-.18-.486.034-.721.082-.43.3-.664.353-.436.26-.67.312-.509-.07-.743-.016-.417.324-.65.381-.525-.123-.757-.064-.5,0-.729.062-.4.389-.627.451-.456.154-.686.218-.487.043-.717.109-.492.031-.721.1-.4.341-.628.411-.465.122-.693.193-.5.037-.725.11-.519-.029-.747.046-.387.371-.614.447-.406.3-.633.383-.5.041-.722.121-.52-.016-.745.065-.462.145-.687.228-.446.19-.669.274-.353.43-.576.515-.468.126-.69.213-.521-.007-.742.081-.441.2-.662.284-.469.126-.689.216-.339.438-.558.529-.586-.153-.8-.061-.333.444-.55.537-.4.286-.616.379-.579-.13-.795-.036-.332.443-.547.537-.477.121-.693.216-.548-.044-.764.05-.357.388-.571.482-.513.027-.727.119-.324.467-.537.558-.474.122-.688.211-.472.126-.686.212-.506.034-.72.116c-.231.089-.372.386-.585.461-.235.083-.448.2-.661.265s-.527-.131-.755-.069-.432.2-.662.251-.445.16-.676.209-.485-.034-.717.011-.467.047-.7.087-.42.345-.653.382-.461.111-.7.145-.493-.093-.727-.06-.476.031-.71.063-.489-.063-.723-.03-.473.06-.706.094-.456.178-.688.214-.423.35-.655.389-.5-.131-.733-.087-.443.19-.671.239-.418.264-.643.32-.52-.12-.744-.054-.5,0-.719.07-.323.481-.537.569c-.234.095-.42.265-.639.364s-.523.047-.736.156-.576-.012-.784.106-.434.265-.636.393-.3.452-.5.591-.436.248-.625.4-.462.229-.643.388-.256.46-.431.628-.4.3-.569.473-.235.454-.4.635-.374.325-.533.51-.22.454-.376.641-.588.146-.744.334-.281.4-.44.584-.054.6-.217.783-.561.149-.73.33-.165.513-.33.683-.409.279-.578.446-.4.287-.569.45-.18.524-.358.683-.576.074-.759.227-.334.347-.522.5-.315.377-.509.52-.519.089-.717.225-.152.636-.356.766-.6-.056-.805.068-.278.474-.492.593-.371.324-.587.438-.456.168-.676.277-.582-.1-.8,0-.292.514-.486.628c-.224.13-.509.124-.689.257-.21.156-.309.405-.466.561-.187.186-.565.2-.689.375-.151.219-.072.554-.149.754a3.079,3.079,0,0,0-.255.682c-.038.428-.112.44.1.726a3.837,3.837,0,0,0,.483.537c.247.257.242.261.489.517s.134.369.383.628.536-.015.786.245-.037.535.213.794.376.14.627.4.18.33.431.592.19.321.442.583.873.055.747.4-.41.276-.781.34-.441-.337-.813-.273-.346.207-.717.271-.4-.079-.771-.015-.332.3-.705.37-.376.056-.751.121S.337,52.38,0,52.556c.073.225.061.521.148.749s.175.449.272.674.482.3.587.523.2.426.312.642.086.492.205.7-.009.561.116.77.405.315.535.521.311.368.446.57.4.307.535.506.321.353.465.549.253.4.4.6.288.378.439.568.113.521.266.709.428.267.584.452.118.53.276.713.559.146.72.328.216.448.379.627.176.491.341.668.509.179.677.354.424.254.594.427.244.43.416.6.244.434.417.6.465.208.64.376.181.506.357.672.322.359.5.523.588.069.767.232.334.344.514.506.333.342.513.5.342.333.524.491.326.353.509.509.26.434.444.588.488.162.673.315.258.441.445.592.4.265.591.415.407.258.6.408.475.17.664.318.177.555.368.7.546.075.738.221.334.353.527.5.4.268.593.411.331.361.525.5.511.113.707.254.313.387.51.526.479.153.677.291.308.4.506.535.456.185.655.321.456.182.656.317.315.392.516.526.452.188.653.32.206.564.409.7.552.032.755.163.475.149.678.278.37.314.575.442.408.254.613.381.414.244.619.369.286.457.492.581.327.393.534.516.632-.123.84,0,.375.311.584.432.286.468.5.588.593-.069.8.05.394.281.605.4.343.375.554.491.394.287.606.4.419.241.632.355.4.275.614.387.576-.059.79.053.446.186.661.3.346.383.562.491.334.413.55.521.586-.1.8.01.435.209.652.314.423.235.641.338.285.53.5.632.495.085.714.186.533,0,.753.095.352.4.572.5.57-.1.792,0,.44.2.662.292.284.567.507.661.485.1.708.187.471.128.7.218.533-.032.757.057.3.566.523.654.524-.014.75.072.544-.076.77.008.416.266.643.348.348.463.575.543.528-.042.756.036.49.06.718.136.458.153.687.228.366.441.595.514.469.125.7.2.565-.2.8-.13.455.161.687.228.384.414.616.478.48.079.712.141.486.061.719.122.446.214.681.272.449.206.684.262.456.186.691.239.531-.153.766-.1.458.174.694.222.449.231.685.276.54-.261.777-.218.459.174.7.214.441.3.678.339.486.029.723.062.52-.238.759-.207.448.314.687.341.467.191.706.214.5-.159.739-.139.463.291.7.307.5-.242.74-.23.476.153.715.161.48.157.72.161.481-.034.719-.034.487-.023.727-.028.477-.278.717-.286.482-.012.721-.025.493.132.732.114.459-.3.7-.325.511.258.75.231.449-.306.687-.337.483-.017.72-.053.482-.032.719-.072.443-.248.678-.293.52.146.755.1.447-.207.681-.261.474-.085.707-.144.459-.144.69-.207.539.13.769.063.445-.2.674-.276.481-.086.709-.162.44-.21.666-.29.4-.31.625-.4.446-.179.669-.267.546.061.768-.031.347-.417.567-.513.39-.3.608-.4.6.146.817.042.429-.226.644-.333.391-.3.6-.411.405-.268.617-.382.257-.528.466-.646.572.033.78-.088.473-.149.679-.273.4-.268.607-.395.277-.463.479-.593.5-.121.7-.253.4-.265.6-.4.208-.543.4-.682.469-.166.664-.307.389-.28.582-.423.43-.228.621-.373.369-.308.558-.456.351-.331.539-.481.543-.092.729-.244.2-.511.388-.664.351-.329.534-.484.578-.066.759-.223.086-.633.266-.792.461-.2.639-.364.246-.444.423-.606.512-.153.687-.316.219-.47.394-.635.636-.031.81-.2.264-.423.436-.591.131-.558.3-.726.651-.028.822-.2.021-.663.191-.833.586-.1.755-.27.1-.575.272-.746.366-.317.533-.49.329-.353.5-.526.585-.107.751-.281.247-.432.413-.606.4-.282.569-.456.4-.29.561-.464.105-.565.27-.739.3-.385.46-.559.379-.306.543-.48.411-.275.576-.449.309-.371.474-.544.409-.275.574-.448.288-.391.454-.562.292-.389.458-.559.485-.2.652-.367.236-.443.4-.611.45-.227.619-.393.3-.382.469-.545.247-.438.42-.6.21-.485.385-.643.463-.207.641-.363.388-.288.569-.44.343-.348.528-.5.4-.278.587-.42.315-.393.507-.528.519-.1.716-.224.31-.422.512-.541.39-.312.6-.42.449-.21.663-.3.554.069.774-.01.441-.187.667-.248.462-.127.693-.166c0-.238-.082-.475-.082-.712s.124-.476.124-.713-.244-.476-.244-.713.232-.476.232-.713-.195-.476-.195-.714-.008-.475-.008-.713.33-.476.33-.713-.127-.476-.127-.714-.267-.476-.267-.713.3-.476.3-.714-.119-.475-.119-.713.033-.475.033-.713.08-.475.08-.713.1-.475.1-.713-.052-.475-.052-.712-.036-.475-.036-.713-.152-.474-.152-.711.2-.475.2-.712.063-.474.063-.711-.124-.475-.124-.713.126-.474.126-.711-.413-.474-.413-.71.086-.473.086-.709-.073-.473-.073-.708.025-.349.025-.584c-.218-.1-.29-.249-.5-.364s-.411-.259-.617-.387-.449-.2-.648-.339-.281-.433-.473-.581-.257-.437-.443-.593-.585-.055-.765-.218-.121-.567-.3-.736-.394-.274-.563-.447-.615-.075-.78-.252-.13-.533-.291-.713-.24-.424-.4-.608-.339-.337-.495-.522-.443-.255-.6-.442-.085-.548-.237-.737-.364-.321-.515-.511-.253-.41-.4-.6-.372-.317-.521-.508-.529-.191-.676-.38.055-.648-.093-.837-.457-.248-.605-.436-.435-.265-.584-.453-.273-.4-.424-.586-.249-.417-.4-.6-.063-.571-.216-.758-.408-.289-.564-.475-.236-.433-.393-.617-.494-.211-.654-.393-.184-.481-.345-.662-.443-.249-.607-.428-.307-.372-.473-.548-.257-.423-.425-.6-.555-.13-.726-.3-.33-.347-.5-.516-.189-.5-.365-.664-.344-.34-.523-.5-.371-.31-.553-.47-.327-.357-.511-.514-.576-.055-.763-.208-.2-.519-.387-.668-.282-.425-.474-.571-.5-.137-.694-.279-.517-.1-.715-.237-.152-.631-.353-.766-.453-.191-.657-.321-.6.05-.8-.076-.291-.446-.5-.568-.4-.27-.612-.387-.548.007-.762-.106-.292-.48-.509-.589-.418-.244-.637-.349-.469-.133-.691-.233-.54.038-.763-.057-.279-.582-.5-.674-.591.188-.818.1-.445-.175-.674-.257-.349-.458-.579-.537-.51,0-.742-.07-.383-.4-.616-.468-.556.182-.791.117-.381-.427-.615-.488-.5,0-.733-.054-.5.021-.734-.032-.409-.388-.647-.437-.506.065-.745.02-.514.143-.754.1-.485,0-.726-.038-.466-.118-.708-.153-.448-.278-.69-.309-.509.2-.752.168-.469-.1-.711-.121-.438-.487-.681-.508-.515.388-.758.37-.471-.188-.716-.2-.483-.035-.728-.047-.474-.258-.718-.266-.492.179-.737.173-.484-.071-.729-.073S76.583,15.583,76.335,15.583Z" fill="rgb(58,143,103)"/><path d="M175.336.249c-.243.005-.485-.029-.724-.02s-.482.032-.721.046-.475.17-.715.189-.5-.2-.744-.175-.467.214-.706.242-.521-.233-.759-.2-.454.267-.692.305-.52-.145-.757-.1-.414.418-.65.467-.454.18-.688.234-.562-.26-.8-.2-.373.485-.6.55-.47.106-.7.177-.557-.152-.785-.076-.405.318-.63.4-.4.306-.624.393-.46.144-.682.236-.418.241-.638.339-.556-.056-.773.047-.291.5-.506.608-.563-.04-.775.074-.288.472-.5.591-.446.185-.652.309-.411.245-.614.374-.592-.024-.792.11-.172.6-.368.739-.515.107-.708.25-.277.43-.467.577-.541.092-.728.244-.421.251-.6.406S155,7.84,154.816,8s-.454.216-.631.379-.368.316-.541.482-.362.324-.532.494-.132.545-.3.718-.521.171-.685.347-.389.3-.55.48,0,.644-.153.826-.459.239-.613.424-.386.307-.537.494-.21.448-.358.638-.211.443-.356.635-.394.3-.537.5-.293.382-.433.577-.439.281-.577.478-.021.57-.156.769-.453.277-.585.477-.077.525-.207.727-.254.409-.382.612-.429.3-.555.5-.118.492-.242.7-.417.313-.539.52-.093.5-.214.712-.28.395-.4.6-.335.365-.452.575-.26.409-.375.619-.06.519-.175.731-.405.332-.518.545.055.576-.057.79-.3.388-.413.6-.442.316-.553.53-.181.452-.29.667-.1.494-.2.709-.088.5-.2.713-.255.413-.363.629-.325.379-.433.594-.332.375-.439.591-.108.487-.216.7-.035.525-.143.739-.5.289-.612.5-.272.405-.381.619-.033.526-.142.739-.077.506-.188.718-.384.346-.5.558-.032.532-.146.742-.443.311-.558.52-.338.365-.455.573,0,.557-.116.764-.218.434-.34.638-.326.369-.451.571-.346.353-.474.552-.086.523-.218.719-.289.39-.426.583-.374.326-.516.515-.44.266-.587.45-.128.519-.283.7-.207.472-.369.643-.43.265-.6.428-.48.19-.659.343-.38.286-.569.427-.372.3-.571.424-.275.491-.485.6-.464.174-.684.266-.516-.011-.744.059-.451.143-.686.19a6.923,6.923,0,0,1-.711.044c-.234.023-.464.31-.706.31s-.492-.377-.738-.394-.529.233-.773.2-.526.021-.767-.032-.4-.456-.64-.528-.564.107-.8.018-.4-.264-.623-.368c0,.236-.238.433-.238.669s.212.473.212.709-.181.473-.181.71.3.473.3.71-.074.473-.074.71-.066.474-.066.711-.157.474-.157.711.229.474.229.711.042.474.042.711-.276.474-.276.711.078.474.078.711.055.475.055.712-.131.474-.131.711-.04.475-.04.712.271.475.271.713.038.475.038.713-.163.476-.163.713-.035.476-.035.714-.13.476-.13.714-.006.476-.006.714.11.476.11.714.279.477.279.715-.215.476-.215.714.1.476.1.714.116.348.116.586c.186-.032.236.127.422.11s.369.126.557.126c.243,0,.487-.34.722-.331s.494-.057.728-.037.468.224.7.255.429.342.66.385.462.083.69.139.516-.085.741-.014.436.2.656.287.393.28.608.38.5.053.71.168.377.295.577.424.476.152.667.294.337.344.519.5.444.225.615.392.076.584.238.761.337.321.489.507.57.157.713.35.016.569.151.769.455.268.582.473.163.456.282.666.169.446.282.659.452.3.559.519-.085.567.017.785.247.406.344.627.286.392.379.614-.033.525.056.748.586.276.671.5-.173.57-.09.794.414.351.494.576.258.411.337.637.1.468.174.694-.182.56-.107.787.462.346.537.574-.008.5.065.729.265.413.338.641-.129.539-.057.767.357.385.429.614.054.481.126.71.183.441.255.67.12.461.192.69.136.452.208.679-.008.5.064.727.522.33.595.557-.232.573-.159.8.313.4.387.624.055.483.13.71.07.479.147.706.448.351.525.578.307.4.385.624-.227.585-.147.812.3.4.378.627.026.5.109.726.393.361.477.585.16.448.245.672.072.483.159.707.1.475.186.7.176.446.266.669.475.323.567.546.177.445.271.667.043.5.139.721-.071.556.027.777.362.367.461.588.256.412.357.632.345.373.449.593.261.408.369.623.188.444.3.655.23.423.35.631.042.537.168.743.392.325.523.526.059.546.195.744.543.208.686.4.177.469.324.659.142.509.295.695.5.212.659.394.414.273.577.45.234.439.4.612.243.44.415.608.469.208.645.371.2.505.377.664.342.35.527.5.593.036.782.186.358.319.551.464.366.314.563.454.379.3.579.433.371.314.574.444.323.4.529.524.512.088.721.209.334.393.545.51.45.189.664.3.455.175.671.282.5.068.721.17.3.5.522.6.552-.054.774.04.415.26.639.35.458.155.684.241.421.258.647.339.525-.037.753.041.416.278.645.351.5,0,.736.069.42.282.651.347.493.028.726.09.492.019.725.077.432.261.666.316.493.018.729.07.4.453.639.5.531-.172.767-.127.5-.04.738,0,.466.149.7.187.48.075.717.11.481.06.718.091.452.3.69.331.466.224.7.25.527-.376.763-.354.476.123.712.142.465.3.7.315.506-.321.74-.308.482.077.716.087.482.18.715.187c.25.008.49.076.721.08.252,0,.493.02.721.02.255,0,.5.054.722.052.263,0,.5-.328.717-.334.277-.008.513-.056.713-.065.458-.021.62.509.691.162s-.062-.3-.411-.593c-.153-.13-.561-.027-.761-.21-.162-.147-.341-.313-.525-.493-.161-.158-.312-.352-.486-.534-.159-.166-.058-.583-.223-.768s-.408-.266-.565-.456-.476-.228-.626-.422-.11-.511-.251-.709-.536-.217-.668-.421-.257-.416-.38-.626.121-.616.008-.831-.3-.377-.405-.6-.249-.412-.338-.637-.388-.375-.464-.605.256-.576.194-.811-.309-.413-.356-.651-.346-.439-.376-.68.052-.5.038-.743.292-.5.282-.731-.233-.474-.239-.708-.113-.481-.115-.715,0-.483,0-.717.313-.474.32-.708-.007-.478,0-.712-.329-.5-.313-.735.059-.485.08-.72.335-.452.361-.686,0-.482.03-.716,0-.484.031-.717.166-.458.2-.691.169-.455.209-.689.157-.453.2-.686-.175-.514-.131-.747.161-.45.205-.683.222-.438.266-.672-.264-.527-.222-.762.174-.445.215-.681.3-.425.342-.662.032-.472.068-.71-.234-.509-.2-.748.318-.432.348-.672.2-.453.222-.694-.153-.492-.13-.734.3-.448.317-.689-.235-.493-.218-.734.16-.461.174-.7.167-.466.178-.708-.021-.477-.013-.72-.007-.473,0-.714-.258-.481-.256-.725.012-.475.012-.72.158-.483.15-.721-.285-.467-.3-.7.272-.5.249-.74-.3-.449-.332-.685-.017-.479-.056-.714-.04-.478-.086-.711-.26-.43-.315-.662.122-.522.059-.752-.234-.43-.3-.658-.121-.462-.2-.687-.186-.44-.272-.662.071-.548-.022-.767-.257-.415-.358-.631-.152-.464-.26-.677-.275-.4-.389-.61-.371-.341-.493-.546-.254-.4-.382-.605-.044-.547-.179-.744-.477-.253-.617-.446-.378-.312-.523-.5.007-.617-.144-.8-.322-.363-.477-.544-.386-.3-.547-.48-.36-.321-.525-.494-.574-.1-.744-.273-.122-.556-.295-.721-.275-.41-.451-.57-.371-.308-.552-.464-.522-.126-.7-.278-.263-.435-.449-.584-.375-.3-.564-.445-.578-.023-.77-.165-.305-.389-.5-.527-.389-.275-.586-.409-.355-.328-.554-.459-.412-.243-.613-.37-.428-.216-.632-.34-.272-.477-.478-.6-.547-.011-.754-.128-.429-.211-.637-.326-.267-.515-.477-.626-.618.15-.83.041-.359-.353-.573-.459-.5-.064-.718-.167-.334-.416-.551-.517-.517-.023-.735-.121-.273-.575-.491-.67-.493-.078-.712-.17-.562.1-.782.011-.284-.586-.5-.672-.613.249-.834.164-.329-.493-.55-.575-.564.145-.786.067-.438-.2-.66-.274-.456-.145-.677-.218-.349-.48-.571-.551-.5-.03-.718-.1-.436-.235-.657-.3c-.237-.07-.444-.22-.665-.283-.239-.067-.552.169-.77.11-.243-.066-.485-.078-.7-.133-.252-.065-.467-.185-.678-.236-.267-.065-.473-.225-.667-.269-.443-.1-.707.238-.69-.112.245,0,.486.107.728.1s.488-.072.729-.078.486-.075.728-.084.5.186.739.174.48-.172.721-.188.5.121.739.1.482-.108.723-.13.471-.194.71-.22.458-.266.7-.3.5.092.74.059.485-.034.724-.071.471-.126.708-.166.483-.056.719-.1.451-.218.686-.266.52.11.755.058.428-.294.662-.351.449-.192.681-.253.468-.112.7-.177.544.135.774.065.453-.177.682-.252.456-.164.683-.243.429-.238.654-.321.5-.055.721-.143.356-.405.577-.5.536.025.756-.072.359-.376.576-.478.431-.213.646-.319.581.076.794-.035.369-.339.579-.455.288-.467.5-.588.57.016.775-.109.347-.355.549-.485.422-.236.621-.37.445-.208.64-.347.454-.2.646-.345.356-.334.546-.481.358-.329.543-.481.275-.423.458-.579.5-.165.676-.325.4-.281.579-.446.268-.423.44-.591.435-.253.6-.425.039-.632.2-.808.389-.292.55-.471.265-.406.423-.588.3-.371.456-.556.407-.287.557-.475.319-.361.465-.552.233-.426.376-.62.438-.278.577-.474.43-.291.566-.49-.011-.589.121-.79.546-.223.675-.426.189-.454.315-.659-.086-.613.036-.82.472-.282.591-.491.326-.371.442-.582.2-.443.309-.656.068-.508.178-.722.469-.3.576-.519.14-.473.244-.69.261-.414.362-.632.116-.481.215-.7-.075-.562.021-.783.6-.268.694-.49,0-.527.089-.749.018-.514.108-.737.21-.436.3-.66.238-.426.323-.65.464-.343.548-.568.046-.5.128-.725.258-.422.339-.647-.063-.536.017-.761.328-.4.406-.624,0-.51.081-.736.179-.449.256-.675.252-.424.328-.65-.138-.555-.062-.78.164-.454.239-.679.37-.39.446-.617.168-.457.244-.683.139-.466.217-.691.209-.44.288-.663-.148-.567-.067-.789.428-.357.511-.577.322-.392.409-.61.005-.519.095-.734-.01-.537.086-.749.6-.253.7-.461.138-.464.251-.665-.061-.608.065-.8c.139-.21.472-.283.613-.475s.324-.375.475-.56.118-.561.278-.737.553-.164.724-.329.381-.312.562-.465.331-.374.522-.513.271-.5.471-.628c.216-.135.642.116.852.008.227-.117.283-.577.5-.666.237-.1.485-.179.706-.249.248-.078.569.164.794.116.26-.056.473-.257.7-.282.277-.032.528.222.733.221.452,0,.417.044.63-.245s.05-.278-.313-.576c-.153-.126-.426-.178-.652-.341-.175-.125-.448-.149-.669-.291-.186-.12-.241-.5-.462-.625-.195-.114-.489-.091-.712-.211-.2-.107-.52-.008-.745-.118-.206-.1-.452-.128-.678-.231s-.406-.23-.634-.326-.353-.376-.583-.465-.528.074-.76-.009-.426-.2-.66-.275-.316-.569-.55-.64-.576.274-.812.208-.414-.276-.651-.338-.457-.124-.694-.181-.411-.34-.649-.392-.506.09-.745.042-.455-.152-.694-.2-.52.225-.76.185-.426-.313-.665-.349-.5.17-.74.138-.418-.462-.658-.491-.5.151-.737.125-.463-.164-.7-.187-.483.04-.725.021-.489.158-.732.141-.463-.151-.7-.165-.466-.215-.707-.226-.48.039-.722.032-.479-.069-.722-.074-.48.3-.721.3S177.034,0,176.791,0s-.479.166-.721.168S175.583.244,175.336.249Z" fill="rgb(61,187,159)"/><path d="M48.482,36.853a6.364,6.364,0,0,1-.15.721,6.35,6.35,0,0,1-.077.722c-.055.242.191.576.109.808s-.334.412-.441.634a6.8,6.8,0,0,1-.4.632c-.13.209-.262.419-.413.616s-.21.48-.38.66-.515.181-.7.344-.275.445-.476.591-.563.03-.776.157-.326.414-.55.522-.528-.009-.76.08-.352.48-.591.549-.653.118-.9.168c.206-.127.683-.165.877-.3s.156-.586.339-.74.373-.29.543-.458.565-.133.721-.315.179-.482.32-.676.149-.472.274-.677.266-.389.373-.6.144-.448.231-.672.429-.36.5-.592-.194-.533-.149-.77.367-.427.389-.668-.242-.485-.242-.727.052-.472.03-.709-.049-.468-.093-.7.231-.554.165-.785-.523-.333-.61-.557.013-.523-.094-.738-.376-.335-.5-.541-.04-.548-.182-.743-.242-.436-.4-.618-.465-.232-.637-.4-.256-.438-.441-.593-.368-.326-.564-.467-.327-.066-.533-.193c.245.049.356-.078.592-.01s.389.394.619.482.411.258.632.365.645-.153.855-.028.322.43.521.574.328.377.513.538.443.249.612.428.416.306.566.5.188.479.318.689a7.022,7.022,0,0,1,.346.653c.107.223.016.514.1.748s.443.377.5.619-.121.518-.093.765A6.483,6.483,0,0,1,48.482,36.853Zm-6.4,6.976c.206.126.36.421.554.561s.405.247.588.4.588.076.758.244.224.465.381.646.276.4.417.592.286.388.41.593.368.355.475.57-.014.535.073.759.319.4.386.63-.168.526-.123.763.272.435.295.676-.2.476-.2.719.322.491.3.728.023.5-.021.738-.472.381-.538.612.213.576.126.8-.214.446-.32.661-.494.274-.619.48-.113.493-.255.687-.178.479-.336.661-.353.34-.525.509-.317.381-.5.536-.547.083-.743.224-.14.271-.346.4c.244-.05.319.065.555,0s.382-.408.611-.5.472-.124.693-.231.435-.216.646-.342.611.019.81-.125.146-.614.331-.776.506-.177.675-.356.191-.48.342-.675.506-.249.636-.458a7.477,7.477,0,0,0,.428-.628c.107-.222.03-.532.112-.766a6.967,6.967,0,0,0,.345-.678,6.682,6.682,0,0,0,.211-1.5c0-.25-.3-.485-.331-.728s.186-.537.131-.776a7.233,7.233,0,0,0-.132-.756c-.083-.233-.575-.3-.682-.521s-.052-.522-.182-.733-.191-.474-.342-.67-.4-.31-.573-.49-.414-.27-.6-.433-.292-.415-.493-.561-.4-.289-.614-.417-.344-.42-.568-.528-.574.074-.806-.015-.395-.377-.635-.446S42.327,43.878,42.083,43.829ZM56.393,29.7c.206.126.36.421.554.561s.4.247.588.4.588.076.758.244.224.465.381.646.276.4.417.592.286.388.41.593.368.355.475.57-.014.535.073.759.319.4.386.63-.168.526-.123.763.272.435.3.676-.2.476-.2.719.322.491.3.728.023.5-.021.738-.472.381-.538.612.213.576.126.8-.214.446-.32.661-.494.274-.619.48-.113.493-.255.687-.178.479-.336.661-.353.34-.525.509-.317.381-.5.536-.547.083-.743.224-.14.271-.346.4c.244-.05.319.065.555,0s.382-.408.611-.5.472-.124.693-.231.435-.216.646-.342.611.019.81-.125.146-.614.331-.776.506-.177.675-.356.191-.48.342-.675.506-.249.636-.458a7.477,7.477,0,0,0,.428-.628c.107-.222.03-.532.112-.766a6.967,6.967,0,0,0,.345-.678,6.682,6.682,0,0,0,.211-1.5c0-.25-.3-.485-.331-.728s.186-.537.131-.776a7.233,7.233,0,0,0-.132-.756c-.083-.233-.575-.3-.682-.521s-.052-.522-.182-.733-.191-.474-.342-.67-.4-.31-.573-.49-.414-.27-.6-.433-.292-.415-.493-.561-.4-.289-.614-.417-.344-.42-.568-.528-.574.074-.806-.015-.4-.377-.635-.446S56.637,29.748,56.393,29.7Zm0,14.13c.206.126.36.421.554.561s.4.247.588.4.588.076.758.244.224.465.381.646.276.4.417.592.286.388.41.593.368.355.475.57-.014.535.073.759.319.4.386.63-.168.526-.123.763.272.435.3.676-.2.476-.2.719.322.491.3.728.023.5-.021.738-.472.381-.538.612.213.576.126.8-.214.446-.32.661-.494.274-.619.48-.113.493-.255.687-.178.479-.336.661-.353.34-.525.509-.317.381-.5.536-.547.083-.743.224-.14.271-.346.4c.244-.05.319.065.555,0s.382-.408.611-.5.472-.124.693-.231.435-.216.646-.342.611.019.81-.125.146-.614.331-.776.506-.177.675-.356.191-.48.342-.675.506-.249.636-.458a7.477,7.477,0,0,0,.428-.628c.107-.222.03-.532.112-.766a6.967,6.967,0,0,0,.345-.678,6.682,6.682,0,0,0,.211-1.5c0-.25-.3-.485-.331-.728s.186-.537.131-.776a7.233,7.233,0,0,0-.132-.756c-.083-.233-.575-.3-.682-.521s-.052-.522-.182-.733-.191-.474-.342-.67-.4-.31-.573-.49-.414-.27-.6-.433-.292-.415-.493-.561-.4-.289-.614-.417-.344-.42-.568-.528-.574.074-.806-.015-.4-.377-.635-.446S56.637,43.878,56.393,43.829Zm-7.92-20.61c.206.126.36.421.554.561s.405.247.588.4.588.076.758.244.224.465.381.646.276.4.417.592.286.388.41.593.368.355.475.57-.014.535.073.759.319.4.386.63-.168.526-.123.763.272.435.295.676-.2.476-.2.719.322.491.3.728.023.5-.021.738-.472.381-.538.612.213.576.126.8-.214.446-.32.661-.494.274-.619.48-.113.493-.255.687-.178.479-.336.661-.353.34-.525.509-.317.381-.5.536-.547.083-.743.224-.14.271-.346.4c.244-.05.319.065.555,0s.382-.408.611-.5.472-.124.693-.231.435-.216.646-.342.611.019.81-.125.146-.614.331-.776.506-.177.675-.356.191-.48.342-.675.506-.249.636-.458a7.477,7.477,0,0,0,.428-.628c.107-.222.03-.532.112-.766a6.967,6.967,0,0,0,.345-.678,6.682,6.682,0,0,0,.211-1.5c0-.25-.3-.485-.331-.728s.186-.537.131-.776a7.233,7.233,0,0,0-.132-.756c-.083-.233-.575-.3-.682-.521s-.052-.522-.182-.733-.191-.474-.342-.67-.4-.31-.573-.49-.414-.27-.6-.433-.292-.415-.493-.561-.4-.289-.614-.417-.344-.42-.568-.528-.574.074-.806-.015-.395-.377-.635-.446S48.717,23.268,48.473,23.219Zm0,28.35c.206.126.36.421.554.561s.405.247.588.4.588.076.758.244.224.465.381.646.276.4.417.592.286.388.41.593.368.355.475.57-.014.535.073.759.319.4.386.63-.168.526-.123.763.272.435.295.676-.2.476-.2.719.322.491.3.728.023.5-.021.738-.472.381-.538.612.213.576.126.8-.214.446-.32.661-.494.274-.619.48-.113.493-.255.687-.178.479-.336.661-.353.34-.525.509-.317.381-.5.536-.547.083-.743.224-.14.271-.346.4c.244-.05.319.065.555,0s.382-.408.611-.5.472-.124.693-.231.435-.216.646-.342.611.019.81-.125.146-.614.331-.776.506-.177.675-.356.191-.48.342-.675.506-.249.636-.458a7.477,7.477,0,0,0,.428-.628c.107-.222.03-.532.112-.766a6.967,6.967,0,0,0,.345-.678,6.682,6.682,0,0,0,.211-1.5c0-.25-.3-.485-.331-.728s.186-.537.131-.776a7.233,7.233,0,0,0-.132-.756c-.083-.233-.575-.3-.682-.521s-.052-.522-.182-.733-.191-.474-.342-.67-.4-.31-.573-.49-.414-.27-.6-.433-.292-.415-.493-.561-.4-.289-.614-.417-.344-.42-.568-.528-.574.074-.806-.015-.395-.377-.635-.446S48.717,51.618,48.473,51.569Zm0-14.22c.206.126.36.421.554.561s.405.247.588.4.588.076.758.244.224.465.381.646.276.4.417.592.286.388.41.593.368.355.475.57-.014.535.073.759.319.4.386.63-.168.526-.123.763.272.435.295.676-.2.476-.2.719.322.491.3.728.023.5-.021.738-.472.381-.538.612.213.576.126.8-.214.446-.32.661-.494.274-.619.48-.113.493-.255.687-.178.479-.336.661-.353.34-.525.509-.317.381-.5.536-.547.083-.743.224-.14.271-.346.4c.244-.05.319.065.555,0s.382-.408.611-.5.472-.124.693-.231.435-.216.646-.342.611.019.81-.125.146-.614.331-.776.506-.177.675-.356.191-.48.342-.675.506-.249.636-.458a7.477,7.477,0,0,0,.428-.628c.107-.222.03-.532.112-.766A6.967,6.967,0,0,0,54.9,46a6.682,6.682,0,0,0,.211-1.5c0-.25-.3-.485-.331-.728s.186-.537.131-.776a7.233,7.233,0,0,0-.132-.756c-.083-.233-.575-.3-.682-.521s-.052-.522-.182-.733-.191-.474-.342-.67-.4-.31-.573-.49-.414-.27-.6-.433-.292-.415-.493-.561-.4-.289-.614-.417-.344-.42-.568-.528-.574.074-.806-.015-.395-.377-.635-.446S48.717,37.4,48.473,37.349Zm14.4-.63c.206.126.36.421.554.561s.405.247.588.4.588.076.758.244.224.465.381.646.276.4.417.592.286.388.41.593.368.355.475.57-.014.535.073.759.319.4.386.63-.168.526-.123.763.272.435.3.676-.2.476-.2.719.322.491.3.728.023.5-.021.738-.472.381-.538.612.213.576.126.8-.214.446-.32.661-.494.274-.619.48-.113.493-.255.687-.178.479-.336.661-.353.34-.525.509-.317.381-.5.536-.547.083-.743.224-.14.271-.346.4c.244-.05.319.065.555,0s.382-.408.611-.5.472-.124.693-.231.435-.216.646-.342.611.019.81-.125.146-.614.331-.776.506-.177.675-.356.191-.48.342-.675.506-.249.636-.458a7.477,7.477,0,0,0,.428-.628c.107-.222.03-.532.112-.766a6.967,6.967,0,0,0,.345-.678,6.682,6.682,0,0,0,.211-1.5c0-.25-.3-.485-.331-.728s.186-.537.131-.776a7.233,7.233,0,0,0-.132-.756c-.083-.233-.575-.3-.682-.521s-.052-.522-.182-.733-.191-.474-.342-.67-.4-.31-.573-.49-.414-.27-.6-.433-.292-.415-.493-.561-.4-.289-.614-.417-.344-.42-.568-.528-.574.074-.806-.015-.395-.377-.635-.446S63.117,36.768,62.873,36.719Zm22.32-3.42c.206.126.36.421.554.561s.405.247.588.4.588.076.758.244.224.465.381.646.276.4.417.592.286.388.41.593.368.355.475.57-.014.535.073.759.319.4.386.63-.168.526-.123.763.272.435.3.676-.2.476-.2.719.322.491.3.728.023.5-.021.738-.472.381-.538.612.213.576.126.8-.214.446-.32.661-.494.274-.619.48-.113.493-.255.687-.178.479-.336.661-.353.34-.525.509-.317.381-.5.536-.547.083-.743.224-.14.271-.346.4c.244-.05.319.065.555,0s.382-.408.611-.5.472-.124.693-.231.435-.216.646-.342.611.019.81-.125.146-.614.331-.776.506-.177.675-.356.191-.48.342-.675.506-.249.636-.458a7.477,7.477,0,0,0,.428-.628c.107-.222.03-.532.112-.766a6.967,6.967,0,0,0,.345-.678,6.682,6.682,0,0,0,.211-1.5c0-.25-.3-.485-.331-.728s.186-.537.131-.776a7.233,7.233,0,0,0-.132-.756c-.083-.233-.575-.3-.682-.521s-.052-.522-.182-.733-.191-.474-.342-.67-.4-.31-.573-.49-.414-.27-.6-.433-.292-.415-.493-.561-.4-.289-.614-.417-.344-.42-.568-.528-.574.074-.806-.015-.4-.377-.635-.446S85.437,33.348,85.193,33.3Zm-6.39-7.11c.206.126.36.421.554.561s.405.247.588.4.588.076.758.244.224.465.381.646.276.4.417.592.286.388.41.593.368.355.475.57-.014.535.073.759.319.4.386.63-.168.526-.123.763.272.435.3.676-.2.476-.2.719.322.491.3.728.023.5-.021.738-.472.381-.538.612.213.576.126.8-.214.446-.32.661-.494.274-.619.48-.113.493-.255.687-.178.479-.336.661-.353.34-.525.509-.317.381-.5.536-.547.083-.743.224-.14.271-.346.4c.244-.05.319.065.555,0s.382-.408.611-.5.472-.124.693-.231.435-.216.646-.342.611.019.81-.125.146-.614.331-.776.506-.177.675-.356.191-.48.342-.675.506-.249.636-.458a7.477,7.477,0,0,0,.428-.628c.107-.222.03-.532.112-.766a6.967,6.967,0,0,0,.345-.678,6.682,6.682,0,0,0,.211-1.5c0-.25-.3-.485-.331-.728s.186-.537.131-.776a7.233,7.233,0,0,0-.132-.756c-.083-.233-.575-.3-.682-.521s-.052-.522-.182-.733-.191-.474-.342-.67-.4-.31-.573-.49-.414-.27-.6-.433-.292-.415-.493-.561-.4-.289-.614-.417-.344-.42-.568-.528-.574.074-.806-.015-.4-.377-.635-.446S79.047,26.238,78.8,26.189Zm-42.93,10.53c.206.126.36.421.554.561s.405.247.588.4.588.076.758.244.224.465.381.646.276.4.417.592.286.388.41.593.368.355.475.57-.014.535.073.759.319.4.386.63-.168.526-.123.763.272.435.3.676-.2.476-.2.719.322.491.3.728.023.5-.021.738-.472.381-.538.612.213.576.126.8-.214.446-.32.661-.494.274-.619.48-.113.493-.255.687-.178.479-.336.661-.353.34-.525.509-.317.381-.5.536-.547.083-.743.224-.14.271-.346.4c.244-.05.319.065.555,0s.382-.408.611-.5.472-.124.693-.231.435-.216.646-.342.611.019.81-.125.146-.614.331-.776.506-.177.675-.356.191-.48.342-.675.506-.249.636-.458a7.477,7.477,0,0,0,.428-.628c.107-.222.03-.532.112-.766a6.967,6.967,0,0,0,.345-.678,6.682,6.682,0,0,0,.211-1.5c0-.25-.3-.485-.331-.728s.186-.537.131-.776a7.233,7.233,0,0,0-.132-.756c-.083-.233-.575-.3-.682-.521s-.052-.522-.182-.733-.191-.474-.342-.67-.4-.31-.573-.49-.414-.27-.6-.433-.292-.415-.493-.561-.4-.289-.614-.417-.344-.42-.568-.528-.574.074-.806-.015-.395-.377-.635-.446S36.117,36.768,35.873,36.719Zm42.93,3.6c.206.126.36.421.554.561s.405.247.588.4.588.076.758.244.224.465.381.646.276.4.417.592.286.388.41.593.368.355.475.57-.014.535.073.759.319.4.386.63-.168.526-.123.763.272.435.3.676-.2.476-.2.719.322.491.3.728.023.5-.021.738-.472.381-.538.612.213.576.126.8-.214.446-.32.661-.494.274-.619.48-.113.493-.255.687-.178.479-.336.661-.353.34-.525.509-.317.381-.5.536-.547.083-.743.224-.14.271-.346.4c.244-.05.319.065.555,0s.382-.408.611-.5.472-.124.693-.231.435-.216.646-.342.611.019.81-.125.146-.614.331-.776.506-.177.675-.356.191-.48.342-.675.506-.249.636-.458a7.477,7.477,0,0,0,.428-.628c.107-.222.03-.532.112-.766a6.967,6.967,0,0,0,.345-.678,6.682,6.682,0,0,0,.211-1.5c0-.25-.3-.485-.331-.728s.186-.537.131-.776a7.233,7.233,0,0,0-.132-.756c-.083-.233-.575-.3-.682-.521s-.052-.522-.182-.733-.191-.474-.342-.67-.4-.31-.573-.49-.414-.27-.6-.433-.292-.415-.493-.561-.4-.289-.614-.417-.344-.42-.568-.528-.574.074-.806-.015-.4-.377-.635-.446S79.047,40.368,78.8,40.319Zm-6.21-7.11c.206.126.36.421.554.561s.405.247.588.4.588.076.758.244.224.465.381.646.276.4.417.592.286.388.41.593.368.355.475.57-.014.535.073.759.319.4.386.63-.168.526-.123.763.272.435.3.676-.2.476-.2.719.322.491.3.728.023.5-.021.738-.472.381-.538.612.213.576.126.8-.214.446-.32.661-.494.274-.619.48-.113.493-.255.687-.178.479-.336.661-.353.34-.525.509-.317.381-.5.536-.547.083-.743.224-.14.271-.346.4c.244-.05.319.065.555,0s.382-.408.611-.5.472-.124.693-.231.435-.216.646-.342.611.019.81-.125.146-.614.331-.776.506-.177.675-.356.191-.48.342-.675.506-.249.636-.458a7.477,7.477,0,0,0,.428-.628c.107-.222.03-.532.112-.766a6.967,6.967,0,0,0,.345-.678,6.682,6.682,0,0,0,.211-1.5c0-.25-.3-.485-.331-.728s.186-.537.131-.776A7.233,7.233,0,0,0,78.9,38.1c-.083-.233-.575-.3-.682-.521s-.052-.522-.182-.733-.191-.474-.342-.67-.4-.31-.573-.49-.414-.27-.6-.433-.292-.415-.493-.561-.4-.289-.614-.417-.344-.42-.568-.528-.574.074-.806-.015-.395-.377-.635-.446S72.837,33.258,72.593,33.209Z" fill="rgb(100,194,161)"/><path d="M23.105,42.279c0,.233.157.5.121.72s-.548.34-.618.555.095.516-.009.719a4.376,4.376,0,0,1-.425.539c-.135.185-.355.275-.516.437a4.246,4.246,0,0,1-.474.465c-.184.134-.213.538-.417.643s-.5.046-.714.118a4.555,4.555,0,0,1-.68.119,4.391,4.391,0,0,1-.683.065,5.074,5.074,0,0,1-.708.085c-.229-.036-.4-.322-.617-.392s-.493-.008-.695-.111-.236-.47-.421-.6-.474-.121-.635-.283-.124-.468-.259-.653-.53-.2-.635-.4a4.627,4.627,0,0,1-.345-.619c-.07-.215.248-.524.212-.752s-.425-.418-.425-.651a4.7,4.7,0,0,1,.082-.705c.036-.228.39-.375.46-.591s0-.482.1-.684.1-.487.238-.671a4.6,4.6,0,0,1,.484-.513,4.751,4.751,0,0,1,.5-.5c.184-.134.53-.017.734-.122s.3-.491.516-.562.516.159.744.123.438-.329.671-.329a4.725,4.725,0,0,1,.7.119,4.587,4.587,0,0,1,.684.169c.219.071.294.471.5.574s.606-.117.79.017.231.452.393.613.452.228.586.413.033.518.138.722a4.166,4.166,0,0,1,.185.639c.07.215.3.38.34.608A4.438,4.438,0,0,1,23.105,42.279Z" fill="#fff"/><path d="M21.312,42.279a2.541,2.541,0,0,1-.088.68c-.063.234.046.537-.073.742a3.873,3.873,0,0,1-1.064,1c-.2.119-.393.388-.628.451s-.524-.373-.769-.373-.49.235-.717.174a2.7,2.7,0,0,1-.627-.346c-.209-.121-.311-.336-.48-.505a2.507,2.507,0,0,1-.45-.51c-.118-.206-.518-.313-.581-.548s.065-.519.065-.765a2.762,2.762,0,0,1,.135-.711A2.722,2.722,0,0,1,16.3,40.9a3.075,3.075,0,0,1,.339-.67c.169-.169.512-.134.72-.255s.365-.362.6-.425.486.2.732.2.48-.167.707-.106.338.352.543.471.585-.007.754.162a3.05,3.05,0,0,1,.521.545c.119.206-.141.568-.078.8A2.449,2.449,0,0,1,21.312,42.279Z" fill="rgb(61,187,159)"/><path d="M151.739,83.477c-.1-.223-.323-.39-.423-.611s-.378-.37-.479-.591.107-.59.006-.81-.229-.436-.33-.656-.614-.254-.716-.471.031-.554-.071-.769-.183-.459-.288-.675-.367-.361-.473-.572-.007-.542-.115-.752-.546-.248-.659-.456.009-.547-.108-.753-.219-.424-.34-.627-.253-.4-.379-.6-.124-.492-.254-.691-.493-.247-.627-.442-.155-.476-.293-.669-.355-.333-.5-.523-.185-.462-.332-.648-.557-.163-.708-.346.047-.663-.107-.843-.394-.3-.551-.471-.267-.409-.428-.582-.506-.179-.671-.349-.222-.453-.391-.619-.344-.334-.516-.5-.5-.165-.672-.324-.32-.355-.5-.51-.362-.308-.543-.459-.478-.165-.662-.312-.08-.669-.267-.813-.542-.076-.731-.216-.338-.346-.53-.482-.329-.364-.524-.5-.422-.229-.619-.358-.577.021-.776-.1-.317-.39-.518-.511-.391-.281-.6-.4-.422-.228-.629-.342-.486-.105-.694-.214-.315-.434-.524-.54-.5-.065-.713-.167-.307-.473-.519-.571-.519-.017-.732-.11-.351-.4-.565-.49-.569.126-.784.041-.475-.1-.691-.178-.321-.527-.538-.6-.577.2-.793.125c-.235-.078-.448-.175-.663-.241-.241-.075-.38-.44-.594-.5-.247-.071-.523.032-.731-.023-.262-.068-.526.021-.718-.024a1.656,1.656,0,0,1-.546-.255c-.094.319,0,.326-.058.654s-.336.278-.4.606.25.379.2.708c.018,0,0,.094.378.184.17.042.443-.174.676-.112.185.05.366.167.586.231.254.04.5.092.743.144s.408.446.647.514.606-.234.84-.151.4.378.628.479.54.053.76.17.318.475.53.608c.214.093.408.259.629.36s.508.026.727.131.363.334.58.443.412.233.627.346.408.24.62.357.559-.02.769.1.28.465.488.59.361.318.567.448.636-.105.839.028.293.427.493.565.334.356.532.5.456.187.651.333.448.207.639.357.3.4.484.555.363.315.548.472.233.461.414.622.562.095.74.26.2.489.368.657.5.178.669.351.341.341.506.518.176.49.337.671.437.256.594.44.159.494.312.682.439.264.588.456.257.41.4.6.192.451.331.649.25.408.385.609.43.293.561.5.087.513.213.721.523.249.644.46.164.465.281.679.009.54.121.757.255.4.364.618.335.362.441.582.338.364.442.584.164.446.267.665.091.482.192.7.081.483.181.7.309.384.409.6.382.351.482.571-.093.574.008.8.14.455.238.673.386.344.485.562.344.363.443.581.033.5.133.722.4.338.5.555-.023.528.077.743.091.477.192.691.452.307.554.522.229.412.332.626.125.463.23.676.112.472.217.685.4.328.508.54.2.431.3.643.115.473.225.684.053.508.164.719.425.311.538.521.364.341.478.55.119.476.236.684.067.507.185.715.217.424.337.631.26.4.382.605.48.266.6.47.2.433.329.635.084.509.212.711.27.393.4.593.211.433.343.632.493.242.628.44-.034.6.1.8.5.23.642.424.363.323.5.515,0,.592.148.783.507.213.653.4.231.425.38.612.1.536.249.721.468.232.623.414.174.482.331.662.539.16.7.337.266.4.429.577.28.393.445.565.222.454.39.623.5.174.672.34.373.3.547.462.164.529.342.689.41.261.591.417.4.271.582.424.287.407.473.556.353.33.543.475.544.074.736.216.407.249.6.386.3.407.5.541.379.3.58.424.338.367.542.492.411.255.618.375.5.154.707.27c.229.031.518-.211.743-.184s.433.268.657.293.469-.051.693-.029.477-.122.7-.1.442.283.666.3.451.183.674.2.48-.317.7-.306.462-.061.683-.053.411.242.631.247c-.229-.071-.34-.373-.565-.449s-.45-.145-.673-.227-.523.032-.745-.056-.422-.231-.642-.324-.391-.292-.609-.391-.5-.045-.72-.15-.4-.272-.609-.382-.49-.1-.7-.214-.387-.289-.593-.409-.478-.136-.681-.261-.214-.555-.414-.685-.417-.227-.614-.361-.592.014-.786-.125-.2-.538-.389-.681-.521-.1-.709-.251-.313-.373-.5-.524-.321-.358-.5-.513-.534-.116-.712-.274-.137-.56-.312-.722-.384-.285-.556-.45-.416-.256-.584-.425-.17-.5-.335-.671-.652-.04-.814-.214-.056-.6-.215-.775-.518-.178-.675-.358-.394-.295-.547-.477-.261-.408-.412-.593-.027-.591-.175-.778-.554-.172-.7-.361-.16-.479-.3-.67-.385-.31-.525-.5-.046-.553-.184-.748-.458-.262-.593-.459-.192-.447-.324-.645-.3-.374-.43-.574-.24-.413-.368-.615-.25-.406-.376-.609-.115-.488-.239-.692-.587-.206-.709-.411.1-.613-.022-.82-.39-.326-.508-.534-.149-.465-.266-.673-.157-.459-.271-.668-.5-.271-.616-.482-.368-.347-.479-.558.139-.613.029-.825-.348-.358-.457-.57-.086-.492-.193-.7-.433-.321-.539-.535-.206-.435-.311-.649-.115-.478-.218-.693-.132-.467-.235-.682-.2-.433-.3-.648-.492-.3-.592-.513-.194-.436-.293-.651-.06-.5-.159-.718.061-.553-.037-.768-.362-.357-.46-.571-.253-.408-.35-.623S151.835,83.688,151.739,83.477Z" fill="rgb(61,187,159)"/><path d="M155.3,14.67c-.154.189.043.658-.107.847s-.609.139-.757.329-.1.538-.245.729-.176.473-.32.666-.32.364-.462.558-.3.377-.444.572-.323.363-.461.56-.395.315-.531.513-.047.552-.181.751-.549.214-.681.414-.194.452-.324.653-.216.439-.345.642-.43.3-.557.508-.279.4-.4.606.037.588-.086.794-.3.384-.421.591-.506.264-.626.472-.243.419-.361.627-.028.542-.145.753-.291.392-.407.6-.154.467-.269.677-.236.42-.349.631-.221.431-.334.644-.455.3-.567.517-.077.5-.187.713-.122.48-.233.692-.186.44-.3.649-.51.267-.618.474-.1.49-.214.7-.053.517-.163.728-.525.27-.636.481-.2.438-.312.649.17.637.058.847-.463.3-.578.514-.262.411-.378.62-.088.508-.207.716-.447.3-.568.508.069.606-.055.81-.485.271-.613.473-.278.394-.41.593-.262.4-.4.6-.405.3-.546.491-.069.549-.215.737-.413.285-.566.467-.243.424-.4.6-.421.261-.587.431-.108.58-.282.743-.659-.019-.841.136-.3.38-.486.526-.42.22-.618.356-.259.468-.463.594-.487.106-.7.222-.415.22-.633.325-.341.4-.564.494-.462.132-.69.215-.448.16-.678.232-.412.308-.647.37-.572-.344-.81-.292-.406.359-.644.4-.483,0-.725.036-.627.081-.871.109c-.079.323.079.384.115.714s.366.3.4.627-.243.368-.095.667c.241-.027.437-.04.671-.073s.473-.083.705-.123.443-.225.673-.273.521.13.749.073.422-.28.647-.345.549.143.773.068.39-.345.61-.429.536.035.753-.059.3-.5.514-.6.385-.284.592-.4.609.1.813-.024.206-.568.4-.7.4-.243.6-.384.57-.04.756-.188.261-.436.44-.592.252-.425.425-.589.362-.3.529-.472.283-.379.444-.556.526-.167.681-.349.056-.568.205-.754.523-.19.667-.38.06-.541.2-.735.323-.347.458-.543.268-.387.4-.587.545-.214.672-.417-.09-.613.034-.817.426-.3.547-.5.083-.5.2-.7.462-.282.578-.49.295-.38.409-.59.061-.508.174-.719.349-.35.461-.56.241-.411.352-.623.24-.413.351-.627-.037-.556.074-.769.452-.308.564-.523.291-.378.4-.589-.167-.611-.058-.82.387-.324.5-.533.306-.366.416-.574.115-.468.226-.676.127-.463.239-.67.338-.351.45-.558.235-.406.349-.613.4-.315.513-.521-.037-.56.079-.766.425-.3.543-.5.043-.519.163-.724.233-.41.355-.614.418-.3.541-.5.113-.484.238-.686.417-.3.544-.5.106-.493.235-.693.3-.372.427-.571.352-.329.485-.526.286-.373.421-.569.106-.5.243-.7.435-.271.573-.465.018-.572.159-.765.351-.332.5-.524.481-.229.625-.419.252-.4.4-.593.183-.459.332-.646.186-.467.339-.655.342-.346.5-.527.411-.277.576-.451.424-.252.6-.42.261-.418.44-.579.226-.474.41-.629.572-.058.761-.206.412-.242.605-.384.265-.45.463-.586.309-.405.512-.536.5-.1.708-.229.3-.436.512-.555.538-.022.75-.135.477-.115.693-.223.308-.46.526-.563.426-.229.646-.327.477-.111.7-.2.484-.083.708-.171.372-.372.6-.456.46-.147.687-.227.492-.048.721-.123.512.031.742-.04.393-.36.624-.427.419-.284.651-.348.5,0,.73-.064.51.066.743.009.471-.089.7-.142.462-.126.7-.176.414-.369.65-.416.483-.043.719-.087.508.108.745.067.47-.1.708-.136.483-.015.72-.051.437-.343.675-.376.525.3.764.269.442-.337.681-.365.467-.161.706-.187.515.3.754.272.453-.318.693-.34.488.038.728.019.5.222.739.205.466-.245.706-.26.492.151.732.138.466-.324.706-.336.486.052.726.043.485.047.725.039.486.144.726.138.477-.24.717-.244.482-.05.722-.053.486.273.727.272.484-.079.725-.079.484-.052.724-.05.481.137.721.141.48.048.72.054.488-.259.727-.252.482-.024.72-.016.474.181.711.19.481.056.719.068.472.152.709.164.479.033.716.046.489-.081.722-.066a1.316,1.316,0,0,0,.895-.23c.294-.145-.042-.1-.375-.375-.14-.116-.375-.173-.581-.324-.16-.117-.43-.1-.632-.238-.17-.112-.221-.436-.422-.557-.179-.108-.3-.352-.5-.466-.185-.1-.516.107-.722,0-.239-.011-.453.065-.694.055s-.472-.2-.714-.205-.471-.292-.713-.3-.481,0-.723-.009-.485.2-.727.2-.48-.063-.721-.065-.481-.116-.723-.117-.479.171-.72.172-.479-.065-.72-.063-.477.146-.718.151-.481-.056-.722-.05-.476.139-.717.147-.494-.342-.735-.332-.481.058-.722.069-.463.371-.7.384-.5-.292-.741-.276-.466.263-.707.281-.488-.062-.729-.042-.488-.031-.729-.01-.456.3-.7.329-.515-.275-.755-.248-.476.107-.716.136-.468.164-.707.2-.512-.167-.752-.133-.415.506-.655.542-.534-.287-.773-.248-.434.343-.672.384-.456.187-.694.232-.485.029-.723.076-.545-.249-.782-.2-.4.424-.639.477-.509-.05-.744.006-.44.236-.675.3-.542-.155-.775-.092-.409.345-.641.411-.492.046-.723.116-.451.183-.681.256-.468.128-.7.206-.461.153-.688.234-.512.019-.737.1-.307.544-.531.634-.6-.182-.822-.087-.377.352-.6.452-.485.113-.7.217-.478.137-.693.246-.288.5-.5.614-.344.37-.554.489-.624-.11-.831.014-.338.378-.541.508-.487.144-.686.279-.259.475-.454.616-.393.278-.584.425-.446.215-.632.368-.427.247-.609.406-.365.321-.541.486-.129.56-.3.73-.34.333-.5.509-.439.248-.6.43S155.452,14.482,155.3,14.67Z" fill="rgb(61,187,159)"/><path d="M167.679,17.547c-.194.143-.549.082-.74.232s-.195.53-.382.685-.254.441-.437.6-.476.188-.655.353-.228.459-.4.627-.644.031-.817.2-.374.312-.542.486-.28.4-.446.58-.207.467-.37.647-.414.278-.574.459-.363.327-.522.511-.321.364-.477.549-.208.458-.363.645-.2.462-.349.65-.321.36-.473.549-.468.246-.618.437-.053.573-.2.765-.573.166-.721.358-.037.582-.185.775-.423.287-.571.48-.125.514-.272.708-.64.126-.788.321.062.659-.086.855-.6.148-.747.339-.089.535-.234.727-.175.471-.32.662-.323.359-.469.55-.312.367-.459.558-.335.349-.483.539-.409.292-.557.481-.083.548-.233.736-.563.167-.713.355-.236.428-.387.615-.262.408-.415.593-.463.241-.618.425-.33.349-.486.532-.059.585-.217.766-.365.323-.525.5-.546.154-.708.331-.326.351-.491.527-.153.517-.319.69-.381.3-.55.472-.277.4-.448.572-.351.331-.525.5-.345.337-.522.5-.528.131-.708.29-.251.441-.434.6-.294.4-.48.551-.351.333-.54.482-.579.033-.771.178-.3.393-.5.533-.282.435-.48.571-.586-.015-.788.117-.385.279-.59.405-.178.636-.386.757-.549.013-.759.129-.437.2-.651.311-.352.371-.568.476-.533-.009-.752.09-.292.534-.514.627-.547-.068-.772.019-.454.149-.681.23-.449.165-.678.239-.5-.007-.733.062-.384.4-.618.459-.5-.021-.735.036-.447.2-.684.245-.493-.035-.73.009-.417.413-.656.45-.539-.384-.779-.352-.46.161-.7.186-.48-.029-.721-.01-.461.279-.7.293-.6-.051-.842-.043c-.105.316.005.375.016.707s.23.326.24.659-.155.343-.032.653c.241-.008.434-.051.672-.064s.465-.206.7-.224.52.432.757.408.45-.318.685-.347.487.018.722-.017.493.034.727-.007.467-.13.7-.176.4-.419.63-.471.5.053.731,0,.473-.079.7-.142.456-.142.683-.211.411-.275.636-.35.53.072.753-.008.389-.32.61-.406.556.1.775.006.361-.371.578-.468.532.009.747-.094.282-.508.494-.615.382-.29.591-.4.6.106.81-.012.223-.562.427-.684.418-.223.619-.35.57.005.769-.127.3-.407.5-.543.3-.394.494-.534.4-.251.593-.395.34-.333.526-.48.548-.077.732-.227.16-.55.341-.7.552-.086.731-.243.171-.521.347-.68.392-.273.565-.435.348-.322.519-.487.58-.088.749-.256.052-.619.218-.789.483-.193.647-.365.2-.467.359-.641.515-.172.675-.347.375-.3.533-.483.173-.482.33-.661.419-.267.574-.448.325-.35.478-.532.322-.353.473-.537.079-.551.229-.736.5-.206.651-.391.363-.321.511-.507-.043-.639.1-.826.445-.257.591-.445.372-.315.517-.5.2-.449.342-.637.205-.443.349-.633.392-.3.535-.488.3-.371.437-.559.44-.258.581-.445.052-.577.2-.773.473-.259.621-.454.119-.527.268-.722.293-.4.441-.59.462-.265.612-.459.177-.484.327-.677.458-.264.61-.456.168-.494.32-.684.344-.353.5-.543.4-.307.552-.5.336-.356.493-.542.169-.5.328-.683.472-.236.634-.417.09-.578.254-.757.4-.3.564-.475.517-.181.688-.355.312-.376.486-.546.256-.438.433-.6.262-.44.443-.6.4-.292.585-.448.453-.218.642-.367.461-.2.655-.339.317-.379.517-.513.3-.436.5-.562.575.032.786-.085.445-.172.66-.281.337-.4.557-.5.376-.346.6-.439.514-.014.74-.1.378-.375.607-.454.534.077.765,0,.491-.025.724-.091.391-.394.626-.454.463-.146.7-.2.489-.018.725-.066.492.01.729-.033.438-.295.676-.334.482-.056.72-.09.494.046.734.016.5.13.739.1.456-.278.7-.3.469-.2.71-.217.492.09.732.076.492.162.733.151.482,0,.723-.006.482-.036.723-.041.48-.283.721-.285.485.05.726.051.482.2.723.206.5-.012.739-.006c.086-.23.24-.448.327-.668s-.075-.557.016-.774.515-.477.612-.689c-.239-.009-.635.177-.875.17s-.479.094-.72.09-.474-.356-.714-.357-.48.272-.72.274-.479-.076-.719-.072-.487-.251-.728-.243-.473.228-.713.238-.49-.158-.73-.144-.46.327-.7.344-.484-.037-.723-.017-.485-.022-.723,0-.5-.106-.736-.078-.449.286-.687.318-.469.108-.706.145-.52-.2-.757-.157-.463.161-.7.207-.463.147-.7.2-.5-.025-.735.03-.482.077-.714.137-.4.386-.627.452-.449.171-.677.243-.509-.009-.736.069-.468.126-.692.21-.5.053-.723.143-.453.182-.671.279-.4.3-.614.406-.305.462-.517.573-.525.038-.733.157-.364.33-.567.457-.311.394-.509.528S167.871,17.405,167.679,17.547Z" fill="rgb(61,187,159)"/><path d="M126.031,54.139c.257.033.631-.166.885-.137s.488.271.741.295.5.223.751.243.538-.358.791-.343.5.172.757.182.5.274.757.279.515-.262.768-.262.485.235.723.23.479-.16.717-.169.484.018.722,0,.457-.308.695-.328.486.078.723.052.5.179.742.148.492.024.727-.013.471-.12.706-.162.486-.033.72-.08.415-.359.647-.412.5.043.735-.016.484-.055.714-.119.406-.324.634-.393.452-.155.678-.23.541.1.766.017.35-.438.573-.523.379-.332.6-.423.506-.02.726-.115.36-.357.577-.456.613.184.829.08.451-.171.664-.279.391-.287.6-.4.34-.372.549-.488.475-.127.682-.247.442-.191.647-.314.412-.242.616-.368.332-.368.533-.5.321-.377.521-.509.408-.243.606-.378.513-.094.709-.232.208-.529.4-.669.591,0,.784-.137.189-.544.381-.688.478-.158.668-.3.248-.457.437-.6.644.047.832-.1.09-.644.276-.794.615.005.8-.146.206-.5.39-.648.271-.415.454-.569.388-.275.571-.43.377-.289.558-.446.4-.27.576-.427.454-.2.635-.362.178-.519.358-.678.581-.063.761-.223.3-.379.476-.538.317-.358.5-.518.49-.168.668-.328.372-.3.55-.462.128-.571.306-.733.394-.277.573-.44.556-.1.733-.259.355-.321.532-.484.19-.5.368-.668.4-.277.573-.44.3-.393.475-.558.364-.325.545-.492.35-.328.531-.484.528-.11.713-.26.268-.426.458-.57.315-.378.509-.517.371-.307.569-.439.577.015.779-.112.332-.363.538-.484.318-.405.526-.52.579.073.79-.036.409-.237.623-.341.24-.612.457-.711.544.046.764-.047.451-.152.673-.24.384-.333.608-.415.527.062.753-.016.338-.5.565-.574.537.117.766.049.463-.11.693-.173.458-.13.69-.188.5.042.73-.012.405-.372.638-.421.5.046.73,0,.453-.177.687-.218.492.052.727.015.424-.4.66-.436.651.341.887.311c.1-.242.172-.617.268-.857s.264-.459.357-.7-.037-.537.054-.777c-.24.024-.463-.092-.7-.064s-.479.059-.719.091-.446.283-.685.318-.483.023-.721.063-.473.084-.71.127-.438.262-.675.31-.569-.367-.8-.315-.413.367-.647.423-.488.036-.722.1-.5.018-.729.083-.453.177-.684.246-.362.457-.592.531-.508-.007-.735.072-.469.121-.695.2-.447.18-.671.269-.392.309-.614.4-.537-.029-.757.071-.369.35-.586.454-.566-.052-.781.057-.338.4-.55.515-.537.034-.746.155-.247.531-.453.657-.363.322-.565.453-.615-.053-.814.084-.179.582-.374.725-.4.262-.591.41-.573.055-.76.208-.263.44-.446.6-.261.428-.439.592-.38.3-.556.465-.317.37-.494.533-.546.12-.722.282-.139.565-.315.727-.555.11-.732.272-.17.53-.347.691-.4.279-.577.44-.361.321-.538.482-.587.071-.764.231-.09.621-.268.781-.5.164-.679.323-.241.455-.419.613-.534.124-.714.282-.409.263-.589.42-.237.46-.418.616-.456.208-.637.363-.378.3-.56.451-.379.3-.561.449-.183.531-.366.683-.536.106-.72.256-.424.238-.609.387-.106.637-.293.785-.5.146-.684.292-.441.214-.63.358-.311.383-.5.525-.323.371-.515.512-.465.175-.658.313-.4.268-.593.4-.5.109-.7.242-.228.521-.426.651-.524.075-.725.2-.29.445-.494.569-.409.254-.615.375-.517.062-.725.179-.344.369-.554.481-.514.048-.726.156-.349.371-.563.475-.452.164-.668.263-.48.093-.7.186-.448.158-.669.247-.371.357-.595.441-.513-.024-.739.054-.35.457-.577.529-.483.06-.712.126-.523-.108-.754-.047-.447.161-.679.216-.432.242-.666.291-.439.238-.674.282-.477.041-.713.078-.488-.048-.725-.016-.484-.069-.722-.043-.459.169-.7.189-.461.24-.7.254-.492-.294-.731-.284-.474-.045-.714-.041-.469.215-.708.214-.478.158-.718.152-.47-.194-.71-.2-.489.2-.729.182-.457-.274-.7-.293-.463-.16-.7-.183-.5.227-.74.2-.325-.112-.567-.143a1.108,1.108,0,0,0-.158.595,2.288,2.288,0,0,1-.191.64C126.058,53.787,125.951,53.815,126.031,54.139Z" fill="rgb(61,187,159)"/><path d="M124.874,59.4a7.331,7.331,0,0,1,.875.012c.2.016.444.067.722.095.219.023.438.232.7.264.225.027.486-.109.74-.075.228.032.486-.047.735-.009.231.036.478.04.725.082.232.039.437.278.682.323s.454.169.7.218.539-.239.779-.187.4.428.636.484.549-.224.788-.165.449.2.686.261.413.322.649.389.477.086.712.158.415.288.648.364.48.086.712.166.536-.059.766.025.432.235.661.323.382.352.608.445.591-.147.816-.049.25.626.472.728.5.074.717.181.387.3.6.415.486.116.7.233.406.266.617.388.578-.014.786.114.3.442.5.576.3.414.506.554.629-.043.825.1.305.41.5.561.218.5.405.658.547.111.729.274.2.5.374.669.452.234.622.409.308.378.472.559.532.179.693.363.228.447.385.635.131.521.285.711.234.432.385.624.334.354.482.548.249.418.395.615.5.23.645.427.157.484.3.683.224.434.363.634.44.286.577.488.285.395.421.6.048.55.182.755.511.248.644.453.409.316.54.522.113.5.243.712.413.317.542.525-.105.638.022.847.216.438.343.647.318.377.444.587.4.333.52.543.147.483.273.693.2.451.325.662.243.425.367.636.364.354.488.565.37.351.494.562.225.433.349.644.059.524.182.733.513.259.636.468-.057.594.066.8.525.252.648.46.107.5.231.708.428.309.552.517-.124.639,0,.847.632.184.758.391-.083.617.043.823.467.282.594.488.378.334.506.539.223.431.352.635.239.421.369.625.218.435.35.637.144.485.277.686.5.252.629.452-.008.591.129.79.345.351.483.549.324.364.464.56.119.513.261.708.266.407.411.6.561.185.708.377.248.421.4.611.065.57.217.758.308.38.462.565.5.215.657.4.27.407.43.588.391.3.554.477.324.358.491.532.342.341.512.511.163.526.337.693.465.214.642.377.433.24.614.4.389.287.574.442.165.564.354.713.465.194.658.338.5.132.7.27.206.558.406.691.424.244.629.37.381-.125.59,0c-.07-.218.027-.248-.032-.471s-.077-.45-.122-.677-.251-.426-.28-.656.185-.477.172-.709c0,0-.264.2-.265.2-.2-.138-.237-.5-.432-.644s-.372-.308-.563-.458-.382-.3-.568-.451-.264-.431-.447-.591-.542-.116-.72-.281-.252-.435-.426-.6-.408-.273-.578-.446-.242-.436-.409-.612-.576-.124-.739-.3.018-.664-.142-.846-.394-.294-.551-.479-.252-.416-.406-.6-.5-.219-.646-.409-.175-.477-.324-.669-.3-.381-.442-.575-.465-.254-.609-.449-.245-.419-.386-.616-.284-.391-.424-.589-.423-.3-.561-.5.118-.666-.018-.867-.493-.251-.627-.453-.2-.448-.333-.651-.172-.463-.3-.667-.3-.381-.429-.586-.538-.233-.667-.439-.117-.5-.245-.7-.219-.435-.346-.642-.262-.408-.388-.615-.371-.343-.5-.551-.045-.539-.169-.748-.391-.333-.515-.542.006-.569-.118-.779-.418-.318-.542-.528-.049-.535-.172-.745-.534-.251-.656-.461-.317-.379-.439-.588.088-.607-.033-.814-.565-.224-.687-.43-.219-.427-.341-.634.025-.572-.1-.778-.391-.327-.514-.533-.373-.337-.5-.543-.216-.43-.34-.636-.3-.381-.422-.586-.01-.557-.135-.762-.526-.241-.653-.445,0-.564-.131-.767-.489-.26-.617-.463-.2-.439-.334-.641-.255-.407-.386-.608.022-.59-.111-.789-.6-.178-.733-.377-.094-.517-.229-.714-.421-.295-.559-.491-.064-.545-.2-.74-.223-.436-.365-.629-.438-.274-.582-.465-.178-.47-.323-.659-.28-.393-.428-.58-.287-.39-.438-.575-.529-.185-.682-.367-.115-.535-.272-.714-.255-.415-.414-.59-.638-.057-.8-.228-.2-.474-.366-.64-.276-.405-.452-.566-.432-.233-.612-.389-.429-.227-.613-.378-.289-.4-.477-.546-.373-.3-.565-.438-.276-.44-.472-.575-.566-.015-.765-.145-.282-.446-.484-.571-.522-.057-.727-.178-.414-.232-.621-.347-.32-.41-.53-.521-.5-.082-.707-.188-.341-.39-.555-.491-.507-.044-.723-.142-.417-.236-.634-.328-.4-.29-.617-.378-.438-.206-.66-.291-.518.013-.741-.068-.387-.35-.611-.426-.556.15-.781.077-.429-.228-.656-.3-.39-.376-.617-.441-.475-.087-.7-.149-.5.012-.727-.046-.5.027-.728-.027-.455-.15-.683-.2-.443-.219-.671-.266-.446-.221-.675-.264-.5.031-.724-.008-.508.12-.736.084-.429-.391-.656-.423c-.245-.035-.474-.127-.7-.155-.25-.032-.513.148-.735.123-.257-.028-.508.11-.723.09-.271-.025-.491-.223-.689-.237a2.714,2.714,0,0,0-.486-.006c-.046.329-.253.3-.264.634a2.878,2.878,0,0,1-.141.64A2.569,2.569,0,0,0,124.874,59.4Z" fill="rgb(61,187,159)"/><path d="M126.6,56.283a1.028,1.028,0,0,1,.6-.105c.2.008.45-.094.726-.079.217.012.457.048.715.065.224.014.432.457.684.476.228.017.5-.393.748-.373.23.019.469.058.715.081s.432.436.677.461.513-.358.757-.332.474.05.716.079.455.187.695.218.44.288.68.321.514-.243.754-.208.473.066.712.1.424.369.662.409.531-.269.769-.226.4.484.636.529.5-.066.732-.019.43.27.665.32.558-.315.793-.263.384.472.618.528.509-.066.743-.008.459.146.692.208.415.3.647.367.509-.03.74.039.5.029.725.1.472.115.7.191.392.343.619.424.424.239.649.324.577-.146.8-.056.322.49.543.585.584-.123.8-.023.408.278.623.384.34.4.551.507.45.184.658.3.336.372.539.5.441.2.639.328.525.077.717.219.339.343.525.493.243.445.423.6.6.048.774.212.013.666.183.835.431.235.6.41.246.412.406.591.4.273.559.455.276.382.426.566.536.178.683.366.121.506.265.7.142.483.283.676.6.15.741.344.158.471.295.667.059.533.193.73.49.24.623.437.066.526.2.725.383.314.513.513.226.419.355.62.491.251.62.452.155.466.284.667.059.53.188.732.183.454.312.658.289.372.416.57.206.426.333.625.477.253.605.452.124.48.252.679.2.433.33.631.426.285.556.483.273.385.405.582.045.541.178.737.509.226.643.421.412.289.548.482.131.487.269.679.425.276.565.467-.059.635.084.824.253.407.4.595.354.329.5.514.427.266.578.449.21.444.363.624.266.4.423.578.311.362.471.537.421.259.583.431.43.244.6.413.316.351.486.516.195.483.369.644.558.089.735.245.129.577.31.729.571.05.756.2.272.42.461.562.5.109.7.245.144.629.342.76.637-.118.839.006.2.581.409.7.536.012.745.123.29.084.5.188c.041-.221-.006-.274.035-.5s.1-.444.142-.673.138-.375.175-.605c-.215-.112-.314-.309-.524-.429s-.56-.011-.766-.139-.228-.543-.429-.677-.446-.2-.642-.343-.423-.241-.615-.389-.253-.455-.44-.609-.35-.326-.533-.485-.586-.068-.764-.232-.314-.375-.488-.544-.13-.552-.3-.725-.332-.344-.5-.52-.507-.188-.669-.368-.274-.4-.432-.584-.382-.307-.538-.493-.3-.377-.455-.565-.309-.372-.458-.562-.091-.538-.238-.731-.423-.285-.567-.48-.377-.321-.519-.517-.313-.371-.453-.569-.007-.584-.144-.783-.384-.322-.52-.522-.43-.293-.564-.494.015-.592-.118-.794-.287-.389-.42-.592-.642-.162-.773-.366-.042-.55-.173-.754-.235-.426-.365-.631-.405-.317-.535-.521-.06-.537-.19-.741-.57-.209-.7-.412-.03-.552-.159-.755-.24-.418-.37-.62-.267-.4-.4-.6-.129-.492-.261-.692-.493-.253-.625-.453-.145-.482-.279-.681-.344-.348-.479-.546-.163-.472-.3-.668-.549-.2-.688-.395.092-.659-.05-.852-.369-.326-.513-.517-.232-.43-.378-.618-.489-.226-.638-.411-.181-.473-.334-.655-.312-.366-.469-.544-.481-.211-.641-.385-.289-.383-.454-.553-.338-.339-.508-.5-.464-.2-.64-.359-.042-.675-.222-.828-.54-.1-.726-.25-.329-.357-.52-.5-.33-.368-.527-.5-.424-.223-.626-.348-.573.039-.779-.081-.327-.375-.537-.488-.4-.259-.61-.366-.428-.2-.643-.3-.486-.072-.7-.169-.338-.41-.557-.5-.5-.029-.721-.116-.337-.449-.559-.532-.515.022-.74-.058-.375-.373-.6-.448-.555.168-.781.1-.476-.063-.7-.131-.349-.5-.578-.567-.558.233-.788.172-.452-.148-.682-.206-.388-.418-.619-.474-.5.056-.736,0-.5.042-.729-.008-.459-.133-.691-.181-.478-.036-.711-.081-.418-.364-.651-.407-.526.234-.759.194-.424-.369-.657-.406-.514.2-.747.163-.462-.132-.695-.165-.472-.071-.7-.1-.431-.4-.663-.428-.521.34-.752.314-.452-.264-.683-.288-.5.129-.725.106-.456-.3-.685-.325c-.245-.022-.476-.115-.7-.133-.246-.019-.5.153-.722.137-.251-.017-.48-.175-.7-.188-.257-.015-.5-.049-.71-.06-.272-.013-.509-.044-.708-.051a1.154,1.154,0,0,0-.6.171c-.041.331-.264.317-.27.65s-.125.359-.094.691S126.594,55.949,126.6,56.283Z" fill="rgb(61,187,159)"/><path d="M111.186,32.28c-.091.214-.1.679-.2.9s-.321.371-.426.59-.137.458-.246.675-.337.358-.45.572-.138.462-.253.675-.23.413-.349.624-.078.5-.2.711-.26.4-.384.606-.538.224-.663.427-.116.48-.243.683-.347.335-.476.536-.067.519-.2.718-.206.431-.339.629-.3.367-.437.564-.227.419-.365.615-.337.341-.477.535-.5.221-.641.413-.094.52-.237.711-.186.454-.331.644-.54.182-.687.371-.169.47-.317.657-.4.284-.555.469,0,.61-.157.8-.3.369-.456.552-.382.3-.538.483-.228.434-.385.614-.66.053-.819.232-.111.538-.272.716-.439.243-.6.419-.221.445-.385.619-.2.466-.367.639-.37.308-.538.479-.39.286-.559.456-.432.241-.6.409-.422.249-.594.415-.344.328-.517.493-.171.515-.346.678-.454.211-.631.373-.267.415-.446.575-.4.272-.574.43-.386.282-.567.438-.406.257-.589.411-.226.472-.411.624-.366.307-.552.457-.549.077-.736.226-.192.529-.381.675-.491.144-.682.288-.249.464-.442.606-.379.293-.573.433-.324.373-.52.51-.406.258-.6.394-.635-.085-.834.048-.161.624-.361.755-.414.247-.616.375-.613-.079-.817.047-.195.6-.4.723-.412.249-.619.369-.481.128-.689.245-.529.034-.739.149-.272.5-.484.616-.424.227-.636.337-.562-.05-.776.057-.276.529-.492.632-.606-.163-.823-.063-.369.342-.588.439-.509.026-.729.12-.278.578-.5.668-.584-.17-.807-.083-.381.343-.605.427-.46.138-.685.218-.511-.017-.738.059-.4.31-.628.383-.423.253-.653.322-.451.169-.681.234-.514-.064-.746,0-.481.041-.714.1-.387.445-.62.5-.539-.22-.773-.172-.4.435-.638.479-.487.01-.724.05-.505-.121-.742-.085-.465.119-.7.151-.491-.091-.729-.064-.466.12-.7.143-.457.275-.7.293-.483-.035-.722-.021-.487-.163-.727-.153-.468.379-.708.384-.485-.465-.725-.465-.487.144-.728.143-.486-.1-.726-.1-.488.12-.728.117-.486-.039-.726-.042-.492.3-.732.3-.482-.224-.722-.228-.482-.187-.722-.192-.5.385-.736.379-.482-.158-.721-.166-.477-.27-.716-.279-.5.252-.735.243-.475-.256-.714-.267-.491.126-.729.114-.483-.064-.721-.076-.5.249-.738.235-.478-.149-.716-.164-.468-.265-.705-.281-.476-.123-.713-.141-.486.008-.722-.011-.477-.094-.714-.114-.506.222-.742.2-.468-.2-.7-.224-.474-.116-.71-.142-.5.147-.74.119-.485-.042-.72-.071-.451-.323-.687-.354-.523.224-.758.191-.51.1-.744.064-.456-.247-.689-.285-.513.1-.744.058-.4-.505-.633-.549-.466-.135-.7-.182-.491-.024-.719-.075-.513.055-.74,0-.446-.234-.671-.292c-.243-.064-.457-.182-.68-.245-.241-.069-.465-.143-.684-.211-.241-.075-.507-.021-.723-.1-.241-.083-.517-.033-.729-.115-.241-.094-.458-.209-.663-.3-.238-.1-.361-.4-.555-.5-.24-.122-.6.033-.78-.077-.249-.153-.243-.577-.394-.7-.384-.309-.855-.087-.741-.421a2.944,2.944,0,0,0,.708-.364c.157-.161.118-.458.243-.664.117-.191.608-.2.7-.426s-.257-.579-.19-.807.5-.35.548-.581-.159-.5-.125-.735-.083-.475-.061-.706.08-.459.093-.686c.014-.242.047-.471.051-.7.006-.248.059-.479.056-.7,0-.263.134-.5.126-.7-.019-.428.254-.438-.09-.453-.36-.015-.147-.017-.325.4a5.793,5.793,0,0,1-.231.682c-.1.194-.176.431-.316.651-.12.19-.419.269-.57.472-.136.183-.3.344-.462.533s-.064.579-.239.756-.384.291-.57.455-.549.072-.744.224-.369.274-.573.413-.26.463-.471.59-.442.182-.66.3-.385.3-.61.4-.44.185-.67.276-.443.178-.676.257-.527-.1-.764-.031-.412.287-.651.345-.44.219-.681.268-.465.128-.708.167-.516-.254-.76-.223-.454.188-.7.211-.462.232-.708.247-.489-.315-.733-.306-.475.038-.722.04-.485.45-.732.445-.472-.277-.708-.291-.472-.064-.708-.087-.5.12-.73.089-.436-.3-.67-.343-.541.276-.773.228-.409-.368-.639-.425-.455-.14-.683-.205-.458-.127-.684-.2-.4-.3-.622-.38-.543.091-.764,0-.387-.314-.605-.408-.473-.111-.688-.211-.372-.325-.583-.432-.581.077-.79-.035-.194-.632-.4-.75-.46-.15-.662-.273S7.9,59.532,7.7,59.4s-.532-.058-.727-.191-.3-.4-.492-.539-.386-.281-.576-.424-.515-.117-.7-.264-.344-.339-.526-.49-.371-.3-.549-.459-.48-.182-.655-.339-.034-.67-.2-.83-.532-.133-.7-.3-.287-.4-.452-.561-.256-.417-.416-.585-.362-.316-.518-.486-.569-.135-.721-.306S.332,53.168.186,53c.079.221.141.407.233.633s.194.432.3.653.327.366.436.584,0,.532.119.745.374.335.5.544-.011.563.116.769.422.3.554.5.074.526.211.725.544.2.685.4.343.335.487.529-.018.612.13.8.587.144.738.332.277.386.43.572.067.566.223.749.441.251.6.433.426.257.587.437.293.375.456.552.366.309.532.484.125.539.293.713.563.116.732.287.128.546.3.715.533.138.705.306.3.376.473.542.342.332.517.5.118.576.295.738.623.027.8.188.214.477.393.637.474.18.654.338.187.51.369.666.314.366.5.52.486.162.67.316.276.414.461.566.356.318.542.469.36.315.547.465.553.07.741.218.216.5.405.646.327.359.518.505.639-.053.831.091.265.441.457.584.324.367.517.509.454.188.648.329.449.194.644.334.313.384.509.522.384.285.581.422.281.435.479.571.568.018.766.153.272.452.472.586.522.081.722.213.4.258.6.39.289.434.491.564.487.128.689.258.3.424.5.552.5.108.7.234.382.292.586.418.35.346.555.47.395.274.6.4.511.078.717.2.312.416.519.537.575-.035.783.085.371.314.58.433.3.453.505.57.441.2.651.312.487.111.7.226.491.1.7.216.4.264.614.377.368.332.58.443.367.338.58.448.483.113.7.222.52.036.735.144.286.5.5.609.406.267.622.373.524.022.741.126.5.061.72.163.358.368.576.47.528,0,.747.1.336.421.555.519.391.307.611.4.551-.059.772.037.452.164.673.258.407.271.629.364.4.284.625.375.525-.015.748.075.439.2.662.285.406.282.63.369.382.348.607.433.531-.045.756.038.505.018.731.1.409.281.635.361.392.338.619.416.449.177.676.253.464.131.692.206.542-.115.771-.043.442.193.671.264.4.33.632.4.466.12.7.187.447.19.678.255.537-.138.769-.076.373.48.6.54.536-.15.769-.092.492.011.725.066.391.45.624.5.529-.163.764-.112.453.178.688.225.422.351.657.4.512-.119.748-.077.443.262.679.3.522-.218.758-.182.463.145.7.178.469.131.706.161.46.215.7.242.5-.175.74-.152.481,0,.718.022.458.314.695.33.487-.047.725-.035.482-.032.72-.023.477.146.715.15.479.046.715.046.48-.273.719-.277.479-.05.718-.058.488.143.727.13.484.007.722-.011.494.092.731.07.484-.041.721-.068.468-.165.7-.2.437-.341.673-.377.508.14.743.1.456-.182.691-.227.436-.253.67-.3.521.14.753.086.5.037.736-.021.379-.452.609-.514.437-.206.667-.272.508.036.736-.035.543.118.77.043.455-.163.68-.242.381-.362.605-.446.468-.117.69-.2.49-.074.71-.165.376-.344.595-.439.467-.131.684-.23.376-.327.591-.43.459-.149.673-.255.37-.327.582-.437.593.095.8-.018.406-.264.614-.381.246-.537.453-.657.577.034.782-.089.29-.446.493-.572.458-.171.659-.3.442-.2.642-.332.253-.482.451-.616.58,0,.775-.14.362-.322.556-.461.326-.367.518-.509.525-.1.715-.245.112-.642.3-.788.6-.008.79-.156.207-.508.392-.658.3-.383.487-.536.406-.258.589-.412.593-.043.774-.2.146-.563.326-.72.466-.195.644-.355.273-.412.449-.573.548-.112.723-.275.2-.49.373-.653.413-.261.586-.426.317-.361.489-.527.362-.318.534-.485.348-.333.518-.5.454-.227.624-.4.058-.621.227-.791.62-.064.788-.235.212-.466.379-.637.407-.277.573-.449.4-.287.561-.46.108-.563.273-.736.216-.458.38-.632.627-.068.791-.241.226-.449.39-.622.436-.25.6-.423.153-.517.317-.69.336-.343.5-.516.408-.276.572-.448.392-.29.556-.461.334-.345.5-.516.106-.567.271-.736.343-.338.509-.507.449-.231.616-.4.541-.133.71-.3.215-.464.385-.627.3-.375.475-.537.246-.441.419-.6.318-.366.494-.522.386-.29.565-.441.37-.31.552-.457.521-.117.706-.26.286-.419.476-.557.535-.071.73-.2.225-.537.424-.659.485-.129.689-.24.513-.042.723-.143.334-.425.551-.511.415-.293.638-.362.5-.011.733-.06.49.046.723.02.467-.215.7-.215c.258,0,.507.246.755.257s.5.068.747.09.547-.294.792-.259.508.111.751.16.5.143.738.206.488.165.723.245.463.223.693.318.392.35.615.462.479.063.694.191c.066-.227.259-.373.322-.619.06-.23.071-.483.127-.73s.052-.485.1-.734-.067-.5-.025-.752.405-.427.441-.676-.2-.518-.172-.767.137-.473.162-.722.023-.486.043-.736.131-.48.147-.73-.181-.5-.17-.748.152-.483.159-.734-.141-.491-.138-.743.155-.487.156-.73-.1-.489-.1-.732-.106-.488-.107-.73.148-.488.146-.73-.1-.487-.1-.728.351-.493.347-.734-.281-.482-.286-.723-.141-.482-.148-.722.055-.492.048-.734-.016-.488-.024-.728-.026-.486-.036-.726.222-.495.212-.733.147-.5.135-.736-.45-.463-.462-.7.115-.4.1-.633c-.209.139-.455.033-.67.151s-.287.547-.512.646-.493.144-.728.219-.521-.016-.764.035a6.909,6.909,0,0,1-.738.051,7.105,7.105,0,0,1-.733.024c-.241,0-.469-.062-.7-.077s-.508.28-.74.249-.491-.034-.721-.081-.429-.283-.656-.346-.384-.342-.606-.421-.569.157-.786.063-.442-.2-.653-.3-.41-.251-.615-.371-.212-.546-.41-.678-.458-.154-.649-.3-.515-.106-.7-.257-.222-.468-.4-.625-.567-.08-.741-.244-.342-.333-.511-.5-.039-.622-.2-.8-.393-.272-.553-.447-.359-.308-.516-.486-.483-.206-.637-.388.015-.628-.137-.812-.455-.235-.606-.42-.5-.2-.648-.384-.211-.434-.359-.621-.043-.566-.19-.753-.461-.239-.608-.427-.37-.307-.516-.494l-.438-.56c-.146-.187-.052-.563-.2-.752s-.312-.358-.46-.546S111.338,32.469,111.186,32.28Z" fill="rgb(100,194,161)"/></g></g></g></g>
              </svg>