<?xml version="1.0" encoding="UTF-8" standalone="no"?>
<!DOCTYPE svg PUBLIC "-//W3C//DTD SVG 1.1//EN" "http://www.w3.org/Graphics/SVG/1.1/DTD/svg11.dtd">
<svg version="1.1" xmlns="http://www.w3.org/2000/svg" xmlns:xlink="http://www.w3.org/1999/xlink" preserveAspectRatio="xMidYMid meet" viewBox="0 0 640 640" width="640" height="640"><defs><path d="M148.77 70.46L154.31 71.02L159.79 71.8L165.2 72.8L170.53 74L175.78 75.41L180.94 77.01L186.02 78.82L191 80.81L195.88 82.99L200.67 85.36L205.34 87.9L209.91 90.61L214.36 93.5L218.68 96.54L222.89 99.75L226.96 103.12L230.9 106.63L234.71 110.29L238.37 114.1L241.88 118.04L245.25 122.11L248.46 126.32L251.5 130.64L254.39 135.09L257.1 139.66L259.64 144.33L262.01 149.12L264.19 154L266.18 158.98L267.99 164.06L269.59 169.22L271 174.47L272.2 179.8L273.2 185.21L273.98 190.69L274.54 196.23L274.89 201.84L275 207.5L274.89 213.16L274.54 218.77L273.98 224.31L273.2 229.79L272.2 235.2L271 240.53L269.59 245.78L267.99 250.94L266.18 256.02L264.19 261L262.01 265.88L259.64 270.67L257.1 275.34L254.39 279.91L251.5 284.36L248.46 288.68L245.25 292.89L241.88 296.96L238.37 300.9L234.71 304.71L230.9 308.37L226.96 311.88L222.89 315.25L218.68 318.46L214.36 321.5L209.91 324.39L205.34 327.1L200.67 329.64L195.88 332.01L191 334.19L186.02 336.18L180.94 337.99L175.78 339.59L170.53 341L165.2 342.2L159.79 343.2L154.31 343.98L148.77 344.54L143.16 344.89L137.5 345L131.84 344.89L126.23 344.54L120.69 343.98L115.21 343.2L109.8 342.2L104.47 341L99.22 339.59L94.06 337.99L88.98 336.18L84 334.19L79.12 332.01L74.33 329.64L69.66 327.1L65.09 324.39L60.64 321.5L56.32 318.46L52.11 315.25L48.04 311.88L44.1 308.37L40.29 304.71L36.63 300.9L33.12 296.96L29.75 292.89L26.54 288.68L23.5 284.36L20.61 279.91L17.9 275.34L15.36 270.67L12.99 265.88L10.81 261L8.82 256.02L7.01 250.94L5.41 245.78L4 240.53L2.8 235.2L1.8 229.79L1.02 224.31L0.46 218.77L0.11 213.16L0 207.5L0.11 201.84L0.46 196.23L1.02 190.69L1.8 185.21L2.8 179.8L4 174.47L5.41 169.22L7.01 164.06L8.82 158.98L10.81 154L12.99 149.12L15.36 144.33L17.9 139.66L20.61 135.09L23.5 130.64L26.54 126.32L29.75 122.11L33.12 118.04L36.63 114.1L40.29 110.29L44.1 106.63L48.04 103.12L52.11 99.75L56.32 96.54L60.64 93.5L65.09 90.61L69.66 87.9L74.33 85.36L79.12 82.99L84 80.81L88.98 78.82L94.06 77.01L99.22 75.41L104.47 74L109.8 72.8L115.21 71.8L120.69 71.02L126.23 70.46L131.84 70.11L137.5 70L143.16 70.11L148.77 70.46ZM128.89 102.85L124.66 103.28L120.48 103.88L116.35 104.63L112.28 105.55L108.27 106.63L104.33 107.86L100.45 109.23L96.65 110.76L92.92 112.42L89.26 114.23L85.69 116.17L82.21 118.24L78.81 120.44L75.51 122.77L72.29 125.22L69.18 127.79L66.17 130.47L63.27 133.27L60.47 136.17L57.79 139.18L55.22 142.29L52.77 145.51L50.44 148.81L48.24 152.21L46.17 155.69L44.23 159.26L42.42 162.92L40.76 166.65L39.23 170.45L37.86 174.33L36.63 178.27L35.55 182.28L34.63 186.35L33.88 190.48L33.28 194.66L32.85 198.89L32.59 203.17L32.5 207.5L32.59 211.83L32.85 216.11L33.28 220.34L33.88 224.52L34.63 228.65L35.55 232.72L36.63 236.73L37.86 240.67L39.23 244.55L40.76 248.35L42.42 252.08L44.23 255.74L46.17 259.31L48.24 262.79L50.44 266.19L52.77 269.49L55.22 272.71L57.79 275.82L60.47 278.83L63.27 281.73L66.17 284.53L69.18 287.21L72.29 289.78L75.51 292.23L78.81 294.56L82.21 296.76L85.69 298.83L89.26 300.77L92.92 302.58L96.65 304.24L100.45 305.77L104.33 307.14L108.27 308.37L112.28 309.45L116.35 310.37L120.48 311.12L124.66 311.72L128.89 312.15L133.17 312.41L137.5 312.5L141.83 312.41L146.11 312.15L150.34 311.72L154.52 311.12L158.65 310.37L162.72 309.45L166.73 308.37L170.67 307.14L174.55 305.77L178.35 304.24L182.08 302.58L185.74 300.77L189.31 298.83L192.79 296.76L196.19 294.56L199.49 292.23L202.71 289.78L205.82 287.21L208.83 284.53L211.73 281.73L214.53 278.83L217.21 275.82L219.78 272.71L222.23 269.49L224.56 266.19L226.76 262.79L228.83 259.31L230.77 255.74L232.58 252.08L234.24 248.35L235.77 244.55L237.14 240.67L238.37 236.73L239.45 232.72L240.37 228.65L241.12 224.52L241.72 220.34L242.15 216.11L242.41 211.83L242.5 207.5L242.41 203.17L242.15 198.89L241.72 194.66L241.12 190.48L240.37 186.35L239.45 182.28L238.37 178.27L237.14 174.33L235.77 170.45L234.24 166.65L232.58 162.92L230.77 159.26L228.83 155.69L226.76 152.21L224.56 148.81L222.23 145.51L219.78 142.29L217.21 139.18L214.53 136.17L211.73 133.27L208.83 130.47L205.82 127.79L202.71 125.22L199.49 122.77L196.19 120.44L192.79 118.24L189.31 116.17L185.74 114.23L182.08 112.42L178.35 110.76L174.55 109.23L170.67 107.86L166.73 106.63L162.72 105.55L158.65 104.63L154.52 103.88L150.34 103.28L146.11 102.85L141.83 102.59L137.5 102.5L133.17 102.59L128.89 102.85Z" id="b42HWXVZz"></path><path d="M209.78 324.01L322.19 588.25L285.69 604.31L176.93 340.07L209.78 324.01Z" id="a7KTv9OW4"></path><path d="M320 70L640 70L640 153.94L320 153.94L320 70Z" id="a3TTgla968"></path><path d="M320 207.5L640 207.5L640 291.44L320 291.44L320 207.5Z" id="d1Jw36BraR"></path><path d="M320 345L640 345L640 428.94L320 428.94L320 345Z" id="d3tcCb2f1"></path><path d="M640 486.64L640 570.58L353.58 570.58L320 486.64L640 486.64Z" id="a2Y1O3ijQF"></path><path d="M264.16 345L300.29 428.94L320 428.94L320 345L264.16 345Z" id="e5BfPC30Lg"></path><path d="M320 291.44L320 207.5L307.59 207.5L307.59 226.79L305.4 243.58L301.75 258.18L297.37 269.12L292.08 282.99L285.69 291.44L320 291.44Z" id="mB35BdK5I"></path><path d="M330.83 153.94L306.01 153.94L302.91 138.47L300.17 129.71L296.52 121.68L292.14 111.97L285.83 102.5L273.17 88.1L258.57 78.61L240.92 70L330.83 70L330.83 153.94Z" id="c2ad8iauJ5"></path></defs><g><g><g><use xlink:href="#b42HWXVZz" opacity="1" fill="#ffffff" fill-opacity="1"></use></g><g><use xlink:href="#a7KTv9OW4" opacity="1" fill="#ffffff" fill-opacity="1"></use><g><use xlink:href="#a7KTv9OW4" opacity="1" fill-opacity="0" stroke="#000000" stroke-width="0" stroke-opacity="1"></use></g></g><g><use xlink:href="#a3TTgla968" opacity="1" fill="#ffffff" fill-opacity="1"></use></g><g><use xlink:href="#d1Jw36BraR" opacity="1" fill="#ffffff" fill-opacity="1"></use></g><g><use xlink:href="#d3tcCb2f1" opacity="1" fill="#ffffff" fill-opacity="1"></use></g><g><use xlink:href="#a2Y1O3ijQF" opacity="1" fill="#ffffff" fill-opacity="1"></use><g><use xlink:href="#a2Y1O3ijQF" opacity="1" fill-opacity="0" stroke="#000000" stroke-width="0" stroke-opacity="1"></use></g></g><g><use xlink:href="#e5BfPC30Lg" opacity="1" fill="#ffffff" fill-opacity="1"></use><g><use xlink:href="#e5BfPC30Lg" opacity="1" fill-opacity="0" stroke="#000000" stroke-width="0" stroke-opacity="1"></use></g></g><g><use xlink:href="#mB35BdK5I" opacity="1" fill="#ffffff" fill-opacity="1"></use><g><use xlink:href="#mB35BdK5I" opacity="1" fill-opacity="0" stroke="#000000" stroke-width="0" stroke-opacity="1"></use></g></g><g><use xlink:href="#c2ad8iauJ5" opacity="1" fill="#ffffff" fill-opacity="1"></use><g><use xlink:href="#c2ad8iauJ5" opacity="1" fill-opacity="0" stroke="#000000" stroke-width="0" stroke-opacity="1"></use></g></g></g></g></svg>