<?xml version="1.0" encoding="UTF-8"?>
<svg xmlns="http://www.w3.org/2000/svg" xmlns:xlink="http://www.w3.org/1999/xlink" width="64pt" height="64pt" viewBox="0 0 64 64" version="1.1">
<g id="surface3075254">
<path style=" stroke:none;fill-rule:nonzero;fill:rgb(17.647059%,21.960784%,22.745098%);fill-opacity:1;" d="M 36 4 C 31.609375 4 28 7.609375 28 12 L 12 12 L 12 24 C 7.609375 24 4 27.609375 4 32 C 4 36.390625 7.609375 40 12 40 L 12 52 L 28 52 C 28 56.390625 31.609375 60 36 60 C 40.390625 60 44 56.390625 44 52 L 60 52 L 60 36 L 56 36 C 53.765625 36 52 34.234375 52 32 C 52 29.765625 53.765625 28 56 28 L 60 28 L 60 12 L 44 12 C 44 7.609375 40.390625 4 36 4 Z M 36 8 C 38.234375 8 40 9.765625 40 12 L 40 16 L 56 16 L 56 24 C 51.609375 24 48 27.609375 48 32 C 48 36.390625 51.609375 40 56 40 L 56 48 L 40 48 L 40 52 C 40 54.234375 38.234375 56 36 56 C 33.765625 56 32 54.234375 32 52 L 32 48 L 16 48 L 16 36 L 12 36 C 9.765625 36 8 34.234375 8 32 C 8 29.765625 9.765625 28 12 28 L 16 28 L 16 16 L 32 16 L 32 12 C 32 9.765625 33.765625 8 36 8 Z M 36 8 "/>
</g>
</svg>
