<?xml version="1.0" encoding="UTF-8" standalone="no"?>
<!DOCTYPE svg PUBLIC "-//W3C//DTD SVG 1.1//EN" "http://www.w3.org/Graphics/SVG/1.1/DTD/svg11.dtd">
<svg version="1.1" xmlns="http://www.w3.org/2000/svg" xmlns:xlink="http://www.w3.org/1999/xlink" preserveAspectRatio="xMidYMid meet" viewBox="0 0 640 640" width="640" height="640"><defs><path d="M570 320C570 457.98 457.98 570 320 570C182.02 570 70 457.98 70 320C70 182.02 182.02 70 320 70C457.98 70 570 182.02 570 320Z" id="i4yO0To4J6"></path><path d="M270 0L370 0L370 640L270 640L270 0Z" id="ahETHUWfM"></path><path d="M520 320C520 430.38 430.38 520 320 520C209.62 520 120 430.38 120 320C120 209.62 209.62 120 320 120C430.38 120 520 209.62 520 320Z" id="b18ry3Y7lI"></path><path d="M361.13 402.6L361.15 402.62L277.12 477.66L121.46 338.65L205.49 263.61L277.1 327.55L490.71 136.79L574.74 211.83L361.13 402.6Z" id="c1MOz0LIBo"></path></defs><g><g><g><use xlink:href="#i4yO0To4J6" opacity="1" fill="#003459" fill-opacity="1"></use></g><g><use xlink:href="#ahETHUWfM" opacity="1" fill="#003459" fill-opacity="1"></use></g><g><use xlink:href="#b18ry3Y7lI" opacity="1" fill="#ffffff" fill-opacity="1"></use></g><g><use xlink:href="#c1MOz0LIBo" opacity="1" fill="#25b100" fill-opacity="1"></use></g></g></g></svg>