<?xml version="1.0" encoding="UTF-8" standalone="no"?>
<!DOCTYPE svg PUBLIC "-//W3C//DTD SVG 1.1//EN" "http://www.w3.org/Graphics/SVG/1.1/DTD/svg11.dtd">
<svg version="1.1" xmlns="http://www.w3.org/2000/svg" xmlns:xlink="http://www.w3.org/1999/xlink" preserveAspectRatio="xMidYMid meet" viewBox="0 0 640 640" width="640" height="640"><defs><path d="M517.57 17.57C506.32 6.32 491.06 0 475.15 0C453.63 0 281.51 0 260 0C226.86 0 200 26.86 200 60C200 64 200 84 200 120C140 120 106.67 120 100 120C66.86 120 40 146.86 40 180C40 220 40 540 40 580C40 613.14 66.86 640 100 640C128 640 352 640 380 640C413.14 640 440 613.14 440 580C440 576 440 556 440 520C500 520 533.33 520 540 520C573.14 520 600 493.14 600 460C600 426.49 600 158.37 600 124.85C600 108.94 593.68 93.68 582.43 82.43C582.43 82.43 524.06 24.06 517.57 17.57ZM107.5 580C103.36 580 100 576.64 100 572.5C100 534 100 226 100 187.5C100 183.36 103.36 180 107.5 180C113.67 180 144.5 180 200 180C200 348 200 441.33 200 460C200 493.14 226.86 520 260 520C268 520 308 520 380 520C380 551.5 380 569 380 572.5C380 576.64 376.64 580 372.5 580C319.5 580 134 580 107.5 580ZM267.5 460C263.36 460 260 456.64 260 452.5C260 414 260 106 260 67.5C260 63.36 263.36 60 267.5 60C276.33 60 320.5 60 400 60C400 126 400 162.67 400 170C400 186.57 413.43 200 430 200C437.33 200 474 200 540 200C540 351.5 540 435.67 540 452.5C540 456.64 536.64 460 532.5 460C479.5 460 294 460 267.5 460ZM460 140L460 60C467.22 60 471.24 60 472.04 60C474.03 60 475.94 60.79 477.34 62.2C483.39 68.24 531.76 116.61 537.8 122.66C539.21 124.06 540 125.97 540 127.96C540 128.76 540 132.78 540 140L460 140Z" id="eqYiLC6ZO"></path></defs><g><g><g><use xlink:href="#eqYiLC6ZO" opacity="1" fill="#003459" fill-opacity="1"></use><g><use xlink:href="#eqYiLC6ZO" opacity="1" fill-opacity="0" stroke="#000000" stroke-width="1" stroke-opacity="0"></use></g></g></g></g></svg>