<?xml version="1.0" encoding="UTF-8" standalone="no"?>
<!DOCTYPE svg PUBLIC "-//W3C//DTD SVG 1.1//EN" "http://www.w3.org/Graphics/SVG/1.1/DTD/svg11.dtd">
<svg version="1.1" xmlns="http://www.w3.org/2000/svg" xmlns:xlink="http://www.w3.org/1999/xlink" preserveAspectRatio="xMidYMid meet" viewBox="0 0 640 640" width="640" height="640"><defs><path d="M564.32 0C564.32 0 564.32 0 564.32 0C564.32 307.2 564.32 477.87 564.32 512C564.32 512 564.32 512 564.32 512C257.12 512 86.45 512 52.32 512C52.32 512 52.32 512 52.32 512C52.32 204.8 52.32 34.13 52.32 0C52.32 0 52.32 0 52.32 0C359.52 0 530.19 0 564.32 0Z" id="a2a2zNkxc"></path><path d="M586.67 53.33L453.33 53.33L415.23 0L224.77 0L186.67 53.33L53.33 53.33L53.33 106.67L586.67 106.67L586.67 53.33ZM106.67 571.43C107.5 609.95 139.27 640.57 177.79 639.99C206.23 639.99 433.77 639.99 462.21 639.99C500.73 640.57 532.5 609.95 533.33 571.43C533.33 544 533.33 406.86 533.33 160L106.67 160C106.67 379.43 106.67 516.57 106.67 571.43Z" id="fjRoMqufE"></path></defs><g><g><g><use xlink:href="#a2a2zNkxc" opacity="1" fill="#000000" fill-opacity="0"></use><g><use xlink:href="#a2a2zNkxc" opacity="1" fill-opacity="0" stroke="#000000" stroke-width="1" stroke-opacity="0"></use></g></g><g><use xlink:href="#fjRoMqufE" opacity="1" fill="#ffffff" fill-opacity="1"></use><g><use xlink:href="#fjRoMqufE" opacity="1" fill-opacity="0" stroke="#000000" stroke-width="1" stroke-opacity="0"></use></g></g></g></g></svg>