<?xml version="1.0" encoding="UTF-8" standalone="no"?>
<!DOCTYPE svg PUBLIC "-//W3C//DTD SVG 1.1//EN" "http://www.w3.org/Graphics/SVG/1.1/DTD/svg11.dtd">
<svg version="1.1" xmlns="http://www.w3.org/2000/svg" xmlns:xlink="http://www.w3.org/1999/xlink" preserveAspectRatio="xMidYMid meet" viewBox="0 0 782 338" width="782" height="338"><defs><path d="M217.47 83.57L217.47 81.33L149.53 81.33L151.63 83.57L217.47 83.57Z" id="b8bqdpwOv7"></path><path d="M217.47 93.99L217.47 91.01L157.21 91.01L159.31 93.99L217.47 93.99Z" id="e3rhQ6i3T"></path><path d="M217.47 104.42L217.47 101.44L165.24 101.44L167.33 104.42L217.47 104.42Z" id="e21LP5Qszr"></path><path d="M217.47 114.1L217.47 111.87L172.92 111.87L175.01 114.1L217.47 114.1Z" id="b6cuLjGw5"></path><path d="M217.47 124.53L217.47 121.55L180.94 121.55L183.04 124.53L217.47 124.53Z" id="bzYyxCK9"></path><path d="M217.47 134.95L217.47 131.97L188.62 131.97L190.72 134.95L217.47 134.95Z" id="ar5RiegW3"></path><path d="M217.47 143.89L217.47 142.4L196.65 142.4L198.74 143.89L217.47 143.89Z" id="b1BzG6R6ZA"></path><path d="M217.47 154.32L217.47 151.34L204.33 151.34L206.42 154.32L217.47 154.32Z" id="dd6wo41KE"></path><path d="M481.35 78.1C481.35 73.91 484.75 70.51 488.93 70.51C493.12 70.51 496.53 73.91 496.53 78.1C496.53 82.28 493.12 85.69 488.93 85.69C484.75 85.69 481.35 82.28 481.35 78.1ZM482.39 78.1C482.39 81.7 485.33 84.64 488.93 84.64C492.54 84.64 495.48 81.7 495.48 78.1C495.48 74.49 492.54 71.55 488.93 71.55C485.33 71.55 482.39 74.49 482.39 78.1Z" id="a2KDIhN1P"></path><path d="M476.9 78.1C476.9 71.46 482.3 66.06 488.93 66.06C495.57 66.06 500.97 71.46 500.97 78.1C500.97 84.73 495.57 90.13 488.93 90.13C482.3 90.13 476.9 84.73 476.9 78.1ZM477.95 78.1C477.95 84.15 482.87 89.08 488.93 89.08C494.99 89.08 499.92 84.16 499.92 78.1C499.93 72.04 494.99 67.1 488.93 67.1C482.87 67.1 477.95 72.04 477.95 78.1Z" id="b2ccveYgwG"></path><path d="M471.9 78.1C471.9 68.7 479.54 61.06 488.93 61.06C498.33 61.06 505.97 68.7 505.97 78.1C505.97 87.49 498.33 95.13 488.93 95.13C479.54 95.13 471.9 87.49 471.9 78.1ZM472.95 78.1C472.95 86.91 480.12 94.08 488.93 94.08C497.75 94.08 504.92 86.91 504.92 78.1C504.92 69.28 497.75 62.1 488.93 62.1C480.12 62.1 472.95 69.28 472.95 78.1Z" id="afKIoJ6VB"></path><path d="M466.34 78.1C466.34 65.64 476.48 55.5 488.93 55.5C501.39 55.5 511.52 65.64 511.52 78.1C511.52 90.55 501.39 100.68 488.93 100.68C476.48 100.68 466.34 90.55 466.34 78.1ZM467.39 78.1C467.39 89.97 477.06 99.64 488.94 99.64C500.82 99.64 510.48 89.98 510.48 78.1C510.48 66.22 500.81 56.55 488.93 56.55C477.05 56.55 467.39 66.22 467.39 78.1Z" id="b15HcWZhSB"></path><path d="M461.35 78.1C461.35 62.88 473.72 50.5 488.93 50.5C504.15 50.5 516.52 62.88 516.52 78.1C516.52 93.31 504.15 105.68 488.93 105.68C473.72 105.68 461.35 93.31 461.35 78.1ZM462.39 78.1C462.39 92.73 474.3 104.64 488.93 104.64C503.57 104.64 515.48 92.73 515.48 78.1C515.48 63.46 503.57 51.55 488.93 51.55C474.3 51.55 462.39 63.46 462.39 78.1Z" id="a43MelkqKB"></path><path d="M538.99 50.2C570.62 53.8 578.81 59.01 597.22 51.64C629.58 38.7 553.15 11.71 544.74 11.38C381.21 4.98 277.57 53.64 115.76 29.18C119.67 43.92 123.57 58.67 127.48 73.41C124.97 65.82 131.73 57.65 139.51 55.81C147.29 53.97 143.63 85.41 149.47 79.95C180.81 50.7 257.11 139.72 350.01 163.51C368.13 168.15 391.07 163.33 399.5 157.34C407.93 151.34 408.77 136.11 403.06 127.49C401.13 124.57 398.19 122.21 397.23 118.84C396.03 114.58 398.49 110.06 401.79 107.11C412.68 97.39 429.83 100.78 443.1 106.88C456.37 112.97 469.72 121.41 484.26 120.07C498.8 118.73 517.42 109.16 494.89 81.75C455.32 33.58 532.46 49.46 538.99 50.2Z" id="bc4VYrhO7"></path><path d="M693.76 80.43C693.45 80.5 693.27 80.81 693.34 81.11C693.42 81.41 693.73 81.6 694.03 81.53C694.03 81.53 694.03 81.53 694.03 81.53C694.33 81.45 694.52 81.15 694.44 80.84C694.44 80.84 694.44 80.84 694.44 80.84C694.19 80.52 693.96 80.38 693.76 80.43ZM659.19 33.85C659.19 33.85 659.19 33.85 659.19 33.85C658.94 33.69 658.61 33.76 658.45 34C658.44 34.02 658.43 34.04 658.42 34.07C658.25 34.33 658.33 34.67 658.58 34.84C658.86 35 659.21 34.92 659.38 34.64C659.38 34.64 659.38 34.64 659.38 34.64L659.38 34.64C659.43 34.22 659.37 33.96 659.19 33.85ZM675.74 58.36C675.55 58.1 675.18 58.05 674.92 58.25C674.66 58.44 674.61 58.81 674.81 59.07C675.02 59.31 675.37 59.36 675.63 59.18C675.87 58.97 675.92 58.62 675.74 58.36ZM747.96 34.97C747.66 34.47 747.02 34.31 746.52 34.61C746.51 34.62 746.49 34.63 746.48 34.64C745.98 34.97 745.84 35.65 746.17 36.15C746.49 36.65 747.15 36.8 747.65 36.48C747.65 36.48 747.65 36.48 747.65 36.48C748.07 35.81 748.17 35.31 747.96 34.97ZM725.95 49.27C725.62 48.78 724.96 48.65 724.46 48.97C723.96 49.29 723.81 49.95 724.13 50.45C724.13 50.45 724.13 50.45 724.13 50.45C724.48 50.95 725.15 51.09 725.67 50.79C726.17 50.45 726.29 49.77 725.95 49.27ZM703.96 63.62C703.95 63.61 703.94 63.6 703.94 63.59C703.64 63.09 703 62.93 702.5 63.22C702.48 63.23 702.47 63.24 702.45 63.25C701.96 63.6 701.82 64.27 702.12 64.79C702.46 65.28 703.13 65.42 703.63 65.09C704.13 64.77 704.28 64.11 703.96 63.62ZM755.94 90.94C755.36 91.07 754.99 91.64 755.12 92.23C755.25 92.8 755.8 93.16 756.37 93.05C756.96 92.92 757.34 92.35 757.22 91.76C757.22 91.76 757.22 91.76 757.22 91.76C756.76 91.13 756.33 90.86 755.94 90.94ZM730.13 95.74C729.55 95.87 729.18 96.44 729.31 97.03C729.43 97.6 729.99 97.96 730.56 97.85C731.14 97.73 731.52 97.15 731.41 96.56C731.41 96.56 731.41 96.56 731.41 96.56C730.94 95.93 730.52 95.66 730.13 95.74ZM702.71 6.39C702.23 6.05 701.57 6.17 701.23 6.65C701.23 6.65 701.23 6.66 701.23 6.66C700.87 7.11 700.95 7.76 701.41 8.12C701.43 8.13 701.45 8.15 701.48 8.17C701.98 8.49 702.65 8.37 703.01 7.9C703.34 7.39 703.21 6.72 702.71 6.39ZM687.86 28.01C687.36 27.68 686.69 27.81 686.35 28.31C686.01 28.8 686.14 29.47 686.63 29.81C686.64 29.81 686.65 29.82 686.65 29.82C687.13 30.16 687.79 30.04 688.12 29.56C688.13 29.55 688.13 29.55 688.13 29.54C688.46 29.04 688.34 28.37 687.86 28.01ZM673.05 49.71C673.04 49.7 673.02 49.69 673.01 49.68C672.53 49.33 671.86 49.43 671.5 49.91C671.49 49.93 671.48 49.94 671.47 49.95C671.13 50.45 671.27 51.13 671.76 51.46C672.26 51.8 672.94 51.67 673.27 51.17C673.28 51.17 673.28 51.16 673.28 51.16C673.62 50.7 673.52 50.05 673.05 49.71ZM760.21 116.31C759.69 116.35 759.29 116.82 759.33 117.35C759.38 117.89 759.84 118.28 760.38 118.23C760.38 118.23 760.38 118.23 760.38 118.23C760.9 118.18 761.3 117.72 761.26 117.19C761.21 116.66 760.74 116.27 760.21 116.31ZM715.26 29.08C714.87 28.75 714.28 28.79 713.95 29.19C713.94 29.2 713.93 29.21 713.92 29.22C713.57 29.62 713.61 30.23 714.01 30.58C714.02 30.58 714.02 30.59 714.03 30.59C714.44 30.92 715.04 30.87 715.4 30.48C715.4 30.48 715.4 30.48 715.4 30.48C715.58 29.79 715.54 29.32 715.26 29.08ZM700.22 47.05C699.83 46.71 699.24 46.76 698.9 47.15C698.89 47.17 698.89 47.17 698.88 47.19C698.53 47.59 698.57 48.2 698.97 48.55C698.98 48.55 698.98 48.56 698.99 48.56C699.41 48.88 700.02 48.81 700.36 48.39C700.36 48.39 700.36 48.39 700.36 48.39C700.54 47.72 700.49 47.27 700.22 47.05ZM685.2 65.03C685.19 65.02 685.19 65.02 685.18 65.01C684.81 64.67 684.23 64.71 683.89 65.08C683.87 65.1 683.85 65.13 683.83 65.15C683.48 65.55 683.52 66.16 683.92 66.51C683.93 66.52 683.93 66.52 683.94 66.52C684.36 66.84 684.95 66.78 685.29 66.39C685.29 66.39 685.29 66.39 685.29 66.39C685.5 65.71 685.47 65.26 685.2 65.03ZM737.53 75.7C737.28 75.23 736.71 75.05 736.24 75.29C735.77 75.55 735.57 76.12 735.8 76.61C736.06 77.09 736.65 77.27 737.14 77.02C737.14 77.02 737.14 77.02 737.14 77.02C737.57 76.46 737.7 76.02 737.53 75.7ZM716.78 86.6C716.78 86.59 716.77 86.57 716.76 86.55C716.52 86.08 715.94 85.9 715.47 86.14C715 86.39 714.81 86.97 715.03 87.45C715.29 87.92 715.87 88.09 716.34 87.84C716.34 87.84 716.34 87.84 716.34 87.84C716.78 87.32 716.93 86.91 716.78 86.6ZM668.77 17.13C668.75 17.12 668.73 17.11 668.71 17.11C668.21 16.93 667.66 17.2 667.49 17.7C667.48 17.72 667.48 17.73 667.48 17.74C667.34 18.25 667.63 18.78 668.13 18.95C668.63 19.11 669.17 18.83 669.33 18.33C669.33 18.32 669.33 18.3 669.34 18.29C669.34 18.29 669.34 18.29 669.34 18.29C669.28 17.62 669.09 17.24 668.77 17.13ZM661.68 39.42C661.16 39.27 660.61 39.57 660.46 40.09C660.32 40.59 660.59 41.11 661.07 41.29C661.57 41.46 662.12 41.21 662.29 40.71C662.3 40.7 662.31 40.68 662.31 40.66C662.31 40.66 662.31 40.66 662.31 40.66C662.23 39.95 662.02 39.54 661.68 39.42ZM781.84 101.04C781.55 100.5 780.88 100.29 780.33 100.58C779.8 100.89 779.6 101.57 779.89 102.11C780.18 102.66 780.85 102.87 781.4 102.58C781.4 102.58 781.4 102.58 781.4 102.58C781.89 101.92 782.03 101.41 781.84 101.04ZM757.99 113.81C757.71 113.27 757.03 113.06 756.48 113.34C755.94 113.63 755.73 114.31 756.01 114.85C756.3 115.4 756.98 115.6 757.52 115.32C757.52 115.32 757.52 115.32 757.52 115.32C758.03 114.68 758.18 114.18 757.99 113.81ZM693.13 28.23C692.53 28.07 691.91 28.43 691.75 29.04C691.6 29.62 691.93 30.22 692.5 30.4C693.09 30.57 693.71 30.24 693.9 29.66C693.9 29.66 693.9 29.66 693.9 29.66C693.79 28.84 693.53 28.36 693.13 28.23ZM685.3 54.14C684.71 53.96 684.09 54.29 683.9 54.88C683.72 55.47 684.05 56.1 684.64 56.28C685.23 56.45 685.85 56.13 686.04 55.54C686.04 55.54 686.04 55.54 686.04 55.54C685.94 54.74 685.69 54.27 685.3 54.14ZM738.15 66.86C737.66 66.49 736.96 66.57 736.58 67.05C736.18 67.51 736.23 68.21 736.7 68.61C736.71 68.61 736.71 68.61 736.72 68.62C737.2 69.01 737.91 68.94 738.31 68.46C738.3 68.46 738.31 68.46 738.31 68.46C738.31 68.46 738.31 68.46 738.31 68.46C738.5 67.67 738.45 67.14 738.15 66.86ZM720.96 87.79C720.96 87.79 720.96 87.79 720.96 87.79C720.49 87.41 719.8 87.48 719.42 87.95C719.42 87.95 719.42 87.95 719.42 87.95C719.03 88.43 719.1 89.13 719.57 89.51C720.03 89.91 720.72 89.84 721.12 89.38C721.12 89.38 721.12 89.38 721.12 89.38C721.33 88.59 721.28 88.06 720.96 87.79ZM754.99 74.74C754.52 74.34 753.82 74.4 753.43 74.87C753.05 75.33 753.09 76.01 753.53 76.41C754 76.82 754.72 76.77 755.13 76.3C755.13 76.3 755.13 76.3 755.13 76.3C755.35 75.52 755.3 75 754.99 74.74ZM737.07 94.81C736.61 94.42 735.92 94.46 735.5 94.89C735.1 95.37 735.13 96.08 735.58 96.51C736.06 96.91 736.76 96.86 737.17 96.41C737.17 96.41 737.17 96.41 737.17 96.41C737.41 95.62 737.38 95.09 737.07 94.81ZM700.43 58.69C699.85 58.49 699.22 58.8 699.03 59.38C698.81 59.93 699.08 60.57 699.64 60.79C699.65 60.79 699.67 60.8 699.68 60.8C700.26 61.02 700.91 60.73 701.12 60.15C701.13 60.14 701.14 60.13 701.14 60.12C701.14 60.12 701.14 60.12 701.14 60.12C701.05 59.3 700.82 58.82 700.43 58.69Z" id="b6r6mGrVVQ"></path><path d="M591.02 77.83C591.02 73.87 594.24 70.65 598.2 70.65C602.16 70.65 605.38 73.87 605.38 77.83C605.38 81.79 602.16 85.01 598.2 85.01C594.24 85.01 591.02 81.79 591.02 77.83ZM592.06 77.83C592.06 81.21 594.82 83.97 598.2 83.97C601.58 83.97 604.34 81.21 604.34 77.83C604.34 74.44 601.58 71.69 598.2 71.69C594.82 71.69 592.06 74.45 592.06 77.83Z" id="c1K2EcfPP"></path><path d="M586.83 77.83C586.83 71.56 591.93 66.46 598.2 66.46C604.47 66.46 609.57 71.56 609.57 77.83C609.57 84.1 604.47 89.2 598.2 89.2C591.93 89.2 586.83 84.1 586.83 77.83ZM587.88 77.83C587.88 83.52 592.51 88.15 598.2 88.15C603.89 88.15 608.53 83.52 608.53 77.83C608.53 72.14 603.89 67.5 598.2 67.5C592.51 67.5 587.88 72.14 587.88 77.83Z" id="avTaZBVyh"></path><path d="M582.12 77.83C582.12 68.96 589.34 61.75 598.2 61.75C607.07 61.75 614.28 68.96 614.28 77.83C614.28 86.69 607.07 93.91 598.2 93.91C589.34 93.91 582.12 86.69 582.12 77.83ZM583.17 77.83C583.17 86.12 589.91 92.86 598.2 92.86C606.49 92.86 613.24 86.12 613.24 77.83C613.24 69.54 606.49 62.79 598.2 62.79C589.91 62.79 583.17 69.54 583.17 77.83Z" id="aqeB1YJPU"></path><path d="M576.89 77.83C576.89 66.08 586.45 56.51 598.2 56.51C609.95 56.51 619.51 66.08 619.51 77.83C619.51 89.58 609.95 99.14 598.2 99.14C586.45 99.14 576.89 89.58 576.89 77.83ZM577.93 77.83C577.93 89 587.03 98.09 598.2 98.09C609.38 98.09 618.47 89 618.47 77.83C618.47 66.65 609.38 57.56 598.2 57.56C587.03 57.56 577.93 66.65 577.93 77.83Z" id="acwdXxmKK"></path><path d="M572.18 77.83C572.18 63.48 583.85 51.81 598.2 51.81C612.55 51.81 624.22 63.48 624.22 77.83C624.22 92.18 612.55 103.85 598.2 103.85C583.85 103.85 572.18 92.18 572.18 77.83ZM573.22 77.83C573.22 91.6 584.43 102.81 598.2 102.81C611.97 102.81 623.18 91.6 623.18 77.83C623.18 64.05 611.97 52.85 598.2 52.85C584.43 52.85 573.22 64.05 573.22 77.83Z" id="i5D9Rtg1p"></path><path d="M566.17 62.02C566.17 58.06 569.4 54.84 573.35 54.84C577.31 54.84 580.54 58.06 580.54 62.02C580.54 65.98 577.31 69.2 573.35 69.2C569.4 69.2 566.17 65.98 566.17 62.02ZM567.22 62.02C567.22 65.4 569.97 68.15 573.35 68.15C576.74 68.15 579.49 65.4 579.49 62.02C579.49 58.63 576.74 55.88 573.35 55.88C569.97 55.88 567.22 58.63 567.22 62.02Z" id="dGNX5B8NW"></path><path d="M561.99 62.02C561.99 55.75 567.09 50.65 573.35 50.65C579.62 50.65 584.72 55.75 584.72 62.02C584.72 68.28 579.62 73.38 573.35 73.38C567.09 73.38 561.99 68.28 561.99 62.02ZM563.03 62.02C563.03 67.71 567.66 72.34 573.35 72.34C579.05 72.34 583.68 67.71 583.68 62.02C583.68 56.32 579.05 51.69 573.35 51.69C567.66 51.69 563.03 56.32 563.03 62.02Z" id="c1qIlgtGRq"></path><path d="M557.28 62.02C557.28 53.15 564.49 45.94 573.35 45.94C582.22 45.94 589.43 53.15 589.43 62.02C589.43 70.88 582.22 78.09 573.35 78.09C564.49 78.09 557.28 70.88 557.28 62.02ZM558.32 62.02C558.32 70.31 565.07 77.05 573.35 77.05C581.64 77.05 588.39 70.31 588.39 62.02C588.39 53.73 581.64 46.98 573.35 46.98C565.07 46.98 558.32 53.73 558.32 62.02Z" id="e107BIP1g2"></path><path d="M552.04 62.02C552.04 50.26 561.6 40.7 573.35 40.7C585.11 40.7 594.67 50.26 594.67 62.02C594.67 73.77 585.11 83.33 573.35 83.33C561.6 83.33 552.04 73.77 552.04 62.02ZM553.09 62.02C553.09 73.19 562.18 82.28 573.35 82.28C584.53 82.28 593.62 73.19 593.62 62.02C593.62 50.84 584.53 41.75 573.35 41.75C562.18 41.75 553.09 50.84 553.09 62.02Z" id="d3s1OwzsX"></path><path d="M547.33 62.02C547.33 47.67 559 35.99 573.35 35.99C587.7 35.99 599.38 47.67 599.38 62.02C599.38 76.37 587.7 88.04 573.35 88.04C559 88.04 547.33 76.37 547.33 62.02ZM548.38 62.02C548.38 75.79 559.58 86.99 573.35 86.99C587.13 86.99 598.33 75.79 598.33 62.02C598.33 48.24 587.13 37.04 573.35 37.04C559.58 37.04 548.38 48.24 548.38 62.02Z" id="gCOTLN0w"></path><path d="M349.74 120.73C349.74 120.73 349.74 120.73 349.74 120.73C345.6 114.25 343.3 110.65 342.84 109.94C342.84 109.94 342.84 109.94 342.84 109.94C349.31 105.79 352.91 103.49 353.63 103.03C353.63 103.03 353.63 103.03 353.63 103.03C357.77 109.5 360.07 113.1 360.53 113.82C360.53 113.82 360.53 113.82 360.53 113.82C354.06 117.96 350.46 120.27 349.74 120.73Z" id="f6rGCbZGnf"></path><path d="M442.97 206.4C442.97 206.4 442.97 206.4 442.97 206.4C440.53 202.58 439.17 200.46 438.9 200.03C438.9 200.03 438.9 200.03 438.9 200.03C442.72 197.59 444.84 196.23 445.26 195.96C445.26 195.96 445.26 195.96 445.26 195.96C447.71 199.78 449.07 201.9 449.34 202.32C449.34 202.32 449.34 202.32 449.34 202.32C445.52 204.77 443.4 206.13 442.97 206.4Z" id="acLwU9WvQj"></path><path d="M560.47 338C560.47 338 560.47 338 560.47 338C558.02 334.18 556.66 332.06 556.39 331.63C556.39 331.63 556.39 331.63 556.39 331.63C560.21 329.19 562.34 327.83 562.76 327.56C562.76 327.56 562.76 327.56 562.76 327.56C565.21 331.38 566.56 333.5 566.84 333.92C566.84 333.92 566.84 333.92 566.84 333.92C563.02 336.37 560.89 337.73 560.47 338Z" id="h2xOAHZll4"></path><path d="M124.57 67.98C124.57 67.98 124.57 67.98 124.57 67.98C120.42 61.51 118.12 57.91 117.66 57.19C117.66 57.19 117.66 57.19 117.66 57.19C124.14 53.04 127.73 50.74 128.45 50.28C128.45 50.28 128.45 50.28 128.45 50.28C132.6 56.76 134.9 60.35 135.36 61.07C135.36 61.07 135.36 61.07 135.36 61.07C128.88 65.22 125.29 67.52 124.57 67.98Z" id="d7SsquO5K"></path><path d="M217.79 153.65C217.79 153.65 217.79 153.65 217.79 153.65C215.35 149.83 213.99 147.71 213.72 147.29C213.72 147.29 213.72 147.29 213.72 147.29C217.54 144.84 219.66 143.48 220.09 143.21C220.09 143.21 220.09 143.21 220.09 143.21C222.53 147.03 223.89 149.15 224.16 149.58C224.16 149.58 224.16 149.58 224.16 149.58C220.34 152.02 218.22 153.38 217.79 153.65Z" id="a1kVhs5ye7"></path><path d="M335.29 285.25C335.29 285.25 335.29 285.25 335.29 285.25C332.85 281.43 331.49 279.31 331.22 278.89C331.22 278.89 331.22 278.89 331.22 278.89C335.04 276.44 337.16 275.08 337.58 274.81C337.58 274.81 337.58 274.81 337.58 274.81C340.03 278.63 341.39 280.75 341.66 281.18C341.66 281.18 341.66 281.18 341.66 281.18C337.84 283.62 335.72 284.98 335.29 285.25Z" id="bpA4YtDde"></path><path d="M0.12 79.68C0.34 104.23 -1.44 131.82 11.25 147.55C27.69 167.94 58.78 166.9 84.63 162.69C114.09 157.9 148.18 146.43 156.25 117.69C160.33 103.16 156.4 87.68 157.02 72.6C157.2 68.14 157.9 63.43 160.74 59.99C164.39 55.58 170.69 54.35 176.4 54.7C198.85 56.05 215.06 75.75 234.12 87.69C274.64 113.06 332.42 113.96 378.87 102.68C399.28 97.72 416.35 79.98 427.35 62.09C431.44 55.44 433.54 47.72 437.67 41.1C446.39 27.13 463.18 19.91 479.58 18.4C495.98 16.9 512.38 20.25 528.61 23.01C572.6 30.5 654.98 8.88 684.13 0.57C638.53 0.57 410.53 0.57 0.12 0.57C-0.04 35.91 -0.04 62.29 0.12 79.68Z" id="c30l7tkPi"></path><path d="M0.01 9.63C0.01 37.86 0.01 53.55 0.01 56.68C1.5 57.47 1.92 58.47 2.87 59.67C5.33 62.78 17.59 78.31 39.65 106.26C40.05 106.83 40.27 107.15 40.32 107.21C44.53 112.33 53.83 112.5 58.93 108.44C58.95 108.44 59.09 108.44 59.1 108.44C65.44 103.4 66.66 94.18 61.63 87.83C53.41 77.41 32.87 51.34 0.01 9.63Z" id="a5ckf3WeE4"></path><path d="M685.22 39.32C707.03 39.32 724.75 21.75 725.2 0.16C719.87 0.16 693.22 0.16 645.24 0.16C657.35 26.27 670.68 39.32 685.22 39.32Z" id="a1b3tA6DnX"></path><path d="M715.5 25.99C729.89 25.99 741.58 15.05 741.87 0.16C738.36 0.16 720.78 0.16 689.13 0.16C697.12 17.38 705.91 25.99 715.5 25.99Z" id="o8gKjI2Ts"></path><path d="M748.84 30.89C765.95 30.89 779.86 18.03 780.2 0.16C776.02 0.16 755.11 0.16 717.47 0.16C726.97 20.65 737.43 30.89 748.84 30.89Z" id="bUJZGJRxl"></path><path d="M377.64 110.99C377.33 111.06 377.15 111.37 377.22 111.67C377.3 111.97 377.61 112.16 377.91 112.08C377.91 112.08 377.91 112.08 377.91 112.08C378.21 112.01 378.4 111.7 378.32 111.4C378.32 111.4 378.32 111.4 378.32 111.4C378.06 111.07 377.84 110.94 377.64 110.99ZM343.07 64.41C343.07 64.41 343.07 64.41 343.07 64.41C342.82 64.25 342.49 64.32 342.33 64.56C342.32 64.58 342.31 64.6 342.3 64.63C342.13 64.89 342.21 65.23 342.46 65.4C342.73 65.56 343.09 65.48 343.26 65.2C343.26 65.2 343.26 65.2 343.26 65.2L343.26 65.2C343.31 64.78 343.25 64.52 343.07 64.41ZM359.62 88.92C359.43 88.66 359.05 88.61 358.8 88.81C358.54 89 358.49 89.37 358.69 89.63C358.9 89.87 359.25 89.92 359.51 89.74C359.75 89.53 359.8 89.18 359.62 88.92ZM431.84 65.53C431.54 65.03 430.9 64.87 430.4 65.17C430.39 65.18 430.37 65.18 430.36 65.2C429.86 65.53 429.72 66.2 430.05 66.71C430.37 67.21 431.03 67.36 431.53 67.04C431.53 67.04 431.53 67.04 431.53 67.04C431.95 66.37 432.05 65.86 431.84 65.53ZM409.83 79.83C409.5 79.34 408.83 79.21 408.34 79.53C407.84 79.85 407.69 80.51 408.01 81.01C408.01 81.01 408.01 81.01 408.01 81.01C408.36 81.51 409.03 81.65 409.55 81.34C410.04 81 410.17 80.33 409.83 79.83ZM387.84 94.17C387.83 94.16 387.82 94.15 387.82 94.14C387.52 93.65 386.88 93.49 386.38 93.78C386.36 93.79 386.35 93.8 386.33 93.81C385.84 94.16 385.7 94.83 386 95.35C386.34 95.84 387.01 95.98 387.51 95.65C388.01 95.33 388.15 94.67 387.84 94.17ZM439.82 121.5C439.24 121.63 438.87 122.2 439 122.79C439.13 123.36 439.68 123.72 440.25 123.61C440.84 123.48 441.22 122.91 441.1 122.32C441.1 122.32 441.1 122.32 441.1 122.32C440.64 121.69 440.21 121.42 439.82 121.5ZM414 126.3C413.42 126.43 413.05 127 413.18 127.59C413.31 128.16 413.87 128.52 414.44 128.41C415.02 128.29 415.4 127.71 415.29 127.12C415.29 127.12 415.29 127.12 415.29 127.12C414.82 126.49 414.39 126.22 414 126.3ZM386.59 36.94C386.11 36.61 385.45 36.73 385.11 37.21C385.11 37.21 385.11 37.21 385.11 37.22C384.75 37.67 384.83 38.32 385.29 38.68C385.31 38.69 385.33 38.71 385.36 38.73C385.86 39.05 386.53 38.93 386.89 38.46C387.22 37.95 387.09 37.28 386.59 36.94ZM371.74 58.57C371.24 58.24 370.56 58.37 370.23 58.87C369.89 59.36 370.02 60.03 370.51 60.37C370.52 60.37 370.52 60.38 370.53 60.38C371.01 60.72 371.67 60.6 372 60.12C372.01 60.11 372.01 60.11 372.01 60.1C372.33 59.6 372.22 58.93 371.74 58.57ZM356.93 80.27C356.92 80.26 356.9 80.25 356.89 80.24C356.41 79.89 355.74 79.99 355.38 80.47C355.37 80.48 355.36 80.5 355.35 80.51C355.01 81.01 355.15 81.69 355.64 82.02C356.14 82.36 356.82 82.23 357.15 81.73C357.16 81.73 357.16 81.72 357.16 81.72C357.5 81.25 357.4 80.6 356.93 80.27ZM444.09 146.87C443.56 146.91 443.17 147.38 443.21 147.91C443.25 148.44 443.72 148.84 444.25 148.79C444.25 148.79 444.25 148.79 444.25 148.79C444.78 148.74 445.17 148.28 445.14 147.75C445.09 147.22 444.62 146.83 444.09 146.87ZM399.14 59.64C398.75 59.31 398.16 59.35 397.82 59.75C397.81 59.76 397.81 59.77 397.8 59.78C397.45 60.18 397.49 60.79 397.89 61.14C397.9 61.14 397.9 61.15 397.91 61.15C398.32 61.48 398.92 61.43 399.28 61.04C399.28 61.04 399.28 61.04 399.28 61.04C399.46 60.35 399.42 59.88 399.14 59.64ZM384.1 77.61C383.71 77.27 383.12 77.32 382.78 77.71C382.77 77.72 382.77 77.73 382.76 77.75C382.4 78.15 382.45 78.76 382.85 79.11C382.85 79.11 382.86 79.11 382.86 79.12C383.29 79.44 383.9 79.37 384.24 78.95C384.24 78.95 384.24 78.95 384.24 78.95C384.42 78.28 384.37 77.83 384.1 77.61ZM369.08 95.58C369.07 95.58 369.07 95.58 369.06 95.57C368.69 95.23 368.11 95.27 367.77 95.64C367.75 95.66 367.73 95.69 367.71 95.71C367.36 96.11 367.4 96.72 367.8 97.07C367.81 97.08 367.81 97.08 367.82 97.08C368.23 97.4 368.83 97.34 369.17 96.95C369.17 96.95 369.17 96.95 369.17 96.95C369.37 96.27 369.34 95.82 369.08 95.58ZM421.41 106.26C421.16 105.79 420.59 105.61 420.12 105.85C419.65 106.11 419.45 106.68 419.68 107.17C419.94 107.65 420.53 107.83 421.02 107.58C421.02 107.58 421.02 107.58 421.02 107.58C421.45 107.02 421.58 106.58 421.41 106.26ZM400.66 117.16C400.65 117.15 400.64 117.13 400.64 117.11C400.39 116.64 399.82 116.46 399.35 116.7C398.88 116.95 398.68 117.53 398.91 118.01C399.17 118.48 399.75 118.65 400.22 118.4C400.22 118.4 400.22 118.4 400.22 118.4C400.66 117.88 400.81 117.47 400.66 117.16ZM352.65 47.68C352.63 47.68 352.61 47.67 352.59 47.67C352.09 47.49 351.54 47.76 351.36 48.26C351.36 48.28 351.36 48.29 351.36 48.3C351.22 48.81 351.51 49.34 352.01 49.51C352.51 49.67 353.05 49.39 353.21 48.89C353.21 48.88 353.21 48.86 353.22 48.85C353.22 48.85 353.22 48.85 353.22 48.85C353.16 48.18 352.97 47.79 352.65 47.68ZM345.56 69.98C345.04 69.83 344.49 70.13 344.34 70.65C344.2 71.15 344.47 71.67 344.95 71.85C345.45 72.02 346 71.77 346.17 71.27C346.18 71.26 346.18 71.24 346.19 71.22C346.19 71.22 346.19 71.22 346.19 71.22C346.11 70.51 345.9 70.1 345.56 69.98ZM465.72 131.6C465.43 131.06 464.76 130.85 464.21 131.14C463.67 131.44 463.48 132.13 463.77 132.67C464.06 133.22 464.73 133.43 465.28 133.14C465.28 133.14 465.28 133.14 465.28 133.14C465.76 132.48 465.91 131.97 465.72 131.6ZM441.87 144.37C441.59 143.82 440.91 143.62 440.36 143.9C439.82 144.19 439.61 144.86 439.89 145.41C440.18 145.96 440.86 146.16 441.4 145.88C441.4 145.88 441.4 145.88 441.4 145.88C441.91 145.24 442.06 144.73 441.87 144.37ZM377.01 58.79C376.41 58.63 375.79 58.99 375.63 59.59C375.47 60.18 375.81 60.77 376.38 60.96C376.97 61.13 377.58 60.8 377.78 60.22C377.78 60.22 377.78 60.22 377.78 60.22C377.67 59.4 377.41 58.92 377.01 58.79ZM369.18 84.7C368.59 84.52 367.96 84.85 367.78 85.44C367.6 86.03 367.93 86.66 368.52 86.84C369.11 87.01 369.73 86.68 369.92 86.1C369.92 86.1 369.92 86.1 369.92 86.1C369.82 85.3 369.57 84.83 369.18 84.7ZM422.03 97.42C421.54 97.05 420.84 97.13 420.46 97.61C420.06 98.07 420.11 98.77 420.58 99.16C420.58 99.17 420.59 99.17 420.6 99.18C421.08 99.57 421.79 99.5 422.19 99.02C422.18 99.02 422.19 99.02 422.19 99.02C422.19 99.02 422.19 99.02 422.19 99.02C422.38 98.23 422.33 97.7 422.03 97.42ZM404.84 118.35C404.84 118.35 404.84 118.35 404.84 118.35C404.37 117.97 403.68 118.04 403.3 118.51C403.3 118.51 403.3 118.51 403.3 118.51C402.91 118.99 402.98 119.69 403.45 120.07C403.91 120.47 404.6 120.4 405 119.94C405 119.94 405 119.94 405 119.94C405.21 119.15 405.16 118.62 404.84 118.35ZM438.87 105.3C438.4 104.9 437.7 104.96 437.31 105.43C436.92 105.89 436.97 106.57 437.41 106.97C437.88 107.38 438.59 107.33 439.01 106.86C439.01 106.86 439.01 106.86 439.01 106.86C439.23 106.08 439.18 105.56 438.87 105.3ZM420.94 125.37C420.48 124.98 419.8 125.02 419.38 125.45C418.97 125.93 419.01 126.64 419.46 127.07C419.93 127.47 420.64 127.42 421.05 126.97C421.05 126.97 421.05 126.97 421.05 126.97C421.29 126.18 421.26 125.65 420.94 125.37ZM384.31 89.25C383.73 89.05 383.1 89.36 382.91 89.93C382.68 90.49 382.96 91.12 383.52 91.35C383.53 91.35 383.54 91.36 383.56 91.36C384.14 91.58 384.79 91.29 385 90.71C385.01 90.7 385.01 90.69 385.02 90.68C385.02 90.68 385.02 90.68 385.02 90.68C384.93 89.86 384.7 89.38 384.31 89.25Z" id="cO0wwgWRK"></path><path d="M341.09 13.56L341.09 9.84L233.71 9.84L237.01 13.56L341.09 13.56Z" id="a2WjDk97Aa"></path><path d="M341.09 29.2L341.09 25.48L245.81 25.48L249.11 29.2L341.09 29.2Z" id="aYjomkNUK"></path><path d="M341.09 46.33L341.09 41.86L258.46 41.86L261.76 46.33L341.09 46.33Z" id="d182f5o1WK"></path><path d="M341.09 60.48L341.09 57.5L270.56 57.5L273.86 60.48L341.09 60.48Z" id="eHJnZeyC9"></path><path d="M341.09 78.35L341.09 73.14L283.21 73.14L286.51 78.35L341.09 78.35Z" id="abM25LcSj"></path><path d="M341.09 93.99L341.09 88.78L295.31 88.78L298.61 93.99L341.09 93.99Z" id="a1vywWYxTB"></path><path d="M341.09 109.63L341.09 105.91L307.96 105.91L311.26 109.63L341.09 109.63Z" id="a1r8tieGvu"></path><path d="M341.09 125.27L341.09 121.55L320.07 121.55L323.36 125.27L341.09 125.27Z" id="bcR0qRlHv"></path><path d="M360.39 72.84C382.2 72.84 399.92 55.27 400.37 33.67C395.04 33.67 368.39 33.67 320.41 33.67C332.52 59.78 345.85 72.84 360.39 72.84Z" id="b5CDyD5tZ"></path><path d="M390.67 59.5C405.05 59.5 416.74 47.82 417.04 33.67C413.52 33.67 395.94 33.67 364.3 33.67C372.29 50.89 381.08 59.5 390.67 59.5Z" id="bqZOZfPD6"></path><path d="M424 64.4C441.12 64.4 455.02 51.54 455.37 33.67C451.19 33.67 430.28 33.67 392.63 33.67C402.14 54.16 412.59 64.4 424 64.4Z" id="c1rKtCKh0i"></path><path d="M51.84 0.57L0.11 0.57L0.11 166.73C0.53 167.26 0.77 167.56 0.82 167.62C5.85 173.97 15.23 175.68 21.57 170.64C21.57 170.64 21.57 170.64 21.57 170.64C26.58 166.66 28.42 156.81 25.03 152.26C24.29 151.32 18.43 143.83 17.7 142.89C12.66 136.55 13.91 127.67 20.25 122.63C20.26 122.63 20.26 122.63 20.26 122.63C26.6 117.59 35.79 118.05 40.82 124.4C42.53 126.64 56.24 144.57 57.96 146.81C61.81 151.24 70.85 151.49 75.75 147.59C75.75 147.59 75.75 147.59 75.75 147.59C80.85 143.54 82.69 133.85 78.82 128.99C77.18 126.83 64 109.58 62.35 107.42C57.32 101.08 58.69 92.08 65.03 87.05C65.03 87.05 65.03 87.04 65.03 87.04C71.37 82.01 80.46 82.6 85.49 88.94C87.96 92.05 100.28 107.58 122.46 135.53C122.92 136.1 123.18 136.42 123.23 136.48C127.44 141.6 136.79 141.77 141.89 137.72C141.89 137.72 141.89 137.71 141.89 137.71C148.23 132.68 149.27 123.45 144.24 117.1C131.92 101.57 101.12 62.72 51.84 0.57Z" id="clRVlXgDR"></path></defs><g><g><g><use xlink:href="#b8bqdpwOv7" opacity="1" fill="#f6835f" fill-opacity="1"></use><g><use xlink:href="#b8bqdpwOv7" opacity="1" fill-opacity="0" stroke="#000000" stroke-width="1" stroke-opacity="0"></use></g></g><g><use xlink:href="#e3rhQ6i3T" opacity="1" fill="#f6835f" fill-opacity="1"></use><g><use xlink:href="#e3rhQ6i3T" opacity="1" fill-opacity="0" stroke="#000000" stroke-width="1" stroke-opacity="0"></use></g></g><g><use xlink:href="#e21LP5Qszr" opacity="1" fill="#f6835f" fill-opacity="1"></use><g><use xlink:href="#e21LP5Qszr" opacity="1" fill-opacity="0" stroke="#000000" stroke-width="1" stroke-opacity="0"></use></g></g><g><use xlink:href="#b6cuLjGw5" opacity="1" fill="#f6835f" fill-opacity="1"></use><g><use xlink:href="#b6cuLjGw5" opacity="1" fill-opacity="0" stroke="#000000" stroke-width="1" stroke-opacity="0"></use></g></g><g><use xlink:href="#bzYyxCK9" opacity="1" fill="#f6835f" fill-opacity="1"></use><g><use xlink:href="#bzYyxCK9" opacity="1" fill-opacity="0" stroke="#000000" stroke-width="1" stroke-opacity="0"></use></g></g><g><use xlink:href="#ar5RiegW3" opacity="1" fill="#f6835f" fill-opacity="1"></use><g><use xlink:href="#ar5RiegW3" opacity="1" fill-opacity="0" stroke="#000000" stroke-width="1" stroke-opacity="0"></use></g></g><g><use xlink:href="#b1BzG6R6ZA" opacity="1" fill="#f6835f" fill-opacity="1"></use><g><use xlink:href="#b1BzG6R6ZA" opacity="1" fill-opacity="0" stroke="#000000" stroke-width="1" stroke-opacity="0"></use></g></g><g><use xlink:href="#dd6wo41KE" opacity="1" fill="#f6835f" fill-opacity="1"></use><g><use xlink:href="#dd6wo41KE" opacity="1" fill-opacity="0" stroke="#000000" stroke-width="1" stroke-opacity="0"></use></g></g><g><use xlink:href="#a2KDIhN1P" opacity="1" fill="#ffa861" fill-opacity="1"></use><g><use xlink:href="#a2KDIhN1P" opacity="1" fill-opacity="0" stroke="#000000" stroke-width="1" stroke-opacity="0"></use></g></g><g><use xlink:href="#b2ccveYgwG" opacity="1" fill="#ffa861" fill-opacity="1"></use><g><use xlink:href="#b2ccveYgwG" opacity="1" fill-opacity="0" stroke="#000000" stroke-width="1" stroke-opacity="0"></use></g></g><g><use xlink:href="#afKIoJ6VB" opacity="1" fill="#ffa861" fill-opacity="1"></use><g><use xlink:href="#afKIoJ6VB" opacity="1" fill-opacity="0" stroke="#000000" stroke-width="1" stroke-opacity="0"></use></g></g><g><use xlink:href="#b15HcWZhSB" opacity="1" fill="#ffa861" fill-opacity="1"></use><g><use xlink:href="#b15HcWZhSB" opacity="1" fill-opacity="0" stroke="#000000" stroke-width="1" stroke-opacity="0"></use></g></g><g><use xlink:href="#a43MelkqKB" opacity="1" fill="#ffa861" fill-opacity="1"></use><g><use xlink:href="#a43MelkqKB" opacity="1" fill-opacity="0" stroke="#000000" stroke-width="1" stroke-opacity="0"></use></g></g><g><use xlink:href="#bc4VYrhO7" opacity="1" fill="#fff1d0" fill-opacity="1"></use><g><use xlink:href="#bc4VYrhO7" opacity="1" fill-opacity="0" stroke="#000000" stroke-width="1" stroke-opacity="0"></use></g></g><g><use xlink:href="#b6r6mGrVVQ" opacity="1" fill="#f6835f" fill-opacity="1"></use><g><use xlink:href="#b6r6mGrVVQ" opacity="1" fill-opacity="0" stroke="#000000" stroke-width="1" stroke-opacity="0"></use></g></g><g><use xlink:href="#c1K2EcfPP" opacity="1" fill="#ffa861" fill-opacity="1"></use><g><use xlink:href="#c1K2EcfPP" opacity="1" fill-opacity="0" stroke="#000000" stroke-width="1" stroke-opacity="0"></use></g></g><g><use xlink:href="#avTaZBVyh" opacity="1" fill="#ffa861" fill-opacity="1"></use><g><use xlink:href="#avTaZBVyh" opacity="1" fill-opacity="0" stroke="#000000" stroke-width="1" stroke-opacity="0"></use></g></g><g><use xlink:href="#aqeB1YJPU" opacity="1" fill="#ffa861" fill-opacity="1"></use><g><use xlink:href="#aqeB1YJPU" opacity="1" fill-opacity="0" stroke="#000000" stroke-width="1" stroke-opacity="0"></use></g></g><g><use xlink:href="#acwdXxmKK" opacity="1" fill="#ffa861" fill-opacity="1"></use><g><use xlink:href="#acwdXxmKK" opacity="1" fill-opacity="0" stroke="#000000" stroke-width="1" stroke-opacity="0"></use></g></g><g><use xlink:href="#i5D9Rtg1p" opacity="1" fill="#ffa861" fill-opacity="1"></use><g><use xlink:href="#i5D9Rtg1p" opacity="1" fill-opacity="0" stroke="#000000" stroke-width="1" stroke-opacity="0"></use></g></g><g><use xlink:href="#dGNX5B8NW" opacity="1" fill="#ffffff" fill-opacity="1"></use><g><use xlink:href="#dGNX5B8NW" opacity="1" fill-opacity="0" stroke="#000000" stroke-width="1" stroke-opacity="0"></use></g></g><g><use xlink:href="#c1qIlgtGRq" opacity="1" fill="#ffffff" fill-opacity="1"></use><g><use xlink:href="#c1qIlgtGRq" opacity="1" fill-opacity="0" stroke="#000000" stroke-width="1" stroke-opacity="0"></use></g></g><g><use xlink:href="#e107BIP1g2" opacity="1" fill="#ffffff" fill-opacity="1"></use><g><use xlink:href="#e107BIP1g2" opacity="1" fill-opacity="0" stroke="#000000" stroke-width="1" stroke-opacity="0"></use></g></g><g><use xlink:href="#d3s1OwzsX" opacity="1" fill="#ffffff" fill-opacity="1"></use><g><use xlink:href="#d3s1OwzsX" opacity="1" fill-opacity="0" stroke="#000000" stroke-width="1" stroke-opacity="0"></use></g></g><g><use xlink:href="#gCOTLN0w" opacity="1" fill="#ffffff" fill-opacity="1"></use><g><use xlink:href="#gCOTLN0w" opacity="1" fill-opacity="0" stroke="#000000" stroke-width="1" stroke-opacity="0"></use></g></g><g><use xlink:href="#f6rGCbZGnf" opacity="1" fill="#ffffff" fill-opacity="1"></use><g><use xlink:href="#f6rGCbZGnf" opacity="1" fill-opacity="0" stroke="#000000" stroke-width="1" stroke-opacity="0"></use></g></g><g><use xlink:href="#acLwU9WvQj" opacity="1" fill="#fff1d0" fill-opacity="1"></use><g><use xlink:href="#acLwU9WvQj" opacity="1" fill-opacity="0" stroke="#000000" stroke-width="1" stroke-opacity="0"></use></g></g><g><use xlink:href="#h2xOAHZll4" opacity="1" fill="#fff1d0" fill-opacity="1"></use><g><use xlink:href="#h2xOAHZll4" opacity="1" fill-opacity="0" stroke="#000000" stroke-width="1" stroke-opacity="0"></use></g></g><g><use xlink:href="#d7SsquO5K" opacity="1" fill="#ffffff" fill-opacity="1"></use><g><use xlink:href="#d7SsquO5K" opacity="1" fill-opacity="0" stroke="#000000" stroke-width="1" stroke-opacity="0"></use></g></g><g><use xlink:href="#a1kVhs5ye7" opacity="1" fill="#fff1d0" fill-opacity="1"></use><g><use xlink:href="#a1kVhs5ye7" opacity="1" fill-opacity="0" stroke="#000000" stroke-width="1" stroke-opacity="0"></use></g></g><g><use xlink:href="#bpA4YtDde" opacity="1" fill="#fff1d0" fill-opacity="1"></use><g><use xlink:href="#bpA4YtDde" opacity="1" fill-opacity="0" stroke="#000000" stroke-width="1" stroke-opacity="0"></use></g></g><g><use xlink:href="#c30l7tkPi" opacity="1" fill="#3dbb9f" fill-opacity="1"></use><g><use xlink:href="#c30l7tkPi" opacity="1" fill-opacity="0" stroke="#000000" stroke-width="1" stroke-opacity="0"></use></g></g><g><use xlink:href="#a5ckf3WeE4" opacity="1" fill="#f6835f" fill-opacity="1"></use><g><use xlink:href="#a5ckf3WeE4" opacity="1" fill-opacity="0" stroke="#000000" stroke-width="1" stroke-opacity="0"></use></g></g><g><use xlink:href="#a1b3tA6DnX" opacity="1" fill="#ffa861" fill-opacity="1"></use><g><use xlink:href="#a1b3tA6DnX" opacity="1" fill-opacity="0" stroke="#000000" stroke-width="1" stroke-opacity="0"></use></g></g><g><use xlink:href="#o8gKjI2Ts" opacity="1" fill="#ff9960" fill-opacity="1"></use><g><use xlink:href="#o8gKjI2Ts" opacity="1" fill-opacity="0" stroke="#000000" stroke-width="1" stroke-opacity="0"></use></g></g><g><use xlink:href="#bUJZGJRxl" opacity="1" fill="#ff8c5f" fill-opacity="1"></use><g><use xlink:href="#bUJZGJRxl" opacity="1" fill-opacity="0" stroke="#000000" stroke-width="1" stroke-opacity="0"></use></g></g><g><use xlink:href="#cO0wwgWRK" opacity="1" fill="#f6835f" fill-opacity="1"></use><g><use xlink:href="#cO0wwgWRK" opacity="1" fill-opacity="0" stroke="#000000" stroke-width="1" stroke-opacity="0"></use></g></g><g><use xlink:href="#a2WjDk97Aa" opacity="1" fill="#f6835f" fill-opacity="1"></use><g><use xlink:href="#a2WjDk97Aa" opacity="1" fill-opacity="0" stroke="#000000" stroke-width="1" stroke-opacity="0"></use></g></g><g><use xlink:href="#aYjomkNUK" opacity="1" fill="#f6835f" fill-opacity="1"></use><g><use xlink:href="#aYjomkNUK" opacity="1" fill-opacity="0" stroke="#000000" stroke-width="1" stroke-opacity="0"></use></g></g><g><use xlink:href="#d182f5o1WK" opacity="1" fill="#f6835f" fill-opacity="1"></use><g><use xlink:href="#d182f5o1WK" opacity="1" fill-opacity="0" stroke="#000000" stroke-width="1" stroke-opacity="0"></use></g></g><g><use xlink:href="#eHJnZeyC9" opacity="1" fill="#f6835f" fill-opacity="1"></use><g><use xlink:href="#eHJnZeyC9" opacity="1" fill-opacity="0" stroke="#000000" stroke-width="1" stroke-opacity="0"></use></g></g><g><use xlink:href="#abM25LcSj" opacity="1" fill="#f6835f" fill-opacity="1"></use><g><use xlink:href="#abM25LcSj" opacity="1" fill-opacity="0" stroke="#000000" stroke-width="1" stroke-opacity="0"></use></g></g><g><use xlink:href="#a1vywWYxTB" opacity="1" fill="#f6835f" fill-opacity="1"></use><g><use xlink:href="#a1vywWYxTB" opacity="1" fill-opacity="0" stroke="#000000" stroke-width="1" stroke-opacity="0"></use></g></g><g><use xlink:href="#a1r8tieGvu" opacity="1" fill="#f6835f" fill-opacity="1"></use><g><use xlink:href="#a1r8tieGvu" opacity="1" fill-opacity="0" stroke="#000000" stroke-width="1" stroke-opacity="0"></use></g></g><g><use xlink:href="#bcR0qRlHv" opacity="1" fill="#f6835f" fill-opacity="1"></use><g><use xlink:href="#bcR0qRlHv" opacity="1" fill-opacity="0" stroke="#000000" stroke-width="1" stroke-opacity="0"></use></g></g><g><use xlink:href="#b5CDyD5tZ" opacity="1" fill="#ffa861" fill-opacity="1"></use><g><use xlink:href="#b5CDyD5tZ" opacity="1" fill-opacity="0" stroke="#000000" stroke-width="1" stroke-opacity="0"></use></g></g><g><use xlink:href="#bqZOZfPD6" opacity="1" fill="#ff9960" fill-opacity="1"></use><g><use xlink:href="#bqZOZfPD6" opacity="1" fill-opacity="0" stroke="#000000" stroke-width="1" stroke-opacity="0"></use></g></g><g><use xlink:href="#c1rKtCKh0i" opacity="1" fill="#ff8c5f" fill-opacity="1"></use><g><use xlink:href="#c1rKtCKh0i" opacity="1" fill-opacity="0" stroke="#000000" stroke-width="1" stroke-opacity="0"></use></g></g><g><use xlink:href="#clRVlXgDR" opacity="1" fill="#f6835f" fill-opacity="1"></use><g><use xlink:href="#clRVlXgDR" opacity="1" fill-opacity="0" stroke="#000000" stroke-width="1" stroke-opacity="0"></use></g></g></g></g></svg>