<?xml version="1.0" encoding="UTF-8" standalone="no"?>
<!DOCTYPE svg PUBLIC "-//W3C//DTD SVG 1.1//EN" "http://www.w3.org/Graphics/SVG/1.1/DTD/svg11.dtd">
<svg version="1.1" xmlns="http://www.w3.org/2000/svg" xmlns:xlink="http://www.w3.org/1999/xlink" preserveAspectRatio="xMidYMid meet" viewBox="0 0 640 640" width="640" height="640"><defs><path d="M380.11 499.98L640 499.98L640 640L240.21 640L380.11 499.98ZM0 508.18L388.78 119.28L520.6 251.1L131.82 640L0 640L0 508.18ZM622.78 148.93L558.56 213.26L426.74 81.44C465.27 42.84 486.67 21.4 490.96 17.11C497.51 10.59 506.44 7.03 515.68 7.26C524.93 6.99 533.87 10.55 540.4 17.11C548.6 25.31 614.22 90.93 622.42 99.13C635.9 112.81 635.9 134.78 622.42 148.46C622.47 148.52 622.59 148.68 622.78 148.93Z" id="c6EDo3Wfh"></path></defs><g><g><g><use xlink:href="#c6EDo3Wfh" opacity="1" fill="#ffffff" fill-opacity="1"></use><g><use xlink:href="#c6EDo3Wfh" opacity="1" fill-opacity="0" stroke="#000000" stroke-width="1" stroke-opacity="0"></use></g></g></g></g></svg>