<?xml version="1.0" encoding="UTF-8" standalone="no"?>
<!DOCTYPE svg PUBLIC "-//W3C//DTD SVG 1.1//EN" "http://www.w3.org/Graphics/SVG/1.1/DTD/svg11.dtd">
<svg version="1.1" xmlns="http://www.w3.org/2000/svg" xmlns:xlink="http://www.w3.org/1999/xlink" preserveAspectRatio="xMidYMid meet" viewBox="0 0 782 338" width="782" height="338"><defs><path d="M564.42 255.02L564.42 257.25L632.35 257.37L630.26 255.13L564.42 255.02Z" id="bfxbkKUXQ"></path><path d="M564.44 244.59L564.44 247.57L624.69 247.67L622.6 244.69L564.44 244.59Z" id="aSoEz9JEV"></path><path d="M564.46 234.17L564.45 237.15L616.68 237.23L614.59 234.25L564.46 234.17Z" id="bk0cLcSVv"></path><path d="M564.47 224.48L564.47 226.72L609.02 226.8L606.93 224.56L564.47 224.48Z" id="d8OOYvDKY"></path><path d="M564.49 214.06L564.49 217.04L601.01 217.1L598.92 214.12L564.49 214.06Z" id="d1ErHyo3nt"></path><path d="M564.51 203.63L564.51 206.61L593.35 206.66L591.26 203.68L564.51 203.63Z" id="d8sUVUVFYF"></path><path d="M564.53 194.7L564.52 196.19L585.34 196.22L583.25 194.73L564.53 194.7Z" id="cEEceyMti"></path><path d="M564.54 184.27L564.54 187.25L577.68 187.27L575.59 184.29L564.54 184.27Z" id="d1rzc8LWQ"></path><path d="M300.54 260.04C300.53 264.22 297.12 267.62 292.94 267.62C288.75 267.61 285.35 264.2 285.36 260.01C285.36 255.83 288.77 252.43 292.96 252.44C297.15 252.44 300.54 255.85 300.54 260.04ZM299.49 260.04C299.5 256.43 296.57 253.49 292.96 253.48C289.35 253.48 286.41 256.41 286.4 260.02C286.4 263.62 289.33 266.57 292.94 266.57C296.55 266.58 299.49 263.65 299.49 260.04Z" id="a38Fg3ABf"></path><path d="M304.98 260.05C304.97 266.68 299.56 272.07 292.93 272.06C286.29 272.05 280.9 266.64 280.91 260.01C280.92 253.37 286.33 247.98 292.97 247.99C299.6 248 304.99 253.41 304.98 260.05ZM303.94 260.05C303.95 253.99 299.03 249.05 292.97 249.04C286.91 249.03 281.97 253.95 281.96 260.01C281.95 266.07 286.87 271.01 292.93 271.02C298.99 271.03 303.93 266.1 303.94 260.05Z" id="aCV4xzOeQ"></path><path d="M309.98 260.06C309.97 269.45 302.31 277.08 292.92 277.06C283.53 277.05 275.9 269.39 275.91 260C275.93 250.61 283.58 242.98 292.98 242.99C302.37 243.01 310 250.66 309.98 260.06ZM308.94 260.05C308.95 251.24 301.79 244.05 292.98 244.04C284.16 244.02 276.97 251.18 276.96 260C276.94 268.82 284.1 276 292.92 276.02C301.74 276.03 308.92 268.87 308.94 260.05Z" id="kpLiPT3Nj"></path><path d="M315.54 260.07C315.52 272.52 305.37 282.64 292.91 282.62C280.45 282.6 270.34 272.44 270.36 259.99C270.38 247.53 280.53 237.42 292.99 237.44C305.44 237.46 315.56 247.61 315.54 260.07ZM314.49 260.06C314.51 248.18 304.86 238.5 292.98 238.48C281.1 238.46 271.42 248.11 271.4 259.99C271.38 271.87 281.03 281.55 292.91 281.57C304.79 281.59 314.47 271.94 314.49 260.06Z" id="cbv3KuXlm"></path><path d="M320.54 260.07C320.51 275.29 308.11 287.64 292.9 287.62C277.69 287.59 265.33 275.19 265.36 259.98C265.38 244.77 277.78 232.41 293 232.44C308.21 232.46 320.56 244.86 320.54 260.07ZM319.49 260.07C319.52 245.43 307.63 233.51 292.99 233.48C278.36 233.46 266.43 245.34 266.4 259.98C266.38 274.62 278.27 286.55 292.9 286.57C307.54 286.6 319.47 274.71 319.49 260.07Z" id="a8pGoFJSJn"></path><path d="M242.85 287.83C211.22 284.18 203.04 278.96 184.61 286.29C152.24 299.18 228.62 326.3 237.03 326.65C400.54 333.33 504.27 284.84 666.04 309.58C662.16 294.83 658.27 280.08 654.39 265.33C656.89 272.92 650.12 281.08 642.33 282.91C634.55 284.74 638.27 253.31 632.41 258.75C601.03 287.94 524.88 198.79 432.02 174.85C413.91 170.18 390.96 174.96 382.52 180.94C374.08 186.92 373.21 202.14 378.9 210.78C380.83 213.7 383.77 216.07 384.72 219.44C385.91 223.7 383.45 228.22 380.14 231.16C369.23 240.87 352.09 237.44 338.83 231.32C325.58 225.2 312.24 216.74 297.7 218.06C283.15 219.37 264.52 228.91 287 256.36C326.49 304.6 249.38 288.58 242.85 287.83Z" id="aoblTfCVT"></path><path d="M88.13 257.35C88.43 257.27 88.62 256.96 88.54 256.66C88.47 256.36 88.16 256.17 87.86 256.25C87.86 256.25 87.86 256.25 87.86 256.25C87.56 256.32 87.37 256.62 87.45 256.93C87.45 256.93 87.45 256.93 87.45 256.93C87.7 257.26 87.93 257.39 88.13 257.35ZM122.62 303.98C122.62 303.98 122.62 303.98 122.62 303.98C122.87 304.14 123.19 304.07 123.35 303.83C123.37 303.81 123.38 303.79 123.39 303.77C123.55 303.51 123.48 303.17 123.23 302.99C122.95 302.83 122.6 302.91 122.43 303.19C122.43 303.19 122.43 303.19 122.43 303.19L122.43 303.19C122.38 303.61 122.44 303.87 122.62 303.98ZM106.11 279.44C106.3 279.7 106.67 279.75 106.93 279.56C107.19 279.36 107.24 278.99 107.04 278.73C106.83 278.49 106.48 278.44 106.22 278.62C105.98 278.83 105.93 279.18 106.11 279.44ZM33.85 302.71C34.15 303.21 34.79 303.37 35.28 303.07C35.3 303.06 35.32 303.06 35.33 303.04C35.83 302.71 35.97 302.04 35.64 301.53C35.32 301.03 34.66 300.88 34.16 301.2C34.16 301.2 34.16 301.2 34.16 301.2C33.74 301.87 33.64 302.37 33.85 302.71ZM55.88 288.44C56.21 288.93 56.88 289.07 57.37 288.75C57.87 288.43 58.02 287.77 57.71 287.27C57.71 287.27 57.71 287.27 57.71 287.27C57.35 286.77 56.69 286.63 56.17 286.93C55.67 287.27 55.54 287.95 55.88 288.44ZM77.9 274.14C77.91 274.15 77.92 274.16 77.92 274.17C78.22 274.66 78.86 274.83 79.36 274.53C79.37 274.52 79.39 274.52 79.4 274.5C79.9 274.16 80.04 273.49 79.74 272.96C79.4 272.47 78.73 272.34 78.23 272.66C77.73 272.98 77.58 273.64 77.9 274.14ZM25.97 246.72C26.55 246.6 26.92 246.02 26.79 245.44C26.66 244.87 26.11 244.5 25.53 244.61C24.95 244.74 24.57 245.31 24.68 245.9C24.68 245.9 24.68 245.9 24.68 245.9C25.15 246.53 25.58 246.81 25.97 246.72ZM51.79 241.97C52.37 241.84 52.74 241.27 52.61 240.68C52.49 240.11 51.93 239.75 51.36 239.86C50.78 239.98 50.4 240.55 50.51 241.14C50.51 241.14 50.51 241.14 50.51 241.14C50.97 241.78 51.4 242.05 51.79 241.97ZM79.05 331.37C79.53 331.71 80.19 331.59 80.53 331.11C80.53 331.11 80.53 331.1 80.53 331.1C80.89 330.65 80.81 330 80.36 329.64C80.33 329.62 80.31 329.61 80.29 329.59C79.78 329.27 79.12 329.38 78.75 329.86C78.42 330.36 78.55 331.03 79.05 331.37ZM93.94 309.77C94.44 310.1 95.11 309.97 95.45 309.47C95.78 308.98 95.66 308.31 95.17 307.97C95.16 307.97 95.16 307.96 95.15 307.96C94.67 307.63 94.01 307.75 93.68 308.22C93.67 308.23 93.67 308.23 93.67 308.24C93.34 308.74 93.46 309.41 93.94 309.77ZM108.78 288.1C108.8 288.11 108.81 288.12 108.82 288.12C109.3 288.48 109.98 288.38 110.33 287.9C110.34 287.88 110.35 287.87 110.36 287.86C110.7 287.36 110.57 286.68 110.08 286.34C109.58 286.01 108.9 286.14 108.56 286.63C108.56 286.64 108.56 286.64 108.56 286.65C108.22 287.11 108.32 287.76 108.78 288.1ZM21.73 221.35C22.26 221.3 22.66 220.84 22.62 220.31C22.58 219.77 22.11 219.38 21.58 219.42C21.58 219.42 21.58 219.42 21.58 219.42C21.05 219.47 20.66 219.93 20.69 220.46C20.74 220.99 21.2 221.39 21.73 221.35ZM66.54 308.65C66.93 308.99 67.52 308.94 67.85 308.55C67.86 308.54 67.87 308.53 67.88 308.52C68.23 308.11 68.19 307.51 67.79 307.16C67.78 307.15 67.78 307.15 67.77 307.15C67.36 306.82 66.76 306.86 66.4 307.25C66.4 307.25 66.4 307.25 66.4 307.25C66.22 307.95 66.26 308.41 66.54 308.65ZM81.61 290.71C82 291.05 82.59 291 82.93 290.61C82.94 290.6 82.94 290.59 82.95 290.58C83.3 290.17 83.26 289.56 82.86 289.21C82.86 289.21 82.86 289.21 82.85 289.2C82.42 288.88 81.81 288.95 81.48 289.37C81.48 289.37 81.48 289.37 81.48 289.37C81.29 290.04 81.34 290.49 81.61 290.71ZM96.66 272.76C96.67 272.77 96.67 272.77 96.68 272.77C97.05 273.11 97.63 273.08 97.97 272.71C97.99 272.69 98.01 272.66 98.03 272.64C98.38 272.24 98.34 271.63 97.94 271.28C97.93 271.27 97.93 271.27 97.92 271.26C97.51 270.95 96.92 271 96.57 271.4C96.57 271.4 96.57 271.4 96.57 271.4C96.37 272.07 96.4 272.53 96.66 272.76ZM44.35 261.99C44.59 262.46 45.17 262.65 45.64 262.41C46.11 262.15 46.31 261.58 46.08 261.09C45.82 260.61 45.23 260.43 44.74 260.67C44.74 260.67 44.74 260.67 44.74 260.67C44.31 261.24 44.18 261.68 44.35 261.99ZM65.11 251.13C65.12 251.15 65.13 251.16 65.14 251.18C65.38 251.65 65.95 251.84 66.43 251.6C66.9 251.34 67.09 250.76 66.87 250.28C66.61 249.81 66.03 249.64 65.56 249.89C65.56 249.89 65.56 249.89 65.56 249.89C65.11 250.41 64.97 250.82 65.11 251.13ZM113.01 320.69C113.03 320.7 113.05 320.7 113.07 320.71C113.57 320.88 114.12 320.62 114.29 320.11C114.3 320.1 114.3 320.09 114.3 320.08C114.44 319.57 114.15 319.03 113.65 318.87C113.15 318.71 112.61 318.98 112.45 319.48C112.45 319.5 112.45 319.51 112.44 319.52C112.44 319.52 112.44 319.52 112.44 319.52C112.5 320.19 112.69 320.58 113.01 320.69ZM120.14 298.4C120.66 298.55 121.2 298.25 121.35 297.73C121.5 297.24 121.23 296.72 120.75 296.54C120.25 296.36 119.7 296.62 119.53 297.11C119.52 297.13 119.51 297.15 119.51 297.17C119.51 297.17 119.51 297.17 119.51 297.17C119.59 297.88 119.8 298.29 120.14 298.4ZM0.08 236.58C0.37 237.12 1.04 237.33 1.59 237.05C2.13 236.74 2.33 236.06 2.03 235.51C1.74 234.97 1.07 234.75 0.53 235.04C0.53 235.04 0.53 235.04 0.53 235.04C0.04 235.7 -0.11 236.21 0.08 236.58ZM23.95 223.85C24.24 224.39 24.91 224.61 25.46 224.32C26.01 224.03 26.22 223.36 25.93 222.81C25.64 222.27 24.97 222.06 24.42 222.34C24.42 222.34 24.42 222.34 24.42 222.34C23.92 222.98 23.76 223.49 23.95 223.85ZM88.67 309.54C89.27 309.7 89.89 309.34 90.05 308.74C90.2 308.16 89.87 307.56 89.3 307.37C88.71 307.21 88.1 307.53 87.9 308.11C87.9 308.11 87.9 308.11 87.9 308.11C88.01 308.93 88.27 309.41 88.67 309.54ZM96.54 283.64C97.13 283.83 97.76 283.5 97.94 282.91C98.12 282.32 97.79 281.69 97.2 281.5C96.62 281.33 95.99 281.66 95.8 282.24C95.8 282.24 95.8 282.24 95.8 282.24C95.9 283.05 96.15 283.51 96.54 283.64ZM43.72 270.83C44.21 271.21 44.9 271.12 45.29 270.65C45.68 270.19 45.63 269.49 45.17 269.09C45.16 269.09 45.16 269.08 45.15 269.08C44.67 268.68 43.96 268.75 43.56 269.24C43.56 269.24 43.56 269.24 43.56 269.24C43.56 269.24 43.56 269.24 43.56 269.24C43.36 270.03 43.42 270.56 43.72 270.83ZM60.94 249.93C60.94 249.93 60.94 249.93 60.94 249.93C61.41 250.32 62.1 250.24 62.48 249.78C62.48 249.78 62.48 249.78 62.48 249.78C62.87 249.3 62.8 248.6 62.33 248.21C61.87 247.82 61.18 247.88 60.78 248.34C60.78 248.34 60.78 248.34 60.78 248.34C60.57 249.14 60.62 249.67 60.94 249.93ZM26.89 262.93C27.35 263.33 28.05 263.27 28.45 262.8C28.83 262.34 28.79 261.66 28.35 261.26C27.88 260.85 27.17 260.9 26.75 261.37C26.75 261.37 26.75 261.37 26.75 261.37C26.53 262.14 26.57 262.67 26.89 262.93ZM44.85 242.88C45.31 243.28 45.99 243.24 46.41 242.81C46.82 242.33 46.78 241.62 46.34 241.19C45.86 240.79 45.16 240.84 44.74 241.29C44.74 241.29 44.74 241.29 44.74 241.29C44.5 242.08 44.53 242.61 44.85 242.88ZM81.42 279.07C82 279.27 82.63 278.96 82.83 278.39C83.05 277.83 82.78 277.2 82.22 276.97C82.2 276.97 82.19 276.96 82.17 276.96C81.59 276.74 80.95 277.03 80.73 277.61C80.72 277.62 80.72 277.63 80.71 277.64C80.71 277.64 80.71 277.64 80.71 277.64C80.8 278.46 81.03 278.93 81.42 279.07Z" id="f15OKUIpeH"></path><path d="M190.86 260.12C190.86 264.08 187.63 267.3 183.67 267.29C179.71 267.28 176.49 264.05 176.5 260.1C176.51 256.13 179.74 252.92 183.69 252.93C187.65 252.93 190.87 256.16 190.86 260.12ZM189.82 260.12C189.82 256.73 187.08 253.98 183.69 253.97C180.31 253.96 177.55 256.71 177.54 260.1C177.54 263.48 180.29 266.24 183.67 266.24C187.05 266.25 189.81 263.5 189.82 260.12Z" id="aVlbEot4H"></path><path d="M195.05 260.13C195.04 266.4 189.93 271.49 183.66 271.47C177.39 271.46 172.3 266.36 172.31 260.09C172.32 253.82 177.43 248.73 183.7 248.74C189.97 248.75 195.06 253.86 195.05 260.13ZM194.01 260.13C194.02 254.43 189.39 249.79 183.7 249.78C178.01 249.77 173.37 254.4 173.36 260.09C173.35 265.78 177.97 270.42 183.66 270.43C189.36 270.44 194 265.82 194.01 260.13Z" id="b1P4zLWLoq"></path><path d="M199.76 260.14C199.74 269 192.52 276.2 183.65 276.19C174.79 276.17 167.59 268.95 167.6 260.08C167.62 251.21 174.84 244.01 183.71 244.03C192.58 244.04 199.77 251.27 199.76 260.14ZM198.72 260.13C198.73 251.84 192 245.09 183.71 245.07C175.42 245.06 168.66 251.79 168.65 260.08C168.63 268.37 175.37 275.13 183.66 275.14C191.95 275.16 198.7 268.42 198.72 260.13Z" id="a9EX8Cvc4"></path><path d="M204.99 260.14C204.97 271.9 195.4 281.44 183.65 281.42C171.89 281.4 162.35 271.82 162.37 260.07C162.39 248.32 171.97 238.77 183.72 238.8C195.47 238.82 205.01 248.39 204.99 260.14ZM203.95 260.14C203.97 248.97 194.89 239.86 183.72 239.84C172.54 239.82 163.43 248.9 163.41 260.07C163.4 271.25 172.47 280.36 183.65 280.38C194.82 280.39 203.93 271.32 203.95 260.14Z" id="f8hIWuiSnE"></path><path d="M209.7 260.15C209.68 274.5 197.99 286.15 183.64 286.13C169.29 286.1 157.63 274.41 157.66 260.06C157.68 245.71 169.38 234.06 183.73 234.08C198.07 234.11 209.73 245.8 209.7 260.15ZM208.66 260.15C208.68 246.38 197.5 235.15 183.72 235.13C169.95 235.11 158.73 246.29 158.7 260.06C158.68 273.84 169.87 285.06 183.64 285.09C197.41 285.11 208.64 273.92 208.66 260.15Z" id="a3cLgPn8X"></path><path d="M215.68 275.97C215.68 279.93 212.45 283.15 208.49 283.14C204.53 283.14 201.31 279.91 201.32 275.95C201.33 271.99 204.55 268.77 208.51 268.78C212.47 268.79 215.69 272.01 215.68 275.97ZM214.64 275.97C214.64 272.59 211.89 269.83 208.51 269.82C205.13 269.82 202.37 272.57 202.36 275.95C202.36 279.33 205.11 282.09 208.49 282.1C211.87 282.1 214.63 279.35 214.64 275.97Z" id="b2uiFFwN1u"></path><path d="M219.87 275.98C219.86 282.25 214.75 287.34 208.48 287.33C202.21 287.32 197.12 282.21 197.13 275.94C197.14 269.67 202.25 264.58 208.52 264.59C214.79 264.6 219.88 269.71 219.87 275.98ZM218.82 275.98C218.83 270.29 214.21 265.65 208.52 265.64C202.83 265.63 198.19 270.25 198.18 275.94C198.17 281.64 202.79 286.28 208.48 286.28C214.18 286.29 218.81 281.67 218.82 275.98Z" id="a5noDwBChP"></path><path d="M224.58 275.99C224.56 284.85 217.34 292.05 208.47 292.04C199.61 292.02 192.41 284.8 192.42 275.93C192.44 267.07 199.66 259.87 208.53 259.88C217.39 259.9 224.59 267.12 224.58 275.99ZM223.53 275.99C223.55 267.7 216.82 260.94 208.53 260.93C200.24 260.91 193.48 267.65 193.47 275.94C193.45 284.23 200.19 290.98 208.48 291C216.76 291.01 223.52 284.28 223.53 275.99Z" id="i5sTHexlKX"></path><path d="M229.81 276C229.79 287.75 220.22 297.29 208.46 297.27C196.71 297.25 187.17 287.68 187.19 275.93C187.21 264.17 196.79 254.63 208.54 254.65C220.29 254.67 229.83 264.25 229.81 276ZM228.77 276C228.79 264.82 219.71 255.71 208.54 255.69C197.36 255.67 188.25 264.75 188.23 275.93C188.21 287.1 197.29 296.21 208.47 296.23C219.64 296.25 228.75 287.17 228.77 276Z" id="d3GqKmMKsg"></path><path d="M234.52 276C234.5 290.35 222.81 302.01 208.46 301.98C194.11 301.96 182.45 290.27 182.48 275.92C182.5 261.57 194.2 249.91 208.55 249.94C222.9 249.96 234.55 261.66 234.52 276ZM233.48 276C233.5 262.23 222.32 251.01 208.54 250.98C194.77 250.96 183.55 262.14 183.52 275.92C183.5 289.69 194.69 300.92 208.46 300.94C222.23 300.96 233.46 289.78 233.48 276Z" id="a1v4NV6dT"></path><path d="M432.21 217.63C432.21 217.63 432.21 217.63 432.21 217.63C436.34 224.12 438.64 227.72 439.1 228.44C439.1 228.44 439.1 228.44 439.1 228.44C432.62 232.57 429.02 234.87 428.3 235.33C428.3 235.33 428.3 235.33 428.3 235.33C424.16 228.84 421.87 225.24 421.41 224.52C421.41 224.52 421.41 224.52 421.41 224.52C427.89 220.39 431.49 218.09 432.21 217.63Z" id="cnPB16KDm"></path><path d="M339.13 131.8C339.13 131.8 339.13 131.8 339.13 131.8C341.57 135.63 342.93 137.75 343.2 138.18C343.2 138.18 343.2 138.18 343.2 138.18C339.37 140.61 337.25 141.97 336.82 142.24C336.82 142.24 336.82 142.24 336.82 142.24C334.38 138.42 333.03 136.29 332.76 135.87C332.76 135.87 332.76 135.87 332.76 135.87C336.58 133.43 338.71 132.07 339.13 131.8Z" id="d1eQgKi7Wb"></path><path d="M221.86 0C221.86 0 221.86 0 221.86 0C224.3 3.82 225.65 5.95 225.92 6.37C225.92 6.37 225.92 6.37 225.92 6.37C222.1 8.81 219.97 10.17 219.55 10.44C219.55 10.44 219.55 10.44 219.55 10.44C217.11 6.62 215.76 4.49 215.48 4.07C215.48 4.07 215.48 4.07 215.48 4.07C219.31 1.63 221.43 0.27 221.86 0Z" id="c4QTxVrb45"></path><path d="M657.3 270.77C657.3 270.77 657.3 270.77 657.3 270.77C661.43 277.25 663.73 280.85 664.19 281.57C664.19 281.57 664.19 281.57 664.19 281.57C657.7 285.7 654.1 288 653.38 288.46C653.38 288.46 653.38 288.46 653.38 288.46C649.25 281.98 646.95 278.37 646.49 277.65C646.49 277.65 646.49 277.65 646.49 277.65C652.98 273.52 656.58 271.23 657.3 270.77Z" id="e1130zVyUy"></path><path d="M564.22 184.93C564.22 184.93 564.22 184.93 564.22 184.93C566.66 188.76 568.01 190.88 568.28 191.31C568.28 191.31 568.28 191.31 568.28 191.31C564.46 193.75 562.33 195.1 561.91 195.37C561.91 195.37 561.91 195.37 561.91 195.37C559.47 191.55 558.11 189.42 557.84 189C557.84 189 557.84 189 557.84 189C561.67 186.56 563.79 185.2 564.22 184.93Z" id="a7jhMnVGp"></path><path d="M446.94 53.13C446.94 53.13 446.94 53.13 446.94 53.13C449.38 56.96 450.74 59.08 451.01 59.51C451.01 59.51 451.01 59.51 451.01 59.51C447.19 61.95 445.06 63.3 444.64 63.57C444.64 63.57 444.64 63.57 444.64 63.57C442.2 59.75 440.84 57.62 440.57 57.2C440.57 57.2 440.57 57.2 440.57 57.2C444.39 54.76 446.52 53.4 446.94 53.13Z" id="a8uK1LtSp"></path><path d="M781.77 259.28C781.59 234.73 783.41 207.15 770.75 191.38C754.35 170.97 723.25 171.96 697.4 176.12C667.93 180.87 633.81 192.27 625.7 221C621.59 235.53 625.5 251.01 624.85 266.09C624.66 270.55 623.96 275.26 621.11 278.69C617.45 283.1 611.15 284.31 605.45 283.96C583 282.56 566.82 262.84 547.77 250.87C507.31 225.43 449.53 224.43 403.06 235.63C382.64 240.55 365.53 258.27 354.5 276.14C350.4 282.78 348.29 290.5 344.15 297.11C335.41 311.07 318.6 318.26 302.2 319.73C285.8 321.21 269.41 317.83 253.18 315.04C209.2 307.48 126.79 328.96 97.62 337.22C143.22 337.3 371.22 337.69 781.63 338.39C781.85 303.04 781.89 276.67 781.77 259.28Z" id="b1R9sr6VPa"></path><path d="M781.76 329.33C781.8 301.1 781.83 285.41 781.84 282.28C780.35 281.48 779.93 280.49 778.98 279.28C776.53 276.17 764.3 260.62 742.28 232.63C741.88 232.06 741.66 231.74 741.61 231.68C737.41 226.55 728.11 226.37 723.01 230.41C722.99 230.41 722.85 230.41 722.83 230.41C716.48 235.44 715.25 244.67 720.27 251.02C728.47 261.46 748.97 287.56 781.76 329.33Z" id="c2hnZRkzpC"></path><path d="M96.6 298.46C74.78 298.43 57.03 315.96 56.55 337.56C61.88 337.57 88.53 337.61 136.51 337.7C124.44 311.57 111.14 298.49 96.6 298.46Z" id="a2JZJNdQfi"></path><path d="M66.29 311.74C51.9 311.72 40.2 322.64 39.88 337.53C43.39 337.54 60.97 337.57 92.62 337.62C84.66 320.39 75.88 311.76 66.29 311.74Z" id="b6t58JLVh"></path><path d="M32.97 306.79C15.85 306.76 1.92 319.59 1.55 337.47C5.73 337.47 26.64 337.51 64.28 337.57C54.81 317.07 44.38 306.81 32.97 306.79Z" id="daMnlxpk0"></path><path d="M404.3 227.33C404.61 227.25 404.79 226.95 404.72 226.64C404.64 226.34 404.34 226.15 404.03 226.23C404.03 226.23 404.03 226.23 404.03 226.23C403.73 226.3 403.54 226.61 403.62 226.91C403.62 226.91 403.62 226.91 403.62 226.91C403.87 227.24 404.1 227.38 404.3 227.33ZM438.79 273.96C438.79 273.96 438.79 273.96 438.79 273.96C439.04 274.12 439.37 274.06 439.53 273.81C439.54 273.79 439.55 273.77 439.56 273.75C439.73 273.49 439.65 273.15 439.4 272.98C439.13 272.81 438.77 272.89 438.6 273.17C438.6 273.17 438.6 273.17 438.6 273.17L438.6 273.17C438.55 273.59 438.61 273.85 438.79 273.96ZM422.28 249.43C422.47 249.68 422.85 249.74 423.11 249.54C423.36 249.34 423.42 248.97 423.22 248.71C423.01 248.48 422.66 248.43 422.39 248.6C422.15 248.81 422.1 249.16 422.28 249.43ZM350.02 272.69C350.32 273.19 350.96 273.35 351.46 273.06C351.48 273.05 351.49 273.04 351.51 273.03C352 272.69 352.14 272.02 351.81 271.52C351.5 271.02 350.83 270.86 350.33 271.18C350.33 271.18 350.33 271.18 350.33 271.18C349.91 271.85 349.81 272.36 350.02 272.69ZM372.06 258.43C372.39 258.92 373.05 259.05 373.55 258.73C374.05 258.41 374.2 257.75 373.88 257.25C373.88 257.25 373.88 257.25 373.88 257.25C373.53 256.75 372.86 256.61 372.34 256.91C371.84 257.25 371.72 257.93 372.06 258.43ZM394.07 244.12C394.08 244.13 394.09 244.14 394.1 244.15C394.39 244.65 395.03 244.81 395.53 244.52C395.55 244.51 395.56 244.5 395.58 244.49C396.07 244.14 396.22 243.47 395.91 242.95C395.58 242.46 394.9 242.32 394.4 242.65C393.9 242.96 393.76 243.62 394.07 244.12ZM342.14 216.7C342.72 216.58 343.09 216 342.96 215.42C342.84 214.85 342.28 214.48 341.71 214.59C341.12 214.72 340.74 215.29 340.86 215.88C340.86 215.88 340.86 215.88 340.86 215.88C341.32 216.51 341.75 216.79 342.14 216.7ZM367.96 211.95C368.54 211.82 368.91 211.25 368.78 210.67C368.66 210.1 368.1 209.73 367.53 209.84C366.95 209.96 366.57 210.54 366.68 211.13C366.68 211.13 366.68 211.13 366.68 211.13C367.14 211.76 367.57 212.03 367.96 211.95ZM395.22 301.35C395.7 301.69 396.36 301.57 396.7 301.09C396.7 301.09 396.7 301.08 396.71 301.08C397.06 300.63 396.98 299.98 396.53 299.62C396.51 299.6 396.49 299.59 396.46 299.57C395.95 299.25 395.29 299.36 394.92 299.84C394.59 300.34 394.72 301.01 395.22 301.35ZM410.11 279.76C410.61 280.08 411.28 279.95 411.62 279.45C411.96 278.96 411.83 278.29 411.34 277.96C411.34 277.95 411.33 277.95 411.33 277.94C410.85 277.61 410.19 277.73 409.85 278.2C409.84 278.21 409.84 278.22 409.84 278.22C409.52 278.72 409.63 279.39 410.11 279.76ZM424.96 258.08C424.97 258.09 424.98 258.1 425 258.11C425.47 258.46 426.15 258.36 426.5 257.88C426.52 257.87 426.53 257.85 426.54 257.84C426.88 257.34 426.74 256.66 426.25 256.33C425.75 255.99 425.07 256.12 424.74 256.62C424.73 256.62 424.73 256.63 424.73 256.63C424.39 257.09 424.49 257.74 424.96 258.08ZM337.91 191.33C338.44 191.29 338.83 190.82 338.79 190.29C338.75 189.76 338.28 189.36 337.75 189.41C337.75 189.41 337.75 189.41 337.75 189.41C337.22 189.45 336.83 189.92 336.87 190.45C336.92 190.98 337.38 191.37 337.91 191.33ZM382.71 278.64C383.1 278.97 383.69 278.92 384.03 278.53C384.04 278.52 384.04 278.51 384.05 278.5C384.41 278.1 384.36 277.49 383.96 277.14C383.95 277.13 383.95 277.13 383.94 277.13C383.53 276.8 382.94 276.85 382.58 277.23C382.58 277.23 382.58 277.23 382.58 277.23C382.39 277.93 382.44 278.4 382.71 278.64ZM397.78 260.7C398.18 261.03 398.76 260.99 399.1 260.59C399.11 260.58 399.12 260.57 399.13 260.56C399.48 260.16 399.44 259.55 399.04 259.2C399.03 259.19 399.03 259.19 399.02 259.18C398.59 258.86 397.99 258.93 397.65 259.35C397.65 259.35 397.65 259.35 397.65 259.35C397.47 260.02 397.51 260.47 397.78 260.7ZM412.84 242.74C412.84 242.75 412.84 242.75 412.85 242.75C413.22 243.09 413.8 243.06 414.14 242.69C414.16 242.67 414.18 242.64 414.2 242.62C414.55 242.22 414.51 241.61 414.11 241.26C414.1 241.25 414.1 241.25 414.09 241.24C413.68 240.93 413.09 240.99 412.75 241.38C412.75 241.38 412.75 241.38 412.75 241.38C412.54 242.05 412.57 242.51 412.84 242.74ZM360.52 231.97C360.77 232.45 361.34 232.63 361.81 232.39C362.28 232.13 362.48 231.56 362.26 231.07C362 230.59 361.4 230.41 360.91 230.66C360.91 230.66 360.91 230.66 360.91 230.66C360.49 231.22 360.36 231.66 360.52 231.97ZM381.29 221.11C381.3 221.13 381.31 221.14 381.31 221.16C381.55 221.63 382.13 221.82 382.6 221.58C383.07 221.32 383.27 220.75 383.04 220.26C382.79 219.8 382.2 219.62 381.73 219.87C381.73 219.87 381.73 219.87 381.73 219.87C381.29 220.39 381.14 220.8 381.29 221.11ZM429.18 290.67C429.2 290.68 429.22 290.69 429.24 290.69C429.74 290.86 430.29 290.6 430.47 290.09C430.47 290.08 430.48 290.07 430.48 290.06C430.62 289.55 430.33 289.02 429.82 288.85C429.32 288.69 428.79 288.96 428.62 289.46C428.62 289.48 428.62 289.49 428.61 289.51C428.61 289.51 428.61 289.51 428.61 289.51C428.68 290.17 428.87 290.56 429.18 290.67ZM436.31 268.39C436.83 268.53 437.38 268.24 437.53 267.72C437.67 267.22 437.4 266.7 436.92 266.52C436.43 266.34 435.88 266.6 435.7 267.1C435.69 267.11 435.69 267.13 435.68 267.15C435.68 267.15 435.68 267.15 435.68 267.15C435.76 267.86 435.97 268.27 436.31 268.39ZM316.25 206.56C316.54 207.1 317.22 207.31 317.76 207.03C318.3 206.72 318.5 206.04 318.21 205.49C317.92 204.95 317.24 204.74 316.7 205.02C316.7 205.02 316.7 205.02 316.7 205.02C316.21 205.68 316.06 206.19 316.25 206.56ZM340.13 193.83C340.41 194.38 341.09 194.59 341.63 194.3C342.18 194.02 342.39 193.34 342.1 192.8C341.82 192.25 341.14 192.04 340.6 192.32C340.6 192.32 340.6 192.32 340.6 192.32C340.09 192.97 339.94 193.47 340.13 193.83ZM404.84 279.52C405.44 279.68 406.06 279.33 406.22 278.72C406.38 278.14 406.05 277.54 405.48 277.36C404.89 277.19 404.27 277.51 404.07 278.09C404.07 278.09 404.07 278.09 404.07 278.09C404.19 278.91 404.44 279.39 404.84 279.52ZM412.71 253.63C413.3 253.81 413.93 253.48 414.11 252.89C414.3 252.3 413.97 251.67 413.38 251.49C412.79 251.31 412.17 251.64 411.97 252.22C411.97 252.22 411.97 252.22 411.97 252.22C412.08 253.03 412.32 253.5 412.71 253.63ZM359.89 240.81C360.38 241.19 361.07 241.1 361.46 240.63C361.85 240.17 361.8 239.47 361.34 239.07C361.33 239.07 361.33 239.06 361.32 239.06C360.84 238.66 360.13 238.74 359.73 239.22C359.74 239.22 359.73 239.22 359.73 239.22C359.73 239.22 359.73 239.22 359.73 239.22C359.54 240.01 359.59 240.54 359.89 240.81ZM377.11 219.91C377.11 219.91 377.11 219.91 377.11 219.92C377.58 220.3 378.27 220.23 378.65 219.76C378.65 219.76 378.65 219.76 378.65 219.76C379.04 219.28 378.98 218.58 378.51 218.19C378.04 217.8 377.35 217.86 376.96 218.32C376.96 218.32 376.96 218.32 376.96 218.32C376.74 219.12 376.79 219.65 377.11 219.91ZM343.06 232.91C343.53 233.31 344.23 233.25 344.62 232.78C345.01 232.32 344.96 231.65 344.52 231.24C344.05 230.83 343.34 230.88 342.93 231.35C342.93 231.35 342.93 231.35 342.93 231.35C342.7 232.13 342.75 232.65 343.06 232.91ZM361.02 212.87C361.48 213.26 362.17 213.22 362.59 212.79C362.99 212.31 362.96 211.61 362.51 211.17C362.03 210.77 361.33 210.82 360.91 211.27C360.91 211.27 360.91 211.27 360.91 211.27C360.67 212.06 360.71 212.59 361.02 212.87ZM397.6 249.05C398.17 249.25 398.8 248.95 399 248.37C399.22 247.81 398.95 247.18 398.39 246.96C398.37 246.95 398.36 246.94 398.34 246.94C397.77 246.72 397.12 247.01 396.9 247.59C396.89 247.6 396.89 247.61 396.89 247.62C396.89 247.62 396.89 247.62 396.89 247.62C396.97 248.44 397.21 248.92 397.6 249.05Z" id="b2c58kkkyE"></path><path d="M440.68 324.81L440.67 328.54L548.05 328.72L544.76 324.99L440.68 324.81Z" id="a5ogFBnNDO"></path><path d="M440.71 309.17L440.7 312.9L535.98 313.06L532.69 309.33L440.71 309.17Z" id="fL2t9r4dm"></path><path d="M440.73 292.04L440.73 296.51L523.36 296.65L520.06 292.18L440.73 292.04Z" id="a2Sl2YeaS9"></path><path d="M440.76 277.89L440.75 280.87L511.28 280.99L507.99 278.01L440.76 277.89Z" id="aq4QjO3aI"></path><path d="M440.79 260.02L440.78 265.23L498.66 265.33L495.37 260.11L440.79 260.02Z" id="b6WFH6unkr"></path><path d="M440.82 244.38L440.81 249.59L486.59 249.67L483.3 244.45L440.82 244.38Z" id="drcBb94v"></path><path d="M440.84 228.74L440.84 232.47L473.97 232.52L470.67 228.79L440.84 228.74Z" id="bsFflczx8"></path><path d="M440.87 213.1L440.86 216.83L461.89 216.86L458.6 213.13L440.87 213.1Z" id="a1H8w2bgnP"></path><path d="M421.48 265.51C399.67 265.47 381.92 283.01 381.44 304.6C386.77 304.61 413.42 304.66 461.4 304.74C449.33 278.61 436.03 265.53 421.48 265.51Z" id="e10oFWUDYP"></path><path d="M391.18 278.79C376.8 278.76 365.09 290.42 364.77 304.57C368.29 304.58 385.87 304.61 417.51 304.66C409.55 287.43 400.77 278.8 391.18 278.79Z" id="ceKAA4CQv"></path><path d="M357.86 273.83C340.74 273.8 326.81 286.64 326.44 304.51C330.62 304.52 351.53 304.55 389.17 304.62C379.71 284.11 369.27 273.85 357.86 273.83Z" id="b1Rd2WF8Ep"></path><path d="M729.91 338.3L781.64 338.39L781.92 172.23C781.5 171.7 781.27 171.4 781.22 171.34C776.2 164.98 766.82 163.25 760.47 168.28C760.47 168.28 760.47 168.28 760.47 168.28C755.46 172.25 753.6 182.1 756.98 186.66C757.71 187.6 763.57 195.1 764.3 196.04C769.32 202.39 768.05 211.27 761.7 216.29C761.7 216.3 761.7 216.3 761.7 216.3C755.35 221.32 746.16 220.85 741.14 214.49C739.43 212.25 725.75 194.3 724.04 192.05C720.19 187.61 711.16 187.35 706.25 191.24C706.25 191.24 706.25 191.24 706.25 191.24C701.15 195.28 699.28 204.97 703.15 209.83C704.79 211.99 717.94 229.27 719.58 231.43C724.6 237.78 723.22 246.77 716.87 251.8C716.87 251.8 716.87 251.8 716.87 251.8C710.52 256.83 701.43 256.22 696.41 249.87C693.95 246.76 681.65 231.21 659.52 203.21C659.06 202.65 658.81 202.33 658.75 202.27C654.55 197.14 645.2 196.96 640.1 201C640.1 201 640.09 201 640.09 201C633.74 206.03 632.69 215.25 637.71 221.61C650 237.17 680.74 276.06 729.91 338.3Z" id="b6T3SAbPVX"></path></defs><g><g><g><use xlink:href="#bfxbkKUXQ" opacity="1" fill="#f6835f" fill-opacity="1"></use><g><use xlink:href="#bfxbkKUXQ" opacity="1" fill-opacity="0" stroke="#000000" stroke-width="1" stroke-opacity="0"></use></g></g><g><use xlink:href="#aSoEz9JEV" opacity="1" fill="#f6835f" fill-opacity="1"></use><g><use xlink:href="#aSoEz9JEV" opacity="1" fill-opacity="0" stroke="#000000" stroke-width="1" stroke-opacity="0"></use></g></g><g><use xlink:href="#bk0cLcSVv" opacity="1" fill="#f6835f" fill-opacity="1"></use><g><use xlink:href="#bk0cLcSVv" opacity="1" fill-opacity="0" stroke="#000000" stroke-width="1" stroke-opacity="0"></use></g></g><g><use xlink:href="#d8OOYvDKY" opacity="1" fill="#f6835f" fill-opacity="1"></use><g><use xlink:href="#d8OOYvDKY" opacity="1" fill-opacity="0" stroke="#000000" stroke-width="1" stroke-opacity="0"></use></g></g><g><use xlink:href="#d1ErHyo3nt" opacity="1" fill="#f6835f" fill-opacity="1"></use><g><use xlink:href="#d1ErHyo3nt" opacity="1" fill-opacity="0" stroke="#000000" stroke-width="1" stroke-opacity="0"></use></g></g><g><use xlink:href="#d8sUVUVFYF" opacity="1" fill="#f6835f" fill-opacity="1"></use><g><use xlink:href="#d8sUVUVFYF" opacity="1" fill-opacity="0" stroke="#000000" stroke-width="1" stroke-opacity="0"></use></g></g><g><use xlink:href="#cEEceyMti" opacity="1" fill="#f6835f" fill-opacity="1"></use><g><use xlink:href="#cEEceyMti" opacity="1" fill-opacity="0" stroke="#000000" stroke-width="1" stroke-opacity="0"></use></g></g><g><use xlink:href="#d1rzc8LWQ" opacity="1" fill="#f6835f" fill-opacity="1"></use><g><use xlink:href="#d1rzc8LWQ" opacity="1" fill-opacity="0" stroke="#000000" stroke-width="1" stroke-opacity="0"></use></g></g><g><use xlink:href="#a38Fg3ABf" opacity="1" fill="#ffa861" fill-opacity="1"></use><g><use xlink:href="#a38Fg3ABf" opacity="1" fill-opacity="0" stroke="#000000" stroke-width="1" stroke-opacity="0"></use></g></g><g><use xlink:href="#aCV4xzOeQ" opacity="1" fill="#ffa861" fill-opacity="1"></use><g><use xlink:href="#aCV4xzOeQ" opacity="1" fill-opacity="0" stroke="#000000" stroke-width="1" stroke-opacity="0"></use></g></g><g><use xlink:href="#kpLiPT3Nj" opacity="1" fill="#ffa861" fill-opacity="1"></use><g><use xlink:href="#kpLiPT3Nj" opacity="1" fill-opacity="0" stroke="#000000" stroke-width="1" stroke-opacity="0"></use></g></g><g><use xlink:href="#cbv3KuXlm" opacity="1" fill="#ffa861" fill-opacity="1"></use><g><use xlink:href="#cbv3KuXlm" opacity="1" fill-opacity="0" stroke="#000000" stroke-width="1" stroke-opacity="0"></use></g></g><g><use xlink:href="#a8pGoFJSJn" opacity="1" fill="#ffa861" fill-opacity="1"></use><g><use xlink:href="#a8pGoFJSJn" opacity="1" fill-opacity="0" stroke="#000000" stroke-width="1" stroke-opacity="0"></use></g></g><g><use xlink:href="#aoblTfCVT" opacity="1" fill="#fff1d0" fill-opacity="1"></use><g><use xlink:href="#aoblTfCVT" opacity="1" fill-opacity="0" stroke="#000000" stroke-width="1" stroke-opacity="0"></use></g></g><g><use xlink:href="#f15OKUIpeH" opacity="1" fill="#f6835f" fill-opacity="1"></use><g><use xlink:href="#f15OKUIpeH" opacity="1" fill-opacity="0" stroke="#000000" stroke-width="1" stroke-opacity="0"></use></g></g><g><use xlink:href="#aVlbEot4H" opacity="1" fill="#ffa861" fill-opacity="1"></use><g><use xlink:href="#aVlbEot4H" opacity="1" fill-opacity="0" stroke="#000000" stroke-width="1" stroke-opacity="0"></use></g></g><g><use xlink:href="#b1P4zLWLoq" opacity="1" fill="#ffa861" fill-opacity="1"></use><g><use xlink:href="#b1P4zLWLoq" opacity="1" fill-opacity="0" stroke="#000000" stroke-width="1" stroke-opacity="0"></use></g></g><g><use xlink:href="#a9EX8Cvc4" opacity="1" fill="#ffa861" fill-opacity="1"></use><g><use xlink:href="#a9EX8Cvc4" opacity="1" fill-opacity="0" stroke="#000000" stroke-width="1" stroke-opacity="0"></use></g></g><g><use xlink:href="#f8hIWuiSnE" opacity="1" fill="#ffa861" fill-opacity="1"></use><g><use xlink:href="#f8hIWuiSnE" opacity="1" fill-opacity="0" stroke="#000000" stroke-width="1" stroke-opacity="0"></use></g></g><g><use xlink:href="#a3cLgPn8X" opacity="1" fill="#ffa861" fill-opacity="1"></use><g><use xlink:href="#a3cLgPn8X" opacity="1" fill-opacity="0" stroke="#000000" stroke-width="1" stroke-opacity="0"></use></g></g><g><use xlink:href="#b2uiFFwN1u" opacity="1" fill="#ffffff" fill-opacity="1"></use><g><use xlink:href="#b2uiFFwN1u" opacity="1" fill-opacity="0" stroke="#000000" stroke-width="1" stroke-opacity="0"></use></g></g><g><use xlink:href="#a5noDwBChP" opacity="1" fill="#ffffff" fill-opacity="1"></use><g><use xlink:href="#a5noDwBChP" opacity="1" fill-opacity="0" stroke="#000000" stroke-width="1" stroke-opacity="0"></use></g></g><g><use xlink:href="#i5sTHexlKX" opacity="1" fill="#ffffff" fill-opacity="1"></use><g><use xlink:href="#i5sTHexlKX" opacity="1" fill-opacity="0" stroke="#000000" stroke-width="1" stroke-opacity="0"></use></g></g><g><use xlink:href="#d3GqKmMKsg" opacity="1" fill="#ffffff" fill-opacity="1"></use><g><use xlink:href="#d3GqKmMKsg" opacity="1" fill-opacity="0" stroke="#000000" stroke-width="1" stroke-opacity="0"></use></g></g><g><use xlink:href="#a1v4NV6dT" opacity="1" fill="#ffffff" fill-opacity="1"></use><g><use xlink:href="#a1v4NV6dT" opacity="1" fill-opacity="0" stroke="#000000" stroke-width="1" stroke-opacity="0"></use></g></g><g><use xlink:href="#cnPB16KDm" opacity="1" fill="#ffffff" fill-opacity="1"></use><g><use xlink:href="#cnPB16KDm" opacity="1" fill-opacity="0" stroke="#000000" stroke-width="1" stroke-opacity="0"></use></g></g><g><use xlink:href="#d1eQgKi7Wb" opacity="1" fill="#fff1d0" fill-opacity="1"></use><g><use xlink:href="#d1eQgKi7Wb" opacity="1" fill-opacity="0" stroke="#000000" stroke-width="1" stroke-opacity="0"></use></g></g><g><use xlink:href="#c4QTxVrb45" opacity="1" fill="#fff1d0" fill-opacity="1"></use><g><use xlink:href="#c4QTxVrb45" opacity="1" fill-opacity="0" stroke="#000000" stroke-width="1" stroke-opacity="0"></use></g></g><g><use xlink:href="#e1130zVyUy" opacity="1" fill="#ffffff" fill-opacity="1"></use><g><use xlink:href="#e1130zVyUy" opacity="1" fill-opacity="0" stroke="#000000" stroke-width="1" stroke-opacity="0"></use></g></g><g><use xlink:href="#a7jhMnVGp" opacity="1" fill="#fff1d0" fill-opacity="1"></use><g><use xlink:href="#a7jhMnVGp" opacity="1" fill-opacity="0" stroke="#000000" stroke-width="1" stroke-opacity="0"></use></g></g><g><use xlink:href="#a8uK1LtSp" opacity="1" fill="#fff1d0" fill-opacity="1"></use><g><use xlink:href="#a8uK1LtSp" opacity="1" fill-opacity="0" stroke="#000000" stroke-width="1" stroke-opacity="0"></use></g></g><g><use xlink:href="#b1R9sr6VPa" opacity="1" fill="#3dbb9f" fill-opacity="1"></use><g><use xlink:href="#b1R9sr6VPa" opacity="1" fill-opacity="0" stroke="#000000" stroke-width="1" stroke-opacity="0"></use></g></g><g><use xlink:href="#c2hnZRkzpC" opacity="1" fill="#f6835f" fill-opacity="1"></use><g><use xlink:href="#c2hnZRkzpC" opacity="1" fill-opacity="0" stroke="#000000" stroke-width="1" stroke-opacity="0"></use></g></g><g><use xlink:href="#a2JZJNdQfi" opacity="1" fill="#ffa861" fill-opacity="1"></use><g><use xlink:href="#a2JZJNdQfi" opacity="1" fill-opacity="0" stroke="#000000" stroke-width="1" stroke-opacity="0"></use></g></g><g><use xlink:href="#b6t58JLVh" opacity="1" fill="#ff9960" fill-opacity="1"></use><g><use xlink:href="#b6t58JLVh" opacity="1" fill-opacity="0" stroke="#000000" stroke-width="1" stroke-opacity="0"></use></g></g><g><use xlink:href="#daMnlxpk0" opacity="1" fill="#ff8c5f" fill-opacity="1"></use><g><use xlink:href="#daMnlxpk0" opacity="1" fill-opacity="0" stroke="#000000" stroke-width="1" stroke-opacity="0"></use></g></g><g><use xlink:href="#b2c58kkkyE" opacity="1" fill="#f6835f" fill-opacity="1"></use><g><use xlink:href="#b2c58kkkyE" opacity="1" fill-opacity="0" stroke="#000000" stroke-width="1" stroke-opacity="0"></use></g></g><g><use xlink:href="#a5ogFBnNDO" opacity="1" fill="#f6835f" fill-opacity="1"></use><g><use xlink:href="#a5ogFBnNDO" opacity="1" fill-opacity="0" stroke="#000000" stroke-width="1" stroke-opacity="0"></use></g></g><g><use xlink:href="#fL2t9r4dm" opacity="1" fill="#f6835f" fill-opacity="1"></use><g><use xlink:href="#fL2t9r4dm" opacity="1" fill-opacity="0" stroke="#000000" stroke-width="1" stroke-opacity="0"></use></g></g><g><use xlink:href="#a2Sl2YeaS9" opacity="1" fill="#f6835f" fill-opacity="1"></use><g><use xlink:href="#a2Sl2YeaS9" opacity="1" fill-opacity="0" stroke="#000000" stroke-width="1" stroke-opacity="0"></use></g></g><g><use xlink:href="#aq4QjO3aI" opacity="1" fill="#f6835f" fill-opacity="1"></use><g><use xlink:href="#aq4QjO3aI" opacity="1" fill-opacity="0" stroke="#000000" stroke-width="1" stroke-opacity="0"></use></g></g><g><use xlink:href="#b6WFH6unkr" opacity="1" fill="#f6835f" fill-opacity="1"></use><g><use xlink:href="#b6WFH6unkr" opacity="1" fill-opacity="0" stroke="#000000" stroke-width="1" stroke-opacity="0"></use></g></g><g><use xlink:href="#drcBb94v" opacity="1" fill="#f6835f" fill-opacity="1"></use><g><use xlink:href="#drcBb94v" opacity="1" fill-opacity="0" stroke="#000000" stroke-width="1" stroke-opacity="0"></use></g></g><g><use xlink:href="#bsFflczx8" opacity="1" fill="#f6835f" fill-opacity="1"></use><g><use xlink:href="#bsFflczx8" opacity="1" fill-opacity="0" stroke="#000000" stroke-width="1" stroke-opacity="0"></use></g></g><g><use xlink:href="#a1H8w2bgnP" opacity="1" fill="#f6835f" fill-opacity="1"></use><g><use xlink:href="#a1H8w2bgnP" opacity="1" fill-opacity="0" stroke="#000000" stroke-width="1" stroke-opacity="0"></use></g></g><g><use xlink:href="#e10oFWUDYP" opacity="1" fill="#ffa861" fill-opacity="1"></use><g><use xlink:href="#e10oFWUDYP" opacity="1" fill-opacity="0" stroke="#000000" stroke-width="1" stroke-opacity="0"></use></g></g><g><use xlink:href="#ceKAA4CQv" opacity="1" fill="#ff9960" fill-opacity="1"></use><g><use xlink:href="#ceKAA4CQv" opacity="1" fill-opacity="0" stroke="#000000" stroke-width="1" stroke-opacity="0"></use></g></g><g><use xlink:href="#b1Rd2WF8Ep" opacity="1" fill="#ff8c5f" fill-opacity="1"></use><g><use xlink:href="#b1Rd2WF8Ep" opacity="1" fill-opacity="0" stroke="#000000" stroke-width="1" stroke-opacity="0"></use></g></g><g><use xlink:href="#b6T3SAbPVX" opacity="1" fill="#f6835f" fill-opacity="1"></use><g><use xlink:href="#b6T3SAbPVX" opacity="1" fill-opacity="0" stroke="#000000" stroke-width="1" stroke-opacity="0"></use></g></g></g></g></svg>